<svg width="67" height="72" viewBox="0 0 67 72" fill="none" xmlns="http://www.w3.org/2000/svg">
<path d="M53.1056 64.3322C38.9382 64.3322 29.2093 71.6709 22.3827 71.6709C15.5561 71.6709 1.21875 67.7465 1.21875 36.3416C1.21875 4.93666 20.5066 0.326172 28.0153 0.326172C63.1766 0.326172 78.196 64.3322 53.1056 64.3322Z" fill="#F1F1F1"/>
<path d="M8.76172 5.93466L11.6583 3.03809L13.1066 4.48637L10.21 7.38295L8.76172 5.93466Z" fill="black"/>
<path d="M0.433594 14.2608L3.33017 11.3643L4.77847 12.8125L1.88189 15.7091L0.433594 14.2608Z" fill="black"/>
<path d="M0.796875 4.48345L2.24517 3.03516L5.14175 5.93174L3.69346 7.38003L0.796875 4.48345Z" fill="black"/>
<path d="M52.3431 54.9458H14.4516C12.1883 54.9458 10.3552 53.1126 10.3552 50.8494V20.1265H56.4395V50.8494C56.4395 53.1126 54.6064 54.9458 52.3431 54.9458Z" fill="#F1F1F1"/>
<path d="M10.3552 20.1262H56.4395V17.0539C56.4395 14.7906 54.6064 12.9575 52.3431 12.9575H14.4516C12.1883 12.9575 10.3552 14.7906 10.3552 17.0539V20.1262Z" fill="#3751FF" fill-opacity="0.25"/>
<path d="M10.3552 55.97C10.3552 57.6659 11.7316 59.0423 13.4275 59.0423H26.7407C28.4367 59.0423 29.813 57.6659 29.813 55.97V28.3194C29.813 26.6235 28.4367 25.2471 26.7407 25.2471H13.4275C11.7316 25.2471 10.3552 26.6235 10.3552 28.3194V55.97Z" fill="#F1F1F1"/>
<path d="M26.739 25.2471C25.6085 25.2471 24.6909 26.1647 24.6909 27.2953C24.6909 28.4259 23.7733 29.3435 22.6427 29.3435H17.5222C16.3916 29.3435 15.474 28.4259 15.474 27.2953C15.474 26.1647 14.5565 25.2471 13.4258 25.2471H26.739Z" fill="#3751FF" fill-opacity="0.25"/>
<path d="M19.06 12.9575H14.4516C12.1883 12.9575 10.3552 14.7906 10.3552 17.0539V20.1262H14.9636V17.0539C14.9636 14.7906 16.7968 12.9575 19.06 12.9575Z" fill="#3751FF" fill-opacity="0.25"/>
<path d="M20.0825 27.2953C20.0825 26.1647 19.1648 25.2471 18.0342 25.2471H13.4258C14.5565 25.2471 15.474 26.1647 15.474 27.2953C15.474 28.4259 16.3916 29.3435 17.5222 29.3435H22.1307C21 29.3435 20.0825 28.4259 20.0825 27.2953Z" fill="#3751FF" fill-opacity="0.25"/>
<path d="M14.9636 55.97V28.3194C14.9636 26.6235 16.34 25.2471 18.0359 25.2471H13.4275C11.7316 25.2471 10.3552 26.6235 10.3552 28.3194V55.97C10.3552 57.6659 11.7316 59.0423 13.4275 59.0423H18.0359C16.34 59.0423 14.9636 57.6659 14.9636 55.97Z" fill="#F1F1F1"/>
<path d="M14.9636 20.1265V24.7349L10.3552 26.783V20.1265H14.9636Z" fill="#F1F1F1"/>
<path d="M22.6427 30.8796H17.5222C15.5457 30.8796 13.9379 29.2718 13.9379 27.2953C13.9379 27.0126 13.7085 26.7833 13.4258 26.7833V23.7109C15.4024 23.7109 17.0101 25.3188 17.0101 27.2953C17.0101 27.578 17.2395 27.8073 17.5222 27.8073H22.6427C22.9254 27.8073 23.1547 27.578 23.1547 27.2953C23.1547 25.3188 24.7625 23.7109 26.739 23.7109V26.7833C26.4564 26.7833 26.227 27.0126 26.227 27.2953C26.227 29.2718 24.6192 30.8796 22.6427 30.8796Z" fill="black"/>
<path d="M26.742 60.5784H13.4287C10.889 60.5784 8.82031 58.5118 8.82031 55.97V28.3194C8.82031 25.7776 10.889 23.7109 13.4287 23.7109H26.742C29.2818 23.7109 31.3504 25.7776 31.3504 28.3194V55.97C31.3504 58.5118 29.2818 60.5784 26.742 60.5784ZM13.4287 26.7833C12.5828 26.7833 11.8926 27.4714 11.8926 28.3194V55.97C11.8926 56.8179 12.5828 57.5061 13.4287 57.5061H26.742C27.5879 57.5061 28.2781 56.8179 28.2781 55.97V28.3194C28.2781 27.4714 27.5879 26.7833 26.742 26.7833H13.4287Z" fill="black"/>
<path d="M52.3444 56.4817H35.4468V53.4094H52.3444C53.7556 53.4094 54.9046 52.2603 54.9046 50.8491V17.0539C54.9046 15.6427 53.7556 14.4937 52.3444 14.4937H14.4528C13.0416 14.4937 11.8926 15.6427 11.8926 17.0539V19.6142H8.82031V17.0539C8.82031 13.9469 11.3458 11.4214 14.4528 11.4214H52.3444C55.4515 11.4214 57.9769 13.9469 57.9769 17.0539V50.8491C57.9769 53.9562 55.4515 56.4817 52.3444 56.4817Z" fill="black"/>
<path d="M31.3477 18.5903H56.438V21.6626H31.3477V18.5903Z" fill="black"/>
<path d="M38.4492 39.0124L46.1295 31.332L48.302 33.5045L40.6216 41.1848L38.4492 39.0124Z" fill="black"/>
<path d="M45.6888 42.1445H39.0322C38.1842 42.1445 37.4961 41.4562 37.4961 40.6083V33.9517H40.5683V39.0721H45.6888V42.1445Z" fill="black"/>
</svg>
