<svg width="72" height="72" viewBox="0 0 72 72" fill="none" xmlns="http://www.w3.org/2000/svg">
<path d="M50.6244 49.5C48.9656 49.4991 47.3394 49.9597 45.9273 50.83C44.5153 51.7005 43.3733 52.9466 42.6289 54.4289C44.859 56.3305 47.6937 57.3751 50.6244 57.3751C53.555 57.3751 56.3898 56.3305 58.6198 54.4289C57.8754 52.9466 56.7334 51.7005 55.3214 50.83C53.9093 49.9597 52.2831 49.4991 50.6244 49.5Z" fill="#3751FF" fill-opacity="0.25"/>
<path d="M50.625 47.25C53.1102 47.25 55.125 45.2352 55.125 42.75C55.125 40.2648 53.1102 38.25 50.625 38.25C48.1397 38.25 46.125 40.2648 46.125 42.75C46.125 45.2352 48.1397 47.25 50.625 47.25Z" fill="#3751FF" fill-opacity="0.25"/>
<path d="M66.3749 19.1251H34.8749C33.9802 19.126 33.1224 19.4819 32.4896 20.1147C31.8569 20.7473 31.5009 21.6052 31.5 22.5V67.5C31.5009 68.3948 31.8569 69.2527 32.4896 69.8854C33.1224 70.5182 33.9802 70.874 34.8749 70.875H66.3749C67.2698 70.874 68.1276 70.5182 68.7604 69.8854C69.3931 69.2527 69.7491 68.3948 69.75 67.5V22.5C69.7491 21.6052 69.3931 20.7473 68.7604 20.1147C68.1276 19.4819 67.2698 19.126 66.3749 19.1251ZM50.6251 23.6251H56.25C56.5484 23.6251 56.8345 23.7436 57.0455 23.9545C57.2565 24.1655 57.375 24.4516 57.375 24.75C57.375 25.0484 57.2565 25.3345 57.0455 25.5455C56.8345 25.7565 56.5484 25.875 56.25 25.875H50.6251C50.3267 25.875 50.0405 25.7565 49.8296 25.5455C49.6185 25.3345 49.5 25.0484 49.5 24.75C49.5 24.4516 49.6185 24.1655 49.8296 23.9545C50.0405 23.7436 50.3267 23.6251 50.6251 23.6251ZM45 23.6251H46.1251C46.4233 23.6251 46.7095 23.7436 46.9204 23.9545C47.1315 24.1655 47.25 24.4516 47.25 24.75C47.25 25.0484 47.1315 25.3345 46.9204 25.5455C46.7095 25.7565 46.4233 25.875 46.1251 25.875H45C44.7016 25.875 44.4155 25.7565 44.2045 25.5455C43.9935 25.3345 43.8749 25.0484 43.8749 24.75C43.8749 24.4516 43.9935 24.1655 44.2045 23.9545C44.4155 23.7436 44.7016 23.6251 45 23.6251ZM52.875 66.375H48.375C48.0767 66.375 47.7905 66.2565 47.5796 66.0455C47.3685 65.8345 47.25 65.5484 47.25 65.25C47.25 64.9516 47.3685 64.6655 47.5796 64.4545C47.7905 64.2436 48.0767 64.1251 48.375 64.1251H52.875C53.1733 64.1251 53.4595 64.2436 53.6704 64.4545C53.8815 64.6655 54 64.9516 54 65.25C54 65.5484 53.8815 65.8345 53.6704 66.0455C53.4595 66.2565 53.1733 66.375 52.875 66.375ZM50.6251 59.6251C47.7324 59.6251 44.9049 58.7672 42.4997 57.1603C40.0947 55.5533 38.2202 53.2691 37.1132 50.5968C36.0064 47.9243 35.7167 44.9838 36.281 42.1469C36.8453 39.3099 38.2382 36.704 40.2836 34.6585C42.3289 32.6132 44.9348 31.2203 47.7718 30.6561C50.6088 30.0917 53.5494 30.3813 56.2217 31.4883C58.8941 32.5952 61.1782 34.4697 62.7852 36.8748C64.3923 39.2798 65.25 42.1075 65.25 45C65.2399 48.8757 63.6958 52.5897 60.9553 55.3304C58.2148 58.0709 54.5007 59.615 50.6251 59.6251Z" fill="#3751FF" fill-opacity="0.25"/>
<path d="M50.625 32.625C48.2936 32.6223 46.0089 33.2789 44.0347 34.5193C42.0605 35.7596 40.4775 37.533 39.4681 39.6346C38.4589 41.7363 38.0646 44.0807 38.3308 46.3969C38.5971 48.713 39.513 50.9068 40.9728 52.7247C42.234 50.6034 44.1613 48.9589 46.4545 48.047C45.3507 47.1797 44.5449 45.9899 44.1491 44.6432C43.7532 43.2964 43.787 41.8598 44.2458 40.5331C44.7047 39.2065 45.5658 38.0559 46.7092 37.2416C47.8525 36.4273 49.2214 35.9896 50.625 35.9896C52.0287 35.9896 53.3976 36.4273 54.5409 37.2416C55.6844 38.0559 56.5454 39.2065 57.0042 40.5331C57.4631 41.8598 57.4969 43.2964 57.1011 44.6432C56.7052 45.9899 55.8994 47.1797 54.7956 48.047C57.0888 48.9589 59.0161 50.6034 60.2773 52.7247C61.7371 50.9068 62.6531 48.713 62.9193 46.3969C63.1854 44.0807 62.7912 41.7363 61.782 39.6346C60.7726 37.533 59.1896 35.7596 57.2154 34.5193C55.2413 33.2789 52.9565 32.6223 50.625 32.625Z" fill="#3751FF" fill-opacity="0.25"/>
<path d="M56.25 32.6251H54V4.5C53.9991 3.60519 53.6431 2.74731 53.0104 2.11459C52.3776 1.48187 51.5198 1.12598 50.6251 1.125H9C8.10519 1.12598 7.24731 1.48187 6.6146 2.11459C5.98187 2.74731 5.62598 3.60519 5.625 4.5V32.6251H3.375C3.22724 32.625 3.08091 32.654 2.94438 32.7104C2.80786 32.767 2.6838 32.8498 2.57932 32.9543C2.47484 33.0588 2.39197 33.1828 2.33546 33.3193C2.27895 33.4559 2.24992 33.6022 2.25 33.75V37.1251C2.25098 38.0198 2.60687 38.8776 3.23959 39.5104C3.87231 40.1431 4.73019 40.4991 5.625 40.5H54C54.8948 40.4991 55.7527 40.1431 56.3854 39.5104C57.0181 38.8776 57.374 38.0198 57.375 37.1251V33.75C57.3751 33.6022 57.3461 33.4559 57.2896 33.3193C57.233 33.1828 57.1502 33.0588 57.0457 32.9543C56.9412 32.8498 56.8172 32.767 56.6807 32.7104C56.5441 32.654 56.3978 32.625 56.25 32.6251ZM7.875 4.5C7.8752 4.20169 7.99379 3.91566 8.20473 3.70473C8.41566 3.49379 8.70169 3.3752 9 3.375H50.6251C50.9233 3.3752 51.2094 3.49379 51.4202 3.70473C51.6312 3.91566 51.7498 4.20169 51.75 4.5V32.6251H45V19.1251H46.1251C46.3676 19.1242 46.6034 19.0451 46.7975 18.8994C46.9915 18.7537 47.1333 18.5493 47.2017 18.3165C47.2701 18.0837 47.2615 17.8351 47.1772 17.6076C47.0928 17.3802 46.9372 17.186 46.7337 17.0541L30.9837 6.92907C30.8022 6.81193 30.591 6.74974 30.375 6.75H29.25C29.0341 6.74974 28.8227 6.81193 28.6414 6.92907L12.8914 17.0541C12.6877 17.186 12.5322 17.3802 12.4479 17.6076C12.3635 17.8351 12.3549 18.0837 12.4233 18.3165C12.4917 18.5493 12.6335 18.7537 12.8275 18.8994C13.0215 19.0451 13.2574 19.1242 13.5 19.1251H14.6251V32.6251H7.875V4.5ZM17.3309 16.8749L29.5808 9H30.0444L42.2941 16.8749H17.3309ZM37.1251 19.1251V32.6251H33.75V19.1251H37.1251ZM31.5 19.1251V32.6251H28.1251V19.1251H31.5ZM25.875 19.1251V32.6251H22.5V19.1251H25.875ZM20.25 19.1251V32.6251H16.8749V19.1251H20.25ZM39.375 19.1251H42.75V32.6251H39.375V19.1251ZM55.1251 37.1251C55.1248 37.4233 55.0063 37.7094 54.7953 37.9202C54.5843 38.1312 54.2983 38.2498 54 38.25H5.625C3.94891 38.25 4.653 35.8991 4.5 34.875H55.1251V37.1251Z" fill="#0F062B"/>
</svg>
