<svg width="72" height="72" viewBox="0 0 72 72" fill="none" xmlns="http://www.w3.org/2000/svg">
<path d="M49.5 32.6913V41.6249H40.5664C40.8244 39.3445 41.8485 37.2191 43.4713 35.5962C45.0941 33.9734 47.2195 32.9492 49.5 32.6913Z" fill="#3751FF" fill-opacity="0.25"/>
<path d="M56.9374 50.6531C55.5246 51.7856 53.8335 52.5178 52.041 52.7733C50.2485 53.0288 48.4203 52.7982 46.7473 52.1056C45.0744 51.4129 43.6182 50.2837 42.5309 48.8358C41.4436 47.388 40.7651 45.6747 40.5664 43.8749H50.1593L56.9374 50.6531Z" fill="#3751FF" fill-opacity="0.25"/>
<path d="M51.75 32.6913C53.5497 32.89 55.263 33.5686 56.7108 34.6559C58.1587 35.7432 59.2879 37.1993 59.9805 38.8723C60.6732 40.5451 60.9039 42.3734 60.6484 44.1659C60.3929 45.9585 59.6606 47.6495 58.5281 49.0622L51.75 42.2842V32.6913Z" fill="#3751FF" fill-opacity="0.25"/>
<path d="M11.25 27V58.5C11.25 59.3951 11.6056 60.2535 12.2386 60.8865C12.8714 61.5194 13.7299 61.875 14.6251 61.875H38.25V68.6251H32.6251C32.3267 68.6251 32.0405 68.7436 31.8296 68.9545C31.6185 69.1655 31.5 69.4516 31.5 69.75C31.5 70.0484 31.6185 70.3345 31.8296 70.5455C32.0405 70.7565 32.3267 70.875 32.6251 70.875H46.1251C46.4233 70.875 46.7095 70.7565 46.9204 70.5455C47.1315 70.3345 47.25 70.0484 47.25 69.75C47.25 69.4516 47.1315 69.1655 46.9204 68.9545C46.7095 68.7436 46.4233 68.6251 46.1251 68.6251H40.5V61.875H64.1251C65.0201 61.875 65.8786 61.5194 66.5114 60.8865C67.1444 60.2535 67.5 59.3951 67.5 58.5V27C67.5 26.1049 67.1444 25.2465 66.5114 24.6135C65.8786 23.9806 65.0201 23.6251 64.1251 23.6251H14.6251C13.7299 23.6251 12.8714 23.9806 12.2386 24.6135C11.6056 25.2465 11.25 26.1049 11.25 27ZM38.25 42.75C38.2483 40.7154 38.7482 38.7117 39.7056 36.9165C40.6629 35.1212 42.0482 33.5898 43.7387 32.4575C45.4292 31.3254 47.3727 30.6275 49.3972 30.4256C51.4219 30.2238 53.4649 30.5242 55.3457 31.3003C57.2264 32.0764 58.8867 33.3043 60.1798 34.8753C61.4728 36.4461 62.3585 38.3116 62.7585 40.3065C63.1585 42.3013 63.0605 44.3641 62.4731 46.3121C61.8858 48.2601 60.8271 50.0331 59.3909 51.4744C59.3843 51.4823 59.382 51.4924 59.3741 51.4991C59.3663 51.5059 59.3572 51.5092 59.3494 51.516C57.6179 53.2426 55.4135 54.417 53.0146 54.8911C50.6158 55.365 48.1304 55.1173 45.8722 54.1792C43.6142 53.241 41.6849 51.6546 40.3282 49.6204C38.9715 47.586 38.2484 45.1952 38.25 42.75ZM15.75 49.5C15.75 49.2016 15.8685 48.9155 16.0796 48.7045C16.2905 48.4936 16.5767 48.375 16.8749 48.375H32.6251C32.9233 48.375 33.2095 48.4936 33.4204 48.7045C33.6315 48.9155 33.75 49.2016 33.75 49.5C33.75 49.7984 33.6315 50.0845 33.4204 50.2955C33.2095 50.5065 32.9233 50.6251 32.6251 50.6251H16.8749C16.5767 50.6251 16.2905 50.5065 16.0796 50.2955C15.8685 50.0845 15.75 49.7984 15.75 49.5ZM32.6251 43.875H24.75C24.4516 43.875 24.1655 43.7565 23.9545 43.5455C23.7435 43.3345 23.6251 43.0484 23.6251 42.75C23.6251 42.4516 23.7435 42.1655 23.9545 41.9545C24.1655 41.7436 24.4516 41.6251 24.75 41.6251H32.6251C32.9233 41.6251 33.2095 41.7436 33.4204 41.9545C33.6315 42.1655 33.75 42.4516 33.75 42.75C33.75 43.0484 33.6315 43.3345 33.4204 43.5455C33.2095 43.7565 32.9233 43.875 32.6251 43.875ZM15.75 36C15.75 35.7016 15.8685 35.4155 16.0796 35.2045C16.2905 34.9936 16.5767 34.875 16.8749 34.875H32.6251C32.9233 34.875 33.2095 34.9936 33.4204 35.2045C33.6315 35.4155 33.75 35.7016 33.75 36C33.75 36.2984 33.6315 36.5845 33.4204 36.7955C33.2095 37.0065 32.9233 37.1251 32.6251 37.1251H16.8749C16.5767 37.1251 16.2905 37.0065 16.0796 36.7955C15.8685 36.5845 15.75 36.2984 15.75 36Z" fill="#3751FF" fill-opacity="0.25"/>
<path d="M39.375 1.125H7.875C6.9799 1.125 6.12145 1.48058 5.48852 2.11352C4.85558 2.74645 4.5 3.6049 4.5 4.5V54C4.5 54.8951 4.85558 55.7535 5.48852 56.3865C6.12145 57.0194 6.9799 57.375 7.875 57.375H39.375C40.2701 57.375 41.1286 57.0194 41.7614 56.3865C42.3944 55.7535 42.75 54.8951 42.75 54V4.5C42.75 3.6049 42.3944 2.74645 41.7614 2.11352C41.1286 1.48058 40.2701 1.125 39.375 1.125ZM40.5 54C40.5 54.2984 40.3815 54.5845 40.1704 54.7955C39.9595 55.0065 39.6733 55.1251 39.375 55.1251H7.875C7.57663 55.1251 7.29048 55.0065 7.0795 54.7955C6.86852 54.5845 6.75 54.2984 6.75 54V4.5C6.75 4.20163 6.86852 3.91548 7.0795 3.7045C7.29048 3.49352 7.57663 3.375 7.875 3.375H39.375C39.6733 3.375 39.9595 3.49352 40.1704 3.7045C40.3815 3.91548 40.5 4.20163 40.5 4.5V54Z" fill="#0F062B"/>
<path d="M16.8749 24.75V18C16.8749 17.7016 16.7565 17.4155 16.5455 17.2045C16.3345 16.9935 16.0484 16.8749 15.75 16.8749H11.25C10.9516 16.8749 10.6655 16.9935 10.4545 17.2045C10.2435 17.4155 10.125 17.7016 10.125 18V24.75C10.125 25.0484 10.2435 25.3345 10.4545 25.5455C10.6655 25.7564 10.9516 25.8749 11.25 25.8749H15.75C16.0484 25.8749 16.3345 25.7564 16.5455 25.5455C16.7565 25.3345 16.8749 25.0484 16.8749 24.75ZM14.6251 23.625H12.3749V19.125H14.6251V23.625Z" fill="#0F062B"/>
<path d="M21.3749 25.8749H25.8749C26.1733 25.8749 26.4595 25.7564 26.6704 25.5455C26.8815 25.3345 27 25.0484 27 24.75V13.5C27 13.2016 26.8815 12.9155 26.6704 12.7045C26.4595 12.4935 26.1733 12.3749 25.8749 12.3749H21.3749C21.0767 12.3749 20.7905 12.4935 20.5796 12.7045C20.3685 12.9155 20.25 13.2016 20.25 13.5V24.75C20.25 25.0484 20.3685 25.3345 20.5796 25.5455C20.7905 25.7564 21.0767 25.8749 21.3749 25.8749ZM22.5 14.625H24.75V23.625H22.5V14.625Z" fill="#0F062B"/>
<path d="M36.0001 7.875H31.5001C31.2017 7.875 30.9155 7.99352 30.7046 8.2045C30.4936 8.41548 30.375 8.70163 30.375 9V24.75C30.375 25.0484 30.4936 25.3345 30.7046 25.5455C30.9155 25.7565 31.2017 25.875 31.5001 25.875H36.0001C36.2984 25.875 36.5846 25.7565 36.7955 25.5455C37.0065 25.3345 37.1251 25.0484 37.1251 24.75V9C37.1251 8.70163 37.0065 8.41548 36.7955 8.2045C36.5846 7.99352 36.2984 7.875 36.0001 7.875ZM34.875 23.6251H32.6251V10.125H34.875V23.6251Z" fill="#0F062B"/>
<path d="M32.6251 32.6251H14.6251C14.3267 32.6251 14.0405 32.7436 13.8296 32.9545C13.6185 33.1655 13.5 33.4516 13.5 33.75C13.5 34.0484 13.6185 34.3345 13.8296 34.5455C14.0405 34.7565 14.3267 34.875 14.6251 34.875H32.6251C32.9233 34.875 33.2095 34.7565 33.4204 34.5455C33.6315 34.3345 33.75 34.0484 33.75 33.75C33.75 33.4516 33.6315 33.1655 33.4204 32.9545C33.2095 32.7436 32.9233 32.6251 32.6251 32.6251Z" fill="#0F062B"/>
<path d="M32.6251 39.3749H14.6251C14.3267 39.3749 14.0405 39.4935 13.8296 39.7045C13.6185 39.9155 13.5 40.2016 13.5 40.5C13.5 40.7984 13.6185 41.0845 13.8296 41.2955C14.0405 41.5064 14.3267 41.625 14.6251 41.625H32.6251C32.9233 41.625 33.2095 41.5064 33.4204 41.2955C33.6315 41.0845 33.75 40.7984 33.75 40.5C33.75 40.2016 33.6315 39.9155 33.4204 39.7045C33.2095 39.4935 32.9233 39.3749 32.6251 39.3749Z" fill="#0F062B"/>
<path d="M32.6251 46.1251H14.6251C14.3267 46.1251 14.0405 46.2436 13.8296 46.4545C13.6185 46.6655 13.5 46.9516 13.5 47.25C13.5 47.5484 13.6185 47.8345 13.8296 48.0455C14.0405 48.2565 14.3267 48.375 14.6251 48.375H32.6251C32.9233 48.375 33.2095 48.2565 33.4204 48.0455C33.6315 47.8345 33.75 47.5484 33.75 47.25C33.75 46.9516 33.6315 46.6655 33.4204 46.4545C33.2095 46.2436 32.9233 46.1251 32.6251 46.1251Z" fill="#0F062B"/>
</svg>
