<svg width="189" height="112" viewBox="0 0 189 112" fill="none" xmlns="http://www.w3.org/2000/svg">
<rect x="0.0639648" width="188.936" height="112" rx="4" fill="white" fill-opacity="0.2"/>
<path d="M109.959 25.7881C109.916 25.7106 109.866 25.6362 109.832 25.555C109.602 25.012 109.244 24.7361 108.609 24.8286C107.788 24.9485 107.2 24.6227 106.814 23.8489C106.56 23.3408 106.176 22.8883 105.435 23.1531C105.725 22.6201 106.206 22.4978 106.725 22.371C107.476 22.1875 108.081 22.4907 108.693 22.8234C108.95 22.9628 109.059 23.2387 109.101 23.4835C109.27 24.4799 110.059 25.005 110.702 25.7257C110.845 25.2217 110.998 24.8205 110.677 24.3409C110.421 23.9569 110.454 23.4585 110.59 22.9565C110.598 22.9148 110.596 22.9163 110.596 22.9163C110.775 22.8754 110.832 22.7192 110.919 22.5864C111.351 21.9253 112.056 21.832 112.75 21.7388C112.906 21.7178 113.103 21.7502 113.22 21.9806C112.614 22.1383 112.507 22.6176 112.516 23.1282C112.527 23.8107 112.253 24.2825 111.619 24.5414C111.358 24.6474 111.265 24.8429 111.249 25.1243C111.22 25.6367 111.14 26.1463 111.17 26.6619C111.183 26.8695 111.166 27.0861 111.346 27.281C111.591 27.1693 111.808 27.0465 111.86 26.7423C111.942 26.2647 112.23 25.998 112.71 25.9348C113.221 25.8676 113.576 26.1041 113.987 26.587C113.243 26.4907 112.911 27.2148 112.229 27.0717C111.971 27.0177 111.291 27.9356 111.325 28.2343C111.419 29.0614 111.637 29.8538 112.072 30.5724C112.293 30.4921 112.344 30.332 112.411 30.1939C112.825 29.3472 113.313 28.5466 113.882 27.7955C113.977 27.6707 114.086 27.5561 114.049 27.369C113.812 26.1792 114.17 25.3423 115.302 24.9493C115.947 24.7257 116.712 24.6662 117.391 25.0367C117.527 25.1104 117.681 25.186 117.663 25.387C116.868 25.4198 116.449 25.8735 116.137 27.0403C116.36 27.152 116.571 27.221 116.85 27.2053C117.798 27.1517 118.279 27.889 118.775 28.51C119.017 28.8119 119.128 29.0714 119.613 29.0126C119.976 28.9686 120.483 28.9262 120.646 29.4981C120.672 29.5918 120.88 29.6337 121.004 29.7004C121.728 30.0922 122.156 30.8048 122.026 31.5025C121.441 30.5923 120.707 30.9291 120.059 31.2772C119.139 31.7705 118.323 31.754 117.529 31.0691C117.243 30.8229 116.948 30.8213 116.596 30.9697C116.047 31.2013 115.478 31.3848 114.927 31.7515C115.336 31.9832 115.674 32.1698 116.11 32.1484C116.58 32.1252 117.016 32.3028 117.425 32.5219C117.826 32.7366 118.258 33.7011 118.206 34.1572C118.175 34.4198 118.202 34.6883 118.185 34.953C118.158 35.3706 118.019 35.7309 117.55 36.0209C117.75 35.2021 117.261 34.8636 116.708 34.6472C115.93 34.3428 115.556 33.8172 115.573 32.9933C115.579 32.6628 115.485 32.404 115.113 32.3207C114.733 32.2359 114.384 32.0966 114.056 32.4981C113.413 33.2858 113.135 34.2113 112.985 35.1794C112.742 36.7491 112.885 38.3256 112.973 39.8997C112.996 40.2973 113.246 40.3382 113.558 40.3375C114.698 40.3349 115.814 40.535 116.926 40.7576C117.292 40.8309 117.649 40.9464 117.973 41.1329C118.412 41.3856 118.424 41.7174 117.993 41.9859C117.489 42.3006 116.909 42.4208 116.332 42.511C113.299 42.9851 110.264 42.9922 107.229 42.5178C106.737 42.4409 106.258 42.3133 105.797 42.1267C105.55 42.0265 105.281 41.9054 105.265 41.5946C105.248 41.2691 105.528 41.1604 105.77 41.0503C106.639 40.6548 107.578 40.5621 108.508 40.4491C109.14 40.3723 109.779 40.3582 110.416 40.323C110.635 40.3109 110.846 40.3195 110.894 40.026C111.27 37.7571 111.394 35.513 110.235 33.3987C110.1 33.1515 109.932 32.9189 109.756 32.6973C109.125 31.8999 108.274 32.0121 107.929 32.954C107.783 33.3523 107.448 33.4485 107.131 33.5767C106.74 33.7345 106.379 33.9012 106.332 34.3786C106.264 34.3708 106.215 34.3796 106.201 34.3614C105.666 33.6761 106.093 31.9353 107.203 31.8605C107.416 31.8461 107.619 31.8205 107.825 31.9187C108.117 32.0571 108.404 32.0285 108.672 31.8345C108.206 31.2489 107.759 31.1261 107.187 31.504C106.594 31.8954 106.05 31.9688 105.415 31.5823C104.992 31.3248 104.492 31.1311 104.026 31.7754C103.952 30.7821 104.682 30.4577 105.177 30.1005C105.619 29.7812 106.278 29.7047 106.831 30.0681C107.143 30.2736 107.594 30.3846 107.5 30.9391C107.854 30.9435 108.153 31.1148 108.55 31.2096C108.679 31.26 108.736 31.2928 108.794 31.3257C109.694 31.7902 110.464 32.4475 111.3 33.007C111.322 33.0216 111.367 33.0014 111.401 32.9969C111.736 32.1359 111.377 31.0119 110.623 30.5522C109.555 29.9005 108.609 29.1095 107.868 28.0974C107.478 28.2795 105.695 28.2108 105.406 27.9537C105.182 27.7545 105.038 27.4638 104.862 27.2112C104.731 27.0222 104.619 26.8188 104.476 26.6395C104.088 26.1539 103.676 25.7114 102.937 26.0857C103.204 25.462 103.738 25.264 104.303 25.1535C104.737 25.0688 105.264 24.9503 105.612 25.0505C106.458 25.2937 107.378 25.5878 107.66 26.6348C107.773 27.0571 107.929 27.468 108.116 27.8858C108.079 27.3514 108.118 26.8038 108.488 26.4398C108.85 26.0843 109.254 25.6723 109.899 25.8154C109.678 26.0798 109.459 26.3442 109.58 26.6863C109.837 27.4086 109.621 27.9556 109.052 28.4127C108.99 28.4623 108.958 28.5489 108.902 28.6338C109.441 29.1028 109.984 29.4935 110.729 29.6738C110.612 28.9054 110.477 28.2195 110.562 27.5321C110.648 26.8368 110.385 26.2914 109.959 25.7881ZM117.378 29.0056C116.531 29.6272 115.74 29.3303 114.901 28.8074C115.617 29.4186 115.163 30.2156 115.363 30.9184C116.055 30.7049 116.707 30.5036 117.362 30.3015C117.305 30.1258 117.125 30.2405 117.093 30.0599C117.439 29.5779 118.012 29.3172 118.536 28.9059C118.102 28.7061 117.778 28.8416 117.378 29.0056ZM113.21 32.0416C113.649 31.6772 114.154 31.4258 114.674 31.2062C114.936 31.0953 115.083 30.9406 115.012 30.6419C114.37 30.3377 114.317 30.2276 114.328 29.1788C114.257 29.2004 114.189 29.21 114.132 29.24C113.529 29.557 112.725 31.3025 112.858 31.9816C112.903 32.2133 113.015 32.17 113.21 32.0416ZM114.277 28.6103C114.973 28.567 114.849 27.7457 115.356 27.5227C114.446 27.5745 114.279 27.7033 114.028 28.4452C113.949 28.6775 114.031 28.6888 114.277 28.6103Z" fill="white"/>
<path d="M95.6456 46.6102C94.521 46.5155 93.4414 46.4421 92.4018 46.1256C91.9924 46.0009 91.4068 45.9396 91.4102 45.4064C91.4136 44.8755 92.0021 44.8061 92.4106 44.6924C93.7833 44.3101 95.1931 44.1831 96.6142 44.1548C97.4649 44.1378 97.473 44.1232 97.4726 43.29C97.4724 42.8292 97.4759 42.3684 97.4721 41.9077C97.4655 41.1036 97.0878 40.7062 96.2887 40.5899C94.9624 40.3969 93.9504 39.7001 93.2455 38.5724C92.5046 37.3871 92.1872 36.0706 92.1201 34.6861C92.1176 34.6339 92.1252 34.5791 92.1395 34.5287C92.1535 34.4794 92.1821 34.4342 92.2352 34.322C93.7077 34.6418 95.0411 35.2335 96.1293 36.313C97.2538 37.4286 97.6801 38.8152 97.6201 40.4486C97.9001 39.8949 97.8409 38.4053 97.5769 37.8911C96.6114 36.01 96.709 34.1768 97.8436 32.3972C97.945 32.2381 98.0294 32.0516 98.3157 31.9871C99.5873 34.0878 99.4077 36.1888 98.3288 38.3255C98.8622 37.7317 99.5072 37.2504 99.6467 36.4098C100.002 34.2701 101.167 32.7886 103.228 32.0491C103.751 31.8615 103.867 31.9699 103.755 32.5293C103.413 34.2348 102.546 35.6237 101.019 36.4538C100.18 36.9094 99.6028 37.5386 99.0714 38.2701C98.8841 38.5279 98.7032 38.7927 98.4924 39.0304C98.2967 39.2511 98.2295 39.4807 98.3121 39.7606C98.3481 39.7495 98.3988 39.7487 98.4074 39.7292C99.2184 37.8955 100.769 37.1738 102.631 36.9611C103.404 36.8727 104.187 36.8903 104.962 37.0294C105.207 37.0734 105.403 37.1536 105.253 37.4397C104.243 39.3731 102.939 40.9735 100.642 41.4144C100.186 41.5018 99.7232 41.4545 99.2629 41.4498C98.6328 41.4434 98.4003 41.6735 98.3963 42.3027C98.3938 42.6926 98.4185 43.0844 98.3882 43.472C98.3495 43.9681 98.5207 44.1704 99.0445 44.1648C100.376 44.1504 101.695 44.3046 102.996 44.5918C103.361 44.6723 103.722 44.7705 104.047 44.9565C104.538 45.2379 104.538 45.5949 104.041 45.861C103.471 46.1659 102.841 46.2998 102.212 46.3913C100.049 46.7058 97.8741 46.7571 95.6456 46.6102Z" fill="white"/>
<path d="M118.364 72.3622C119.564 72.3621 120.711 72.3621 121.836 72.3621C121.936 72.0807 121.802 71.9174 121.731 71.7429C120.83 69.5273 119.932 67.3106 119.02 65.0995C118.847 64.6806 118.835 64.2892 118.999 63.8671C119.45 62.7118 119.88 61.5486 120.324 60.3907C120.422 60.1334 120.475 59.8037 120.848 59.8112C121.184 59.8178 121.252 60.1238 121.351 60.3608C122.672 63.533 123.987 66.7077 125.304 69.8816C126.118 71.8447 126.931 73.8086 127.753 75.7689C127.862 76.0288 128.02 76.2681 128.151 76.5189C128.414 77.0195 128.773 77.3723 129.383 77.3935C129.574 77.4001 129.796 77.4406 129.8 77.7061C129.803 78.0078 129.563 78.0305 129.35 78.0347C128.588 78.0498 127.825 78.0559 127.063 78.0566C125.663 78.0579 124.262 78.0549 122.862 78.0488C122.635 78.0479 122.369 78.0727 122.327 77.7511C122.286 77.4401 122.559 77.4313 122.749 77.3794C123.29 77.2321 123.425 76.8078 123.389 76.3493C123.3 75.212 122.715 74.2345 122.292 73.2061C122.213 73.0116 122.009 73.0144 121.831 73.0139C120.094 73.0086 118.356 73.0081 116.619 72.9983C116.391 72.997 116.235 73.0664 116.187 73.2946C116.007 74.1441 115.821 74.9903 116.098 75.8607C116.371 76.719 116.912 77.2498 117.822 77.372C118.015 77.3979 118.207 77.4331 118.401 77.4538C118.581 77.473 118.708 77.5335 118.701 77.743C118.695 77.9534 118.545 78.0036 118.38 78.0255C118.257 78.0417 118.133 78.0449 118.009 78.0452C116.289 78.0491 114.57 78.0544 112.85 78.0506C112.618 78.0501 112.308 78.1257 112.267 77.7597C112.231 77.4404 112.505 77.4147 112.723 77.3491C113.068 77.2455 113.273 76.9812 113.477 76.7081C114.303 75.6034 114.81 74.3302 115.373 73.0899C115.621 72.5413 115.951 72.3047 116.556 72.353C117.138 72.3994 117.725 72.3625 118.364 72.3622Z" fill="white"/>
<path d="M137.118 62.4273C137.116 66.5867 137.113 70.6975 137.116 74.8084C137.117 76.209 137.62 76.9207 138.921 77.3958C139.097 77.4599 139.259 77.5264 139.232 77.7574C139.207 77.9648 139.04 78.0005 138.881 78.0131C138.599 78.0356 138.315 78.0443 138.032 78.0449C135.994 78.0495 133.957 78.0513 131.919 78.0516C131.725 78.0517 131.529 78.0454 131.336 78.024C131.163 78.0048 131.034 77.9144 131.026 77.7208C131.019 77.5494 131.129 77.4571 131.278 77.4254C132.917 77.076 133.213 75.8503 133.215 74.4439C133.221 71.2012 133.222 67.9586 133.214 64.716C133.211 63.902 133.178 63.0875 133.138 62.2743C133.09 61.3107 132.561 60.7014 131.62 60.4856C131.482 60.4539 131.343 60.4225 131.209 60.3781C131.1 60.3423 131.034 60.2581 131.03 60.1399C131.026 60.0004 131.092 59.8919 131.225 59.8578C131.36 59.8231 131.504 59.8061 131.644 59.806C133.965 59.8032 136.286 59.8043 138.607 59.805C138.696 59.8051 138.785 59.8065 138.873 59.8142C139.06 59.8305 139.227 59.8726 139.236 60.1115C139.245 60.3183 139.112 60.3852 138.943 60.4212C138.891 60.4322 138.84 60.4494 138.789 60.4629C137.691 60.7514 137.272 61.2321 137.118 62.4273Z" fill="white"/>
<path d="M56.0569 64.0852C56.0571 67.4702 56.0609 70.802 56.0537 74.1339C56.0526 74.6327 56.0808 75.1281 56.1722 75.6147C56.3357 76.4858 56.8348 77.0833 57.6955 77.3553C57.9199 77.4262 58.2425 77.4161 58.1834 77.7801C58.1309 78.1036 57.8305 78.0338 57.6213 78.0348C55.282 78.0465 52.9427 78.0483 50.6033 78.0443C50.3893 78.0439 50.1025 78.1069 50.0519 77.7765C50.0011 77.4448 50.2843 77.4305 50.4962 77.3641C51.5168 77.0442 52.1416 76.2522 52.1475 75.0837C52.1686 70.8835 52.166 66.6832 52.148 62.483C52.1432 61.3573 51.5885 60.7343 50.4902 60.4543C50.2973 60.4052 50.0287 60.4186 50.0493 60.1049C50.0721 59.7579 50.3538 59.8088 50.5704 59.8084C52.9451 59.8038 55.3199 59.8053 57.6947 59.8104C57.8979 59.8108 58.1529 59.7685 58.1961 60.0708C58.2401 60.3784 57.9915 60.3894 57.7868 60.443C56.5976 60.7539 56.1105 61.3572 56.0649 62.5966C56.0473 63.0745 56.0587 63.5535 56.0569 64.0852Z" fill="white"/>
<path d="M95.6097 75.2728C95.795 75.1045 95.9593 74.9679 96.1009 74.8108C96.2579 74.6366 96.4126 74.5211 96.6491 74.6669C96.8944 74.8182 96.8359 75.0273 96.7488 75.2275C96.2114 76.4631 95.2859 77.2999 94.0488 77.7962C90.2339 79.3266 86.3947 77.1556 85.7762 73.0846C85.3789 70.4703 86.1611 68.2874 88.3744 66.7294C89.0789 66.2335 89.9031 65.996 90.7546 65.8756C90.907 65.854 91.0871 65.8339 91.1723 66.0199C91.2626 66.217 91.1655 66.3652 91.0134 66.4783C89.7799 67.395 89.4476 68.7514 89.2582 70.1562C89.1075 71.2745 89.14 71.2793 90.2774 71.2801C91.3408 71.2809 92.4043 71.2763 93.4676 71.2836C93.772 71.2857 93.9938 71.2324 93.9848 70.8574C93.9574 69.714 93.7991 68.5991 93.2872 67.5594C93.0795 67.1377 92.7717 66.8003 92.39 66.5264C92.2061 66.3944 92.0703 66.2198 92.1739 65.9834C92.2667 65.7716 92.4732 65.8448 92.6439 65.8518C95.1635 65.9553 96.9878 67.7044 97.2189 70.2347C97.2511 70.5866 97.2895 70.938 97.3317 71.2889C97.3842 71.7252 97.1974 71.8948 96.7588 71.8886C95.6247 71.8724 94.4903 71.8841 93.356 71.8842C92.2039 71.8842 91.0519 71.8828 89.8999 71.8836C89.2106 71.8841 89.1564 71.9488 89.2774 72.61C89.8112 75.5273 92.6863 76.8844 95.3018 75.4535C95.395 75.4024 95.4865 75.3481 95.6097 75.2728Z" fill="white"/>
<path d="M84.9722 47.2436C86.6744 47.2538 88.312 47.3854 89.9027 47.8652C90.2483 47.9695 90.7089 48.045 90.7051 48.5085C90.7015 48.9634 90.2446 49.0469 89.9008 49.162C88.8688 49.5076 87.7926 49.6349 86.7156 49.7039C84.1829 49.8661 81.6534 49.8649 79.1541 49.3319C78.793 49.2549 78.4396 49.1284 78.0944 48.9943C77.8955 48.9171 77.7234 48.7684 77.7037 48.5296C77.6823 48.2703 77.885 48.1542 78.0705 48.0566C78.773 47.6868 79.5479 47.5713 80.3198 47.4701C81.1262 47.3644 81.9338 47.2382 82.7506 47.2581C83.1299 47.2674 83.2598 47.0962 83.2268 46.7428C83.1755 46.1938 83.3857 45.6009 82.9288 45.121C82.8014 44.987 82.6826 44.8837 82.4872 44.8656C80.6039 44.6914 79.6124 43.4945 79.0718 41.8245C78.8403 41.1093 78.656 40.3713 78.7519 39.5378C80.0879 39.7916 81.2178 40.3336 82.1478 41.249C83.0913 42.1778 83.4063 43.3694 83.4653 44.6598C83.4738 43.8994 83.649 43.1718 83.2593 42.4098C82.5038 40.9321 82.6058 39.4327 83.4924 38.0093C83.5667 37.8902 83.6603 37.7819 83.7539 37.6767C83.7848 37.642 83.8441 37.6325 83.9459 37.5864C84.3791 38.1688 84.5813 38.8355 84.6607 39.5381C84.7617 40.432 84.7025 41.3287 84.2699 42.1278C83.9107 42.7913 83.8879 43.468 83.9433 44.275C84.4444 43.174 85.1911 42.4308 86.263 42.0642C87.303 41.7085 88.3725 41.6281 89.46 41.8127C89.7121 41.8555 89.9542 41.906 89.7787 42.2392C88.9337 43.8427 87.8533 45.1737 85.9365 45.534C85.5655 45.6038 85.1977 45.6059 84.8259 45.5802C84.2569 45.541 84.0449 45.7306 84.0343 46.29C84.034 46.3077 84.0341 46.3255 84.0339 46.3432C84.0257 47.238 84.0257 47.238 84.9722 47.2436Z" fill="white"/>
<path d="M84.9934 85.7329C85.0962 85.438 85.0962 85.438 85.047 85.0943C84.501 85.1836 84.1192 85.5208 83.8205 85.9294C83.3609 86.5582 82.9526 87.2244 82.516 87.8703C82.4033 88.0371 82.3012 88.3164 82.0429 88.1755C81.7797 88.032 81.9713 87.8009 82.0507 87.6167C82.289 87.0635 82.5381 86.5148 82.7774 85.962C82.8751 85.7364 82.9836 85.507 82.8389 85.2292C82.5353 85.2367 82.3909 85.4826 82.22 85.6666C81.6048 86.3287 81.0012 87.0015 80.393 87.6701C80.3692 87.6963 80.3444 87.7219 80.318 87.7455C79.9931 88.036 79.6585 88.4935 79.192 88.1977C78.7683 87.9291 78.9804 87.4327 79.0861 87.0236C79.1034 86.9565 79.1262 86.8909 79.1896 86.6835C78.8407 87.0192 78.5928 87.2715 78.3304 87.5077C77.4443 88.3049 76.3008 88.7804 75.158 87.9254C74.9628 87.7794 74.8127 87.8312 74.6304 87.9415C73.7925 88.4485 72.9432 88.5755 72.0934 87.9677C71.8904 87.8225 71.7401 87.9186 71.5648 88.0255C70.8211 88.4789 70.5794 88.421 70.149 87.6872C69.7705 87.8875 69.4831 88.2572 69.0018 88.281C68.4911 88.3063 68.21 88.0533 68.0288 87.5495C67.7743 87.7283 67.551 87.8892 67.3236 88.044C67.0652 88.2198 66.7947 88.3656 66.4944 88.1411C66.1845 87.9094 66.1992 87.6083 66.33 87.2821C66.541 86.7559 66.7455 86.227 66.946 85.6968C67.0126 85.5206 67.1174 85.3418 66.9979 85.1232C66.6334 85.0748 66.4021 85.3219 66.1773 85.5213C65.5216 86.1026 64.9679 86.7671 64.6535 87.6025C64.6349 87.6521 64.6155 87.703 64.5869 87.7471C64.4509 87.9571 64.3749 88.3531 64.0502 88.1994C63.6991 88.0332 63.9811 87.7229 64.0932 87.5206C64.4172 86.9358 64.5691 86.3022 64.6937 85.6584C64.7303 85.4688 64.7503 85.2408 64.5514 85.1282C64.3651 85.0229 64.2108 85.1861 64.083 85.2956C63.3539 85.9201 62.9253 86.7629 62.443 87.5684C62.3014 87.8049 62.2302 88.3117 61.8966 88.1493C61.5022 87.9574 61.8914 87.5915 62.004 87.336C62.2258 86.8328 62.4484 86.332 62.6148 85.8074C62.6728 85.6247 62.7495 85.4432 62.6271 85.2155C62.2581 85.3255 62.038 85.6017 61.8164 85.869C61.2845 86.5106 60.7512 87.1504 60.1362 87.7162C60.1101 87.7402 60.0859 87.7662 60.0601 87.7906C59.5053 88.3157 58.899 88.5346 58.5487 88.2697C57.9929 87.8495 58.2501 87.2812 58.3474 86.7522C58.3566 86.7025 58.375 86.6546 58.4303 86.4634C58.0613 86.9418 57.7054 87.2407 57.3438 87.5318C57.1516 87.6865 56.9498 87.8363 56.733 87.9524C55.2988 88.7203 54.2769 88.0991 54.2827 86.4705C54.2924 83.7812 56.9634 80.8927 59.6498 80.667C59.7203 80.6611 59.7914 80.6596 59.8623 80.6597C61.1263 80.6609 61.3096 80.9394 60.8222 82.0855C60.1913 83.5691 59.5662 85.0552 58.9484 86.5442C58.8199 86.8539 58.712 87.177 58.7152 87.5206C58.7181 87.8372 58.8779 87.9362 59.1662 87.8158C59.449 87.6977 59.687 87.5098 59.8911 87.2861C60.4407 86.6839 60.9806 86.073 61.5279 85.4688C61.6824 85.2983 61.8368 85.124 62.0126 84.9771C62.6079 84.4796 63.0019 84.5923 63.2583 85.3382C63.7658 85.0823 64.0992 84.3516 64.8051 84.6616C65.25 84.857 65.1717 85.3409 65.2719 85.8354C65.411 85.6658 65.5416 85.4884 65.6911 85.3287C65.8844 85.1221 66.0786 84.9114 66.3416 84.788C66.6653 84.636 67.003 84.4568 67.3395 84.719C67.6885 84.991 67.5751 85.3564 67.4542 85.6949C67.2816 86.1783 67.086 86.6534 66.9064 87.1343C66.8411 87.3089 66.7189 87.4838 66.8725 87.7083C67.3098 87.5602 67.5893 87.2194 67.8823 86.8952C68.4385 86.2795 68.8504 85.5322 69.5625 85.0585C70.0563 84.7301 70.5704 84.4596 71.1866 84.4813C71.7753 84.502 71.8916 84.6815 71.6459 85.2025C71.3514 85.8271 70.9946 86.4235 70.7948 87.0904C70.7296 87.308 70.6024 87.5731 70.8364 87.7234C71.0826 87.8816 71.2559 87.6307 71.4158 87.4763C72.2202 86.6991 72.9296 85.8352 73.6642 84.9944C73.7692 84.8743 73.8718 84.7516 73.9839 84.6383C74.0887 84.5323 74.2165 84.4532 74.3587 84.5631C74.4767 84.6544 74.4416 84.781 74.3955 84.9032C74.0781 85.7443 74.3221 86.6039 74.2415 87.5067C74.7883 87.3429 75.0845 86.9855 75.3825 86.647C75.9211 86.0351 76.435 85.4015 76.9663 84.783C77.0872 84.6423 77.2127 84.4131 77.436 84.5346C77.6768 84.6657 77.493 84.8757 77.4512 85.0529C77.3654 85.4166 77.3027 85.778 77.3916 86.1558C77.4933 86.5876 77.3516 87.0252 77.3366 87.5111C77.7299 87.4278 77.9632 87.2077 78.1716 86.9772C78.7776 86.3068 79.3659 85.6204 79.9638 84.9427C80.087 84.8031 80.2073 84.5638 80.4279 84.7193C80.6273 84.8598 80.4913 85.0773 80.4137 85.2509C80.1535 85.8332 79.8784 86.409 79.6252 86.9944C79.537 87.1985 79.4055 87.4051 79.4877 87.6594C79.7328 87.7482 79.8466 87.5429 79.9627 87.4168C80.5026 86.8305 81.0218 86.2251 81.5552 85.6327C81.7328 85.4355 81.9238 85.2488 82.1212 85.0712C82.3901 84.8293 82.6893 84.6067 83.0734 84.7308C83.4558 84.8543 83.4101 85.2215 83.4162 85.609C83.8332 85.2955 84.1003 84.8961 84.5387 84.7346C84.8195 84.6312 85.11 84.4787 85.3918 84.7133C85.6837 84.9563 85.632 85.2738 85.5509 85.5956C85.4156 86.1319 85.1577 86.62 84.9635 87.133C84.8968 87.3091 84.7838 87.4779 84.845 87.7272C85.1742 87.706 85.3858 87.4907 85.5973 87.2922C86.091 86.8288 86.457 86.257 86.891 85.7427C87.4968 85.0246 88.232 84.5252 89.2004 84.4848C89.8406 84.4581 89.967 84.6573 89.7194 85.2477C89.4742 85.8324 89.2148 86.411 88.9617 86.9923C89.0116 87.0382 89.0616 87.0841 89.1115 87.1301C89.2791 86.9145 89.4322 86.685 89.6193 86.488C89.7527 86.3477 89.9194 86.0891 90.1383 86.3188C90.3152 86.5046 90.1075 86.6752 89.976 86.8118C89.6319 87.1693 89.2936 87.5355 88.8773 87.8126C88.5873 88.0056 88.3894 88.2577 88.2481 88.5787C87.927 89.3083 87.5812 90.0271 87.2434 90.7494C87.1909 90.8616 87.1312 90.9708 87.0688 91.0779C86.7091 91.695 86.3443 91.929 85.9647 91.7892C85.5569 91.6391 85.3998 91.1092 85.5856 90.4362C85.8337 89.5377 86.4747 88.928 87.2363 88.3091C86.637 88.3591 86.2916 88.1159 86.1166 87.5778C85.8283 87.7699 85.5774 87.9524 85.3117 88.1096C85.0586 88.2594 84.7833 88.3482 84.5186 88.1338C84.2568 87.9217 84.2666 87.6466 84.3751 87.3596C84.5757 86.8295 84.7767 86.2995 84.9934 85.7329ZM59.3705 84.1859C59.7796 83.2368 60.238 82.3068 60.5483 81.3182C60.1982 81.1241 59.8858 81.137 59.5662 81.1828C57.1706 81.5254 54.8957 83.9466 54.6979 86.3988C54.6587 86.8851 54.7779 87.3763 55.2238 87.662C55.6484 87.934 56.0736 87.7681 56.4707 87.5321C57.7829 86.7525 58.6146 85.5536 59.3705 84.1859ZM89.0806 84.9797C87.9123 85.1852 87.1805 85.9167 86.7346 86.9659C86.6352 87.1997 86.5521 87.5186 86.8018 87.704C87.0713 87.9041 87.3361 87.7065 87.5749 87.5534C87.6337 87.5157 87.6865 87.4667 87.7363 87.417C88.3693 86.785 88.8212 86.033 89.1844 85.2228C89.2213 85.1405 89.2446 85.055 89.0806 84.9797ZM68.6353 86.9908C68.593 87.2483 68.482 87.5303 68.7437 87.7251C68.9146 87.8524 69.1308 87.7978 69.2955 87.6874C70.2485 87.0485 70.6879 86.0746 71.1202 84.9467C69.8661 85.2091 69.122 85.8827 68.6353 86.9908ZM72.4891 87.0762C72.2496 87.3065 72.2126 87.5068 72.5452 87.6974C73.0314 87.9761 73.4857 87.9404 73.6433 87.5492C73.8692 86.9882 73.7639 86.4072 73.7502 85.6788C73.2659 86.2155 72.9019 86.619 72.4891 87.0762ZM76.5817 86.011C76.1824 86.4744 75.729 86.8948 75.3974 87.4626C75.7071 87.7536 76.0482 87.9503 76.4489 87.8308C76.8345 87.7158 76.8593 87.3351 76.8675 86.9947C76.8755 86.66 76.8714 86.3236 76.8455 85.9901C76.8254 85.7305 76.7118 85.8731 76.5817 86.011ZM86.525 91.0161C86.8838 90.2943 87.2426 89.5724 87.6014 88.8506C86.7374 89.2839 86.1678 89.9144 86.0149 90.8534C85.9923 90.9921 85.9389 91.1487 86.0899 91.2403C86.2776 91.3542 86.3778 91.1981 86.525 91.0161Z" fill="white"/>
<path d="M112.906 87.9002C111.982 88.496 111.088 88.5739 110.206 87.9106C110.047 87.7917 109.926 87.8023 109.775 87.8996C109.672 87.9665 109.557 88.0178 109.444 88.0689C108.518 88.4879 108.044 88.2491 107.732 87.1826C107.208 87.3579 106.685 87.4676 106.344 86.7504C106.02 87.0637 105.73 87.3383 105.447 87.6204C105.206 87.8608 104.947 88.072 104.621 88.1872C104.065 88.3843 103.692 88.0741 103.808 87.4975C103.913 86.9728 104.15 86.4929 104.356 86.0034C104.45 85.78 104.593 85.571 104.578 85.204C104.076 85.6391 103.675 86.0674 103.296 86.5176C102.955 86.9242 102.661 87.3738 102.247 87.7151C102.057 87.8718 101.853 88.0188 101.638 88.1365C101.397 88.2679 101.128 88.3298 100.889 88.1278C100.653 87.9275 100.656 87.6615 100.753 87.3958C100.956 86.8474 101.174 86.305 101.373 85.7554C101.441 85.5655 101.59 85.3776 101.447 85.127C101.046 85.1084 100.775 85.3599 100.511 85.6121C99.8348 86.257 99.3772 87.0594 98.9008 87.8492C98.8005 88.0154 98.718 88.3194 98.4501 88.1733C98.2064 88.0404 98.3647 87.7965 98.4471 87.606C98.6861 87.0531 98.9293 86.5019 99.1719 85.9505C99.2721 85.7226 99.3459 85.494 99.23 85.2152C98.7268 85.3596 98.5155 85.7986 98.1872 86.1006C97.988 86.2839 97.8387 86.7763 97.5246 86.5252C97.1985 86.2646 97.6417 86.006 97.8 85.7951C98.0211 85.5005 98.301 85.2449 98.5808 85.0013C98.8387 84.7769 99.1403 84.5936 99.5022 84.7424C99.8536 84.887 99.7785 85.235 99.8216 85.5742C100.242 85.2739 100.524 84.8406 101.013 84.6943C101.291 84.6113 101.566 84.5008 101.811 84.7388C102.04 84.9613 102.028 85.2384 101.957 85.5316C101.821 86.0867 101.547 86.5878 101.358 87.1214C101.294 87.3005 101.18 87.4675 101.213 87.7221C101.545 87.7181 101.768 87.5234 101.962 87.3058C102.528 86.6713 103.079 86.0225 103.644 85.3868C103.808 85.2026 103.99 85.0324 104.181 84.8763C104.398 84.6986 104.65 84.6035 104.916 84.7719C105.2 84.9525 105.155 85.2356 105.067 85.4887C104.906 85.9572 104.71 86.4138 104.531 86.8764C104.431 87.135 104.337 87.3957 104.218 87.7153C104.63 87.7352 104.844 87.5205 105.057 87.3275C105.769 86.6819 106.399 85.964 106.925 85.1567C107.018 85.0136 107.106 84.7947 107.324 84.911C107.525 85.0184 107.436 85.2191 107.366 85.3832C107.226 85.7087 107.075 86.0292 106.942 86.3571C106.888 86.4904 106.873 86.6444 107 86.7509C107.129 86.8588 107.269 86.8031 107.397 86.7331C107.749 86.5409 108.015 86.2726 108.193 85.9052C108.48 85.3124 108.903 84.8507 109.53 84.5989C109.858 84.4673 110.156 84.4727 110.397 84.7638C110.645 85.0643 110.549 85.3557 110.359 85.642C110.133 85.9802 109.814 86.1944 109.445 86.3425C109.165 86.4547 108.87 86.5358 108.604 86.673C108.256 86.8523 108.241 87.1855 108.354 87.5026C108.473 87.8384 108.752 87.7937 109.023 87.6975C109.777 87.4297 110.266 86.8353 110.771 86.2649C111.217 85.7607 111.649 85.2435 112.089 84.7339C112.205 84.6004 112.326 84.428 112.529 84.5584C112.705 84.6717 112.602 84.8401 112.558 84.9909C112.324 85.8058 112.503 86.632 112.419 87.5644C113.553 86.9539 114.102 85.9928 114.683 85.1192C114.648 84.9486 114.568 84.9079 114.485 84.8768C114.357 84.829 114.262 84.756 114.287 84.6053C114.312 84.4511 114.453 84.3996 114.567 84.4133C115.127 84.4802 115.291 84.0935 115.453 83.6841C115.557 83.4205 115.677 83.1632 115.798 82.9065C115.867 82.7583 115.962 82.5962 116.155 82.6789C116.35 82.7622 116.282 82.9512 116.241 83.0999C116.13 83.5055 115.851 83.8547 115.821 84.299C116.065 84.4804 116.348 84.3398 116.595 84.4207C116.698 84.4544 116.808 84.4898 116.817 84.6161C116.829 84.7722 116.716 84.8267 116.586 84.8534C116.551 84.8604 116.515 84.8586 116.48 84.8656C116.135 84.9354 115.651 84.6698 115.466 85.1034C115.149 85.8461 114.783 86.5982 114.885 87.4481C114.919 87.7263 115.137 87.7162 115.334 87.6323C115.601 87.5184 115.794 87.3024 115.981 87.089C116.424 86.5819 116.857 86.066 117.299 85.5577C117.45 85.3842 117.602 85.2088 117.775 85.058C118.452 84.4665 118.813 84.5457 119.146 85.3459C120.236 84.2871 120.857 84.2044 121.103 85.6512C121.349 85.5966 121.458 85.3743 121.627 85.2307C121.815 85.0705 121.97 84.8682 122.205 84.7689C122.533 84.6306 122.878 84.4506 123.203 84.7316C123.526 85.0109 123.424 85.3841 123.31 85.7203C123.155 86.1725 122.955 86.6088 122.793 87.0586C122.731 87.2319 122.61 87.4073 122.688 87.6116C122.963 87.7247 123.106 87.5169 123.248 87.3889C123.696 86.9846 124.101 86.5433 124.371 85.9884C124.665 85.3846 125.083 84.886 125.72 84.6159C126.056 84.4734 126.379 84.4644 126.633 84.785C126.879 85.0961 126.752 85.3791 126.566 85.6619C126.205 86.2113 125.598 86.3469 125.046 86.5762C124.869 86.6502 124.648 86.6819 124.594 86.9039C124.532 87.1613 124.471 87.4396 124.692 87.6558C124.891 87.8494 125.128 87.7704 125.34 87.6769C125.99 87.3909 126.485 86.9114 126.92 86.3652C127.307 85.8788 127.71 85.4061 128.181 85.0009C128.441 84.7783 128.744 84.5868 129.102 84.7483C129.434 84.8984 129.386 85.2395 129.41 85.596C129.812 85.2813 130.102 84.8834 130.56 84.7186C130.83 84.6215 131.1 84.5011 131.366 84.7106C131.65 84.9348 131.629 85.2543 131.537 85.5412C131.37 86.0632 131.151 86.5684 130.961 87.0835C130.89 87.2761 130.761 87.4597 130.848 87.7832C132.077 87.1756 132.527 85.9482 133.295 85.0525C133.229 84.8826 133.135 84.8803 133.05 84.8622C132.938 84.8385 132.838 84.7861 132.838 84.6617C132.837 84.5093 132.967 84.4237 133.085 84.4337C133.722 84.4878 133.879 84.0278 134.052 83.5719C134.115 83.4067 134.191 83.2445 134.277 83.0905C134.381 82.906 134.409 82.5533 134.714 82.6772C135.026 82.8037 134.807 83.0678 134.73 83.2692C134.606 83.596 134.473 83.9197 134.348 84.232C134.648 84.5653 135.201 84.1798 135.379 84.6773C135.2 84.9595 134.922 84.8803 134.696 84.8585C134.221 84.8124 133.98 85.0177 133.843 85.4546C133.674 85.995 133.456 86.522 133.398 87.0897C133.378 87.2874 133.304 87.545 133.562 87.6526C133.784 87.7453 133.984 87.6178 134.14 87.4707C134.397 87.2283 134.636 86.9663 134.878 86.7083C134.987 86.5922 135.077 86.4582 135.19 86.3468C135.281 86.2575 135.406 86.1948 135.525 86.2841C135.676 86.3974 135.613 86.5381 135.525 86.6579C135.168 87.1451 134.793 87.6201 134.299 87.9759C134 88.1906 133.658 88.3073 133.299 88.1291C132.921 87.9413 132.887 87.579 132.905 87.2134C132.917 86.9696 132.955 86.727 132.99 86.3994C132.635 86.8134 132.331 87.1732 132.021 87.5278C131.81 87.7696 131.57 87.977 131.275 88.1173C131.026 88.2364 130.777 88.3214 130.523 88.1388C130.26 87.9487 130.296 87.6805 130.355 87.4141C130.486 86.8214 130.779 86.2881 130.98 85.7212C131.049 85.5284 131.185 85.3365 130.992 85.1037C130.657 85.1139 130.425 85.3419 130.189 85.5441C129.519 86.1196 129.072 86.8665 128.631 87.6169C128.568 87.7239 128.511 87.8343 128.441 87.9369C128.345 88.0797 128.252 88.2941 128.04 88.1839C127.804 88.0613 127.921 87.8478 127.999 87.6713C128.237 87.1369 128.485 86.6071 128.718 86.0708C128.83 85.8143 128.939 85.5498 128.82 85.2273C128.477 85.279 128.298 85.528 128.102 85.7452C127.615 86.2843 127.137 86.8311 126.648 87.3684C126.407 87.6329 126.113 87.8351 125.8 88.0035C124.933 88.47 124.463 88.3318 123.976 87.4675C123.684 87.5692 123.502 87.8239 123.257 87.9893C122.974 88.1813 122.67 88.3811 122.335 88.1324C122.022 87.9008 122.087 87.5639 122.199 87.2563C122.386 86.7402 122.601 86.2341 122.797 85.7209C122.869 85.5301 122.996 85.3333 122.795 85.0994C122.451 85.1316 122.2 85.3584 121.954 85.5792C121.339 86.1319 120.876 86.7978 120.524 87.5439C120.449 87.704 120.373 87.8646 120.285 88.018C120.203 88.16 120.095 88.305 119.907 88.2216C119.685 88.1231 119.735 87.9355 119.82 87.7689C120.144 87.1349 120.416 86.4826 120.528 85.7749C120.562 85.5548 120.662 85.2817 120.424 85.1394C120.17 84.9878 119.992 85.2365 119.839 85.3856C119.159 86.0494 118.695 86.8688 118.236 87.6898C118.176 87.7981 118.124 87.9118 118.059 88.017C117.981 88.1427 117.881 88.2598 117.715 88.1725C117.555 88.088 117.578 87.9309 117.634 87.7978C117.742 87.5362 117.88 87.2867 117.987 87.0244C118.216 86.4607 118.565 85.9314 118.545 85.2435C118.167 85.2659 117.984 85.5069 117.794 85.7268C117.332 86.264 116.879 86.8098 116.418 87.3476C116.279 87.5086 116.136 87.6703 115.973 87.804C115.609 88.1022 115.208 88.3943 114.725 88.1127C114.276 87.8508 114.289 87.38 114.336 86.9263C114.346 86.8225 114.371 86.7202 114.409 86.5053C113.884 87.0264 113.484 87.534 112.906 87.9002ZM110.852 87.7439C111.533 87.9402 111.794 87.8673 111.896 87.3708C112 86.8654 111.964 86.3462 111.915 85.7049C111.434 86.258 111.047 86.7136 110.647 87.157C110.405 87.4254 110.499 87.5861 110.852 87.7439ZM109.77 85.0634C109.248 85.1763 108.974 85.5373 108.75 86.0381C109.22 85.9846 109.539 85.7776 109.813 85.5087C109.928 85.3961 110.153 85.2326 109.77 85.0634ZM125.62 85.2083C125.364 85.4376 125.113 85.6699 124.958 86.0635C125.534 85.905 125.985 85.7078 126.229 85.2027C125.996 85.0045 125.838 85.0673 125.62 85.2083Z" fill="white"/>
<path d="M75.5394 48.1779C74.4978 49.2942 73.2719 49.8465 71.7609 49.7037C71.3224 49.6622 71.04 49.8473 71.0492 50.3364C71.0522 50.4959 71.0646 50.6571 71.047 50.8147C71.0067 51.1753 71.1665 51.3358 71.5199 51.3552C72.3153 51.3989 73.1119 51.4346 73.9046 51.5094C74.8389 51.5977 75.7712 51.7195 76.656 52.0606C76.937 52.1689 77.2838 52.2782 77.2864 52.6277C77.2891 53.0056 76.9255 53.1269 76.6286 53.2324C75.2591 53.719 73.8216 53.8081 72.3912 53.8808C70.3356 53.9852 68.2818 53.9223 66.2454 53.5822C65.6864 53.4888 65.1305 53.3684 64.6233 53.1001C64.4341 53 64.2483 52.8692 64.2593 52.6191C64.2701 52.3716 64.4623 52.2536 64.6575 52.1641C65.5403 51.7595 66.4915 51.6308 67.4409 51.5232C68.1437 51.4435 68.8536 51.4128 69.5612 51.3938C70.0312 51.3812 70.3175 51.2506 70.239 50.7108C70.2138 50.5372 70.2301 50.3567 70.2347 50.1796C70.2509 49.5611 69.9907 49.1449 69.3981 48.9107C68.1756 48.4277 67.3956 47.5376 67.0942 46.254C66.9222 45.5215 67.1059 45.3446 67.8411 45.4787C69.382 45.7598 70.2778 46.8182 70.3132 48.4041C70.3196 48.6909 70.2866 48.9977 70.7812 48.9711C71.1721 47.5585 72.019 46.5402 73.4871 46.1258C74.5927 45.8137 75.7001 45.7683 76.9058 46.0604C76.5521 46.8782 76.1294 47.5572 75.5394 48.1779Z" fill="white"/>
<path d="M109.554 76.4031C109.992 76.9859 110.531 77.3143 111.23 77.3812C111.446 77.402 111.746 77.3927 111.746 77.7145C111.745 78.0824 111.425 78.0388 111.191 78.04C109.454 78.0491 107.717 78.0504 105.98 78.0458C105.761 78.0452 105.487 78.1069 105.389 77.8158C105.296 77.5415 105.53 77.452 105.708 77.3399C105.914 77.2102 105.897 77.0189 105.847 76.8206C105.741 76.4007 105.517 76.0367 105.282 75.6829C103.541 73.0532 101.798 70.4246 100.044 67.8027C99.6463 67.2075 99.2102 66.6408 98.3822 66.6362C98.1995 66.6352 98.0956 66.5136 98.1054 66.3176C98.1165 66.0947 98.2769 66.0833 98.4433 66.072C100.214 65.9519 101.985 65.9799 103.757 66.025C103.959 66.0302 104.262 65.9694 104.321 66.2883C104.373 66.5726 104.115 66.6136 103.931 66.7107C103.594 66.8881 103.671 67.1799 103.756 67.4546C103.885 67.8673 104.161 68.1998 104.394 68.5545C106.105 71.1615 107.819 73.7669 109.554 76.4031Z" fill="white"/>
<path d="M68.0191 70.5782C68.0016 70.12 68.0524 69.7121 67.9537 69.3089C67.6736 68.1647 66.6473 67.572 65.5108 67.9135C65.2204 68.0007 64.9511 68.1512 64.7485 67.7501C64.5568 67.3704 64.8432 67.2313 65.0481 67.0617C66.2177 66.0936 67.5174 65.5512 69.0723 65.8594C70.2787 66.0985 71.0425 66.876 71.2592 68.0969C71.3895 68.8311 71.4298 69.5736 71.4386 70.3161C71.4606 72.1586 71.4539 74.0014 71.4824 75.8437C71.4919 76.4604 71.6317 77.0451 72.2402 77.386C72.4182 77.4857 72.4727 77.6524 72.4127 77.8423C72.352 78.0343 72.1766 78.0377 72.0176 78.0379C70.4936 78.0402 68.9697 78.0393 67.4458 78.0379C67.2817 78.0378 67.1201 78.0196 67.0539 77.8333C66.9944 77.6657 67.0157 77.494 67.1745 77.4102C68.0053 76.9721 67.978 76.155 68.0002 75.4147C68.048 73.8212 68.0176 72.2254 68.0191 70.5782Z" fill="white"/>
<path d="M64.9642 77.6412C64.9571 78.0015 64.7348 78.0405 64.4877 78.0405C63.0002 78.0407 61.5128 78.0403 60.0253 78.0382C59.8449 78.038 59.6661 78.0266 59.5872 77.8173C59.5211 77.642 59.5632 77.4854 59.7211 77.4039C60.537 76.9827 60.5207 76.1733 60.5377 75.4601C60.5883 73.3363 60.5641 71.2105 60.5527 69.0855C60.5493 68.4609 60.2843 67.959 59.7158 67.6458C59.4791 67.5154 59.237 67.3761 59.2985 67.0432C59.3581 66.7205 59.6519 66.7291 59.8803 66.6752C61.0332 66.4033 62.1918 66.1552 63.3426 65.8748C63.8028 65.7626 63.9353 65.914 63.9333 66.3678C63.9205 69.2542 63.9306 72.1407 63.9234 75.0271C63.9224 75.4551 63.9886 75.8723 64.036 76.2938C64.1043 76.9017 64.5777 77.2148 64.9642 77.6412Z" fill="white"/>
<path d="M75.5985 65.9938C76.3778 66.0015 77.1043 65.9962 77.8295 66.0256C78.0188 66.0333 78.2954 65.9883 78.3634 66.2641C78.4327 66.5452 78.1999 66.6172 77.9981 66.695C77.7269 66.7994 77.6439 67.0151 77.6395 67.2861C77.6316 67.7811 77.821 68.2191 78.0235 68.6533C78.8612 70.4503 79.6951 72.2491 80.5452 74.0403C80.7024 74.3714 80.7147 74.6635 80.5725 75.0019C80.1955 75.8992 79.8482 76.809 79.4831 77.7113C79.3862 77.9506 79.3329 78.2488 78.9852 78.254C78.6358 78.2592 78.5765 77.9529 78.4694 77.7234C77.002 74.5789 75.5406 71.4317 74.078 68.285C73.7255 67.5265 73.4177 66.7289 72.4145 66.6092C72.2646 66.5913 72.1729 66.458 72.203 66.2907C72.2405 66.082 72.4118 66.0834 72.5729 66.0704C73.5623 65.9904 74.5537 65.9863 75.5985 65.9938Z" fill="white"/>
<path d="M114.341 54.4359C111.454 54.6338 108.633 54.5315 105.833 53.9951C105.631 53.9564 105.423 53.9309 105.413 53.6807C105.385 52.9601 105.353 52.2379 105.434 51.5622C105.625 51.427 105.766 51.4846 105.901 51.5102C109.019 52.1035 112.156 52.1438 115.309 51.8662C116.157 51.7916 117 51.7173 117.825 51.4994C118.145 51.4149 118.293 51.5163 118.288 51.8565C118.279 52.4231 118.282 52.9899 118.286 53.5565C118.288 53.8143 118.166 53.9285 117.914 53.9791C116.75 54.2136 115.578 54.3758 114.341 54.4359Z" fill="white"/>
<path d="M108.088 57.6713C107.28 57.6097 106.536 57.4571 105.787 57.3216C105.493 57.2685 105.389 57.1424 105.388 56.8756C105.388 56.3091 105.39 55.7426 105.389 55.1761C105.388 54.8349 105.55 54.7609 105.867 54.8294C108.783 55.4587 111.73 55.4341 114.686 55.2559C115.764 55.1908 116.838 55.1032 117.886 54.8223C118.168 54.7469 118.283 54.8785 118.282 55.1502C118.28 55.7344 118.277 56.3187 118.281 56.9029C118.282 57.158 118.173 57.2605 117.913 57.3159C114.993 57.9374 112.042 57.9087 109.085 57.7718C108.768 57.7571 108.452 57.7122 108.088 57.6713Z" fill="white"/>
<path d="M118.072 60.6234C114.741 61.3106 111.421 61.2933 108.095 61.0193C107.322 60.9557 106.55 60.8356 105.791 60.6485C105.519 60.5816 105.386 60.4798 105.388 60.1999C105.394 59.6332 105.387 59.0665 105.394 58.4999C105.398 58.2162 105.503 58.1042 105.829 58.1676C109.621 58.905 113.427 58.8492 117.235 58.3113C118.289 58.1624 118.309 58.1431 118.274 59.2538C118.26 59.7065 118.466 60.1985 118.072 60.6234Z" fill="white"/>
<path d="M113.572 51.1303C110.951 51.1633 108.383 51.2099 105.851 50.6417C105.492 50.5612 105.364 50.422 105.388 50.0849C105.435 49.442 105.298 48.7861 105.482 48.1377C109.744 48.8476 113.964 48.8572 118.269 48.126C118.269 48.892 118.275 49.6114 118.266 50.3306C118.262 50.5594 118.072 50.5793 117.89 50.6216C116.486 50.9473 115.06 51.0732 113.572 51.1303Z" fill="white"/>
<path d="M90.7426 60.0327C90.8486 60.6637 90.5989 60.8507 90.0209 60.9481C86.1081 61.6073 82.2066 61.5918 78.3037 60.887C78.0262 60.8369 77.902 60.7203 77.9066 60.4367C77.9159 59.8704 77.9151 59.3038 77.9075 58.7375C77.9033 58.429 78.0253 58.3319 78.3319 58.3957C80.5083 58.8493 82.7163 58.9647 84.9298 58.9296C86.7149 58.9014 88.4996 58.8024 90.2542 58.4202C90.3868 58.3913 90.5252 58.3265 90.6974 58.4233C90.7994 58.9258 90.7196 59.4561 90.7426 60.0327Z" fill="white"/>
<path d="M91.6263 59.4084C91.6502 59.0432 91.567 58.7209 91.7138 58.367C95.9267 59.1186 100.146 59.1543 104.454 58.353C104.454 59.1293 104.456 59.8658 104.452 60.6022C104.451 60.8118 104.286 60.8442 104.123 60.8767C101.659 61.3685 99.1686 61.4925 96.6652 61.3921C95.1964 61.3333 93.7331 61.2235 92.2841 60.9338C91.7576 60.8285 91.5518 60.6183 91.6219 60.0978C91.65 59.8889 91.6264 59.673 91.6263 59.4084Z" fill="white"/>
<path d="M80.4407 55.4089C83.8866 55.636 87.2791 55.7096 90.7264 54.9897C90.7264 55.7737 90.7291 56.509 90.7247 57.2443C90.7234 57.4514 90.5662 57.4826 90.3991 57.5182C87.6557 58.1031 84.8802 58.1262 82.0963 57.9959C80.8399 57.937 79.59 57.8315 78.359 57.5402C78.0422 57.4652 77.8924 57.3601 77.9007 57.0285C77.9141 56.4972 77.9085 55.9653 77.9032 55.4338C77.9001 55.118 77.9984 54.9881 78.351 55.0599C79.0267 55.1975 79.7116 55.2901 80.4407 55.4089Z" fill="white"/>
<path d="M97.3001 58.053C95.5284 58.0084 93.8156 57.9252 92.1269 57.5505C91.7642 57.47 91.6064 57.3586 91.6213 56.9748C91.646 56.342 91.628 55.7075 91.628 55.0107C95.9084 55.7577 100.127 55.7763 104.443 55.0233C104.443 55.8053 104.453 56.5554 104.437 57.3048C104.432 57.5152 104.216 57.4903 104.065 57.5245C101.853 58.0259 99.605 58.0615 97.3001 58.053Z" fill="white"/>
<path d="M103.465 54.3092C99.6252 54.8657 95.8359 54.8909 92.0542 54.1965C91.8636 54.1615 91.6392 54.1526 91.6365 53.884C91.6294 53.1625 91.6341 52.441 91.6341 51.6641C95.92 52.4264 100.138 52.4435 104.448 51.6723C104.448 52.4446 104.453 53.195 104.444 53.9452C104.442 54.1247 104.278 54.1525 104.137 54.1805C103.928 54.2219 103.719 54.2607 103.465 54.3092Z" fill="white"/>
<path d="M65.4385 56.0551C67.56 56.3262 69.644 56.4336 71.7343 56.3846C73.4324 56.3449 75.1279 56.2535 76.8022 55.9345C76.9038 55.9152 77.0092 55.9163 77.2162 55.8996C77.2162 56.5504 77.22 57.1772 77.2141 57.8039C77.212 58.0163 77.0455 58.0285 76.8808 58.0631C75.9434 58.2596 74.9938 58.3752 74.0409 58.4298C70.9618 58.6064 67.887 58.6379 64.8331 58.0809C64.5054 58.0212 64.3664 57.9163 64.3867 57.5818C64.4196 57.0387 64.3398 56.4901 64.4484 55.8828C64.7791 55.9405 65.0856 55.994 65.4385 56.0551Z" fill="white"/>
<path d="M71.2309 61.4246C69.0535 61.4046 66.932 61.3574 64.8346 60.9491C64.5086 60.8856 64.3747 60.7806 64.3859 60.447C64.4041 59.904 64.3908 59.3601 64.3908 58.749C65.3814 58.925 66.29 59.0259 67.2011 59.1081C69.6224 59.3266 72.0415 59.3256 74.4624 59.1054C75.2556 59.0333 76.0503 58.9799 76.8282 58.7982C77.1146 58.7313 77.2247 58.8509 77.223 59.1228C77.2219 59.2998 77.2259 59.4769 77.2259 59.654C77.2261 60.9383 77.2269 60.9448 75.9434 61.1128C74.3971 61.3152 72.8412 61.3852 71.2309 61.4246Z" fill="white"/>
<path d="M106.538 43.0311C108.506 43.4022 110.451 43.4434 112.4 43.4287C114.344 43.4141 116.281 43.3191 118.218 42.7856C118.338 43.3848 118.287 43.9118 118.271 44.4355C118.264 44.6624 118.085 44.698 117.9 44.7347C115.172 45.2737 112.418 45.3197 109.652 45.2043C108.374 45.1511 107.118 44.97 105.862 44.7518C105.542 44.6962 105.374 44.577 105.391 44.247C105.416 43.7797 105.334 43.3028 105.468 42.8069C105.846 42.8855 106.17 42.9529 106.538 43.0311Z" fill="white"/>
<path d="M85.6911 50.3279C87.3901 50.2782 89.0239 50.1114 90.6875 49.7085C90.7805 50.2831 90.735 50.8096 90.728 51.3329C90.7247 51.573 90.525 51.5906 90.3518 51.6265C87.9767 52.1188 85.5734 52.2012 83.1586 52.1276C81.5809 52.0795 80.0092 51.9952 78.4588 51.6568C78.063 51.5703 77.8581 51.432 77.8999 51.001C77.9386 50.601 77.8629 50.1919 77.9737 49.7166C80.5151 50.3273 83.0732 50.3847 85.6911 50.3279Z" fill="white"/>
<path d="M94.0478 46.7947C96.3721 47.0618 98.6558 47.0666 100.937 46.9098C101.976 46.8384 103.016 46.7124 104.029 46.441C104.148 46.4092 104.263 46.3541 104.418 46.444C104.505 46.9471 104.455 47.4756 104.448 48.0016C104.444 48.2461 104.249 48.241 104.071 48.279C102.873 48.5355 101.662 48.701 100.439 48.7444C97.6393 48.8437 94.8413 48.8813 92.0756 48.2906C91.7544 48.222 91.6076 48.1245 91.6212 47.7882C91.6391 47.3488 91.6256 46.908 91.6256 46.3882C92.4569 46.5277 93.2288 46.6573 94.0478 46.7947Z" fill="white"/>
<path d="M111.232 47.8276C109.388 47.8065 107.609 47.6711 105.848 47.3215C105.515 47.2555 105.374 47.1267 105.391 46.8102C105.414 46.4077 105.322 45.9969 105.465 45.5983C105.745 45.4654 105.992 45.6322 106.242 45.6746C108.946 46.1344 111.666 46.1624 114.394 46.015C115.562 45.9519 116.725 45.8548 117.866 45.5794C118.135 45.5146 118.274 45.6215 118.278 45.9001C118.278 45.9355 118.28 45.971 118.282 46.0063C118.355 47.2287 118.351 47.2052 117.157 47.4296C115.213 47.7947 113.251 47.8212 111.232 47.8276Z" fill="white"/>
<path d="M92.6612 50.9861C91.6192 50.7359 91.6169 50.7358 91.6272 49.6815C91.629 49.4926 91.5791 49.2902 91.7243 49.1138C95.9407 49.8316 100.162 49.8271 104.402 49.1216C104.51 49.6145 104.453 50.0912 104.45 50.5648C104.448 50.8157 104.244 50.8005 104.072 50.8416C102.827 51.1407 101.558 51.2864 100.284 51.3232C97.752 51.3963 95.2179 51.428 92.6612 50.9861Z" fill="white"/>
<path d="M88.1714 52.8166C89.0332 52.7676 89.8257 52.5702 90.6925 52.4329C90.7828 52.9545 90.74 53.4432 90.724 53.9286C90.717 54.1395 90.5323 54.1574 90.3774 54.1897C87.933 54.7005 85.4583 54.7761 82.9739 54.6951C81.4508 54.6454 79.9334 54.5546 78.4355 54.2277C78.0151 54.136 77.8669 53.9692 77.8987 53.5587C77.9256 53.2115 77.9042 52.8604 77.9042 52.4268C81.3455 53.0892 84.7292 53.1267 88.1714 52.8166Z" fill="white"/>
<path d="M72.2391 55.6277C69.7416 55.7289 67.3061 55.6276 64.8834 55.2313C64.4616 55.1623 64.3488 54.9799 64.3853 54.6044C64.4124 54.3259 64.3424 54.0398 64.4642 53.7015C68.677 54.3384 72.9023 54.3594 77.1378 53.6992C77.2921 54.122 77.2114 54.5288 77.2115 54.9282C77.2116 55.1757 77.0062 55.1702 76.8317 55.2034C75.3307 55.4892 73.8153 55.6161 72.2391 55.6277Z" fill="white"/>
<path d="M93.726 87.9617C93.9947 87.8567 94.2274 87.7713 94.4501 87.6651C94.9603 87.422 95.166 87.0516 95.1684 86.4479C95.1752 84.7751 95.6527 83.2062 96.4383 81.7333C96.5971 81.4355 96.8117 81.1704 97.1008 80.9846C97.3566 80.8203 97.6252 80.6728 97.9436 80.822C98.277 80.9784 98.3728 81.2799 98.3868 81.6101C98.4127 82.2231 98.2368 82.8047 98.0275 83.3665C97.5557 84.6329 96.9382 85.8248 96.0614 86.865C95.7535 87.2302 95.5491 87.5682 96.0681 87.9217C96.1772 87.996 96.2315 88.1198 96.1447 88.2452C96.0631 88.3633 95.9368 88.3616 95.8094 88.324C95.5479 88.2471 95.4453 88.0031 95.2676 87.7973C94.9885 87.8471 94.7806 88.0527 94.5344 88.1759C93.9384 88.474 93.3366 88.613 92.7093 88.2701C92.1542 87.9667 91.9011 87.3485 92.1187 86.8334C92.1752 86.6996 92.2385 86.5557 92.414 86.5833C92.5901 86.6111 92.6069 86.7596 92.6071 86.9102C92.6081 87.7712 92.8251 87.9838 93.726 87.9617ZM97.309 83.8337C97.5821 83.2337 97.7302 82.5959 97.8679 81.9561C97.9198 81.7151 97.9868 81.4199 97.69 81.3081C97.4395 81.2138 97.2726 81.4407 97.1316 81.6222C97.0234 81.7615 96.9291 81.9129 96.8403 82.0657C96.236 83.1064 95.9127 84.2413 95.7401 85.4226C95.6891 85.7716 95.537 86.124 95.704 86.5323C96.3815 85.7106 96.8854 84.8434 97.309 83.8337Z" fill="white"/>
<path d="M84.113 67.3874C83.4035 68.2216 82.9448 69.157 82.5221 70.1152C82.438 70.3059 82.3963 70.617 82.0593 70.4787C81.7793 70.3638 81.8338 70.1196 81.8815 69.8857C82.0255 69.1804 82.2645 68.4914 82.0835 67.7455C81.9368 67.1406 81.6032 66.777 80.9904 66.6733C80.7611 66.6346 80.4943 66.622 80.5298 66.2919C80.5609 66.0028 80.8244 66.0053 81.0246 66.0039C82.4227 65.9939 83.8209 65.9958 85.219 66.0034C85.407 66.0045 85.6319 66.0088 85.6488 66.2872C85.6639 66.5381 85.5016 66.6309 85.2872 66.6565C84.7955 66.7152 84.4479 67.0052 84.113 67.3874Z" fill="white"/>
<path d="M102.189 78.0458C101.075 78.0449 100.015 78.0494 98.9543 78.0388C98.7268 78.0365 98.4032 78.136 98.3559 77.7757C98.3092 77.4199 98.6311 77.4164 98.8614 77.3675C99.7162 77.1862 100.348 76.6427 100.943 76.0619C101.384 75.631 101.766 75.14 102.179 74.6802C102.291 74.5551 102.397 74.3574 102.61 74.4874C102.811 74.6101 102.885 74.7963 102.789 75.0351C102.684 75.2972 102.575 75.5598 102.501 75.8312C102.289 76.6016 102.59 77.1129 103.357 77.3108C103.545 77.3592 103.737 77.3936 103.928 77.4238C104.139 77.4572 104.314 77.5192 104.28 77.7838C104.25 78.02 104.07 78.0399 103.886 78.041C103.338 78.0443 102.79 78.0444 102.189 78.0458Z" fill="white"/>
<path d="M109.105 65.9919C109.724 66.0072 110.29 66.0172 110.855 66.041C111.05 66.0492 111.203 66.1459 111.19 66.3695C111.178 66.5618 111.036 66.6347 110.862 66.6527C109.206 66.8236 108.172 67.9575 107.118 69.0642C106.941 69.2504 106.841 69.6772 106.494 69.481C106.123 69.2717 106.422 68.9521 106.511 68.6841C106.561 68.5329 106.618 68.3844 106.668 68.2331C106.978 67.2815 106.716 66.8407 105.732 66.6658C105.521 66.6282 105.273 66.6207 105.28 66.3289C105.289 66.0019 105.569 66.0874 105.764 66.0657C106.857 65.9435 107.956 66.0114 109.105 65.9919Z" fill="white"/>
<path d="M113.853 22.3409C114.114 22.0212 114.263 21.7166 113.981 21.3598C114.236 21.2573 114.367 21.4103 114.465 21.534C115.215 22.4811 115.338 24.252 113.86 24.8411C113.262 25.0795 113.054 24.9123 112.886 24.3043C112.618 23.336 113.247 22.8818 113.853 22.3409Z" fill="white"/>
<path d="M110.598 22.9143C110.478 23.0855 110.339 23.2473 110.242 23.4318C110.032 23.8361 109.761 23.7719 109.476 23.5444C109.008 23.1718 108.864 22.49 109.099 21.8307C109.267 21.3614 109.917 20.8744 110.487 20.8491C110.043 21.349 110.303 21.8057 110.495 22.267C110.569 22.447 110.638 22.6285 110.601 22.8732C110.596 22.9166 110.597 22.9152 110.598 22.9143Z" fill="white"/>
<path d="M119.982 26.1969C120.095 26.3771 120.213 26.5174 120.153 26.7719C119.592 26.408 119.145 26.7588 118.67 26.9899C118.157 27.2391 117.795 26.8572 117.419 26.631C117.191 26.4937 117.344 26.2251 117.429 26.061C117.702 25.5327 118.752 25.2825 119.253 25.614C119.502 25.7782 119.725 25.9806 119.982 26.1969Z" fill="white"/>
<path d="M117.311 23.4651C117.02 24.1535 116.534 24.3975 115.828 24.3567C115.499 24.3377 115.434 24.1748 115.41 23.9426C115.346 23.3242 116.137 22.5007 116.765 22.5148C117.539 22.5322 117.858 22.6593 118.11 23.0932C117.759 23.0371 117.51 23.1676 117.311 23.4651Z" fill="white"/>
<path d="M103.315 29.1676C103.481 28.4506 104.206 28.0054 105.048 28.0672C105.491 28.0998 105.898 28.5647 105.974 29.1391C105.428 29.5375 104.873 29.7468 104.247 29.27C103.973 29.0614 103.656 29.0816 103.315 29.1676Z" fill="white"/>
<path d="M108.834 31.3214C108.737 31.2924 108.68 31.2595 108.59 31.2166C108.134 30.9787 107.9 30.6427 107.903 30.1423C107.904 29.8321 107.754 29.578 107.402 29.4334C108.119 29.1271 108.811 29.4111 109.203 30.0899C109.443 30.5048 109.317 30.972 108.834 31.3214Z" fill="white"/>
<path d="M81.4381 82.6201C81.4451 82.8904 81.3398 83.0303 81.1026 83.0407C80.9603 83.0469 80.8691 82.9598 80.8315 82.8322C80.78 82.6573 80.8567 82.5123 80.9999 82.4237C81.1922 82.3046 81.3322 82.3954 81.4381 82.6201Z" fill="white"/>
</svg>
