<svg width="71" height="52" viewBox="0 0 71 52" fill="none" xmlns="http://www.w3.org/2000/svg">
<path d="M45.4318 6.36214C45.4039 6.31174 45.3714 6.26335 45.349 6.21061C45.1997 5.85768 44.9667 5.67829 44.5544 5.73847C44.0207 5.81636 43.6386 5.60461 43.3873 5.10164C43.2223 4.77135 42.9727 4.47727 42.4911 4.64938C42.6798 4.30291 42.9924 4.2234 43.3296 4.14098C43.8176 4.0217 44.2112 4.21881 44.6092 4.43505C44.776 4.52564 44.8471 4.70502 44.8741 4.86416C44.9839 5.51177 45.4969 5.85311 45.9149 6.32153C46.0079 5.99399 46.1072 5.7332 45.8988 5.42142C45.732 5.17182 45.7535 4.84787 45.8419 4.52157C45.8468 4.4945 45.8459 4.49542 45.8459 4.49542C45.9619 4.46883 45.9992 4.36735 46.0557 4.28102C46.3369 3.85133 46.795 3.79068 47.2456 3.73007C47.3473 3.7164 47.4755 3.73749 47.5515 3.88726C47.1576 3.98975 47.0881 4.30128 47.0937 4.63316C47.1012 5.07681 46.9231 5.3835 46.5105 5.55174C46.3414 5.62069 46.2805 5.74773 46.2703 5.93062C46.2516 6.2637 46.1991 6.59498 46.2191 6.93011C46.2272 7.065 46.2164 7.20582 46.3331 7.3325C46.4928 7.25991 46.6335 7.1801 46.6675 6.98233C46.7207 6.67194 46.9078 6.49857 47.2202 6.45749C47.5523 6.41382 47.7831 6.56751 48.0499 6.88141C47.5662 6.81881 47.3505 7.28946 46.9071 7.19647C46.7397 7.16136 46.2978 7.758 46.3198 7.95218C46.3805 8.48976 46.5222 9.00481 46.805 9.47191C46.9489 9.41971 46.982 9.31563 47.0259 9.2259C47.2948 8.67554 47.6118 8.15512 47.9819 7.66695C48.0435 7.58578 48.1141 7.51131 48.09 7.3897C47.9365 6.61635 48.1687 6.07233 48.905 5.81689C49.3239 5.67153 49.8211 5.63286 50.2629 5.87371C50.3507 5.9216 50.4512 5.97076 50.4394 6.1014C49.9228 6.12275 49.65 6.41765 49.4472 7.17604C49.5927 7.24865 49.7296 7.29351 49.9106 7.28328C50.5272 7.24843 50.8397 7.72767 51.1624 8.13138C51.3192 8.3276 51.3916 8.49625 51.7067 8.45807C51.9429 8.42945 52.2727 8.40189 52.3783 8.77364C52.3956 8.83456 52.5306 8.86173 52.6108 8.90512C53.0818 9.15975 53.3601 9.623 53.2753 10.0765C52.8951 9.48482 52.4183 9.70378 51.9967 9.93001C51.3991 10.2507 50.8685 10.2399 50.3522 9.79479C50.1665 9.63471 49.9746 9.6337 49.7459 9.73015C49.389 9.8807 49.0194 10 48.6611 10.2383C48.9271 10.3889 49.1467 10.5103 49.4298 10.4963C49.7355 10.4812 50.0191 10.5967 50.2848 10.7391C50.5451 10.8787 50.8261 11.5055 50.792 11.802C50.7724 11.9727 50.7895 12.1472 50.7785 12.3193C50.7612 12.5908 50.6707 12.825 50.3658 13.0134C50.4958 12.4812 50.1779 12.2612 49.8185 12.1205C49.3129 11.9226 49.0698 11.581 49.0807 11.0455C49.0851 10.8306 49.0237 10.6624 48.7818 10.6083C48.5352 10.5532 48.3079 10.4627 48.0948 10.7236C47.6767 11.2356 47.4963 11.8372 47.3988 12.4665C47.2408 13.4868 47.3334 14.5115 47.3912 15.5347C47.4057 15.7931 47.5685 15.8197 47.7712 15.8192C48.5122 15.8176 49.2375 15.9476 49.9603 16.0923C50.1983 16.1399 50.4305 16.215 50.6409 16.3362C50.926 16.5005 50.9341 16.7162 50.6542 16.8907C50.3262 17.0952 49.9493 17.1733 49.5741 17.232C47.6027 17.5402 45.63 17.5448 43.6576 17.2364C43.3377 17.1864 43.0262 17.1035 42.7265 16.9822C42.5656 16.9171 42.3909 16.8384 42.3807 16.6364C42.37 16.4248 42.5519 16.3541 42.7092 16.2825C43.2739 16.0255 43.8844 15.9652 44.4886 15.8918C44.8993 15.8419 45.3151 15.8327 45.7289 15.8098C45.8711 15.802 46.008 15.8076 46.0396 15.6168C46.2837 14.142 46.3643 12.6833 45.6113 11.309C45.5233 11.1483 45.414 10.9971 45.3 10.8531C44.8898 10.3348 44.3365 10.4077 44.1121 11.0199C44.0172 11.2789 43.7999 11.3414 43.5934 11.4247C43.3392 11.5273 43.1046 11.6356 43.074 11.9459C43.03 11.9409 42.9983 11.9466 42.9891 11.9348C42.6413 11.4893 42.919 10.3578 43.6401 10.3091C43.7787 10.2998 43.9105 10.2832 44.0448 10.347C44.2342 10.437 44.4208 10.4184 44.5952 10.2923C44.2925 9.91161 44.0017 9.83183 43.6298 10.0775C43.2447 10.3319 42.8911 10.3796 42.4782 10.1284C42.2031 9.961 41.878 9.83507 41.575 10.2539C41.527 9.60821 42.0019 9.39739 42.3233 9.16521C42.6107 8.95761 43.0392 8.90791 43.3983 9.14412C43.6014 9.27769 43.8944 9.34986 43.8336 9.71026C44.0634 9.71313 44.258 9.82448 44.5162 9.88611C44.5997 9.91883 44.6371 9.94019 44.6746 9.96156C45.2596 10.2635 45.7603 10.6908 46.3037 11.0544C46.3179 11.0639 46.3471 11.0507 46.3693 11.0478C46.5868 10.4882 46.3534 9.75757 45.8636 9.45877C45.1692 9.03515 44.5544 8.521 44.0728 7.86319C43.8191 7.9815 42.66 7.93688 42.4721 7.76978C42.3264 7.64028 42.2331 7.45134 42.119 7.28711C42.0337 7.16426 41.9606 7.03207 41.8676 6.91556C41.6156 6.59989 41.3477 6.31223 40.8672 6.55556C41.0409 6.15014 41.388 6.02144 41.7557 5.9496C42.0375 5.89456 42.3799 5.81758 42.6063 5.88268C43.1561 6.04079 43.7542 6.23195 43.9372 6.91249C44.0111 7.18695 44.1122 7.45407 44.2338 7.72563C44.2099 7.37828 44.2349 7.02234 44.4757 6.78575C44.7109 6.55467 44.9738 6.28686 45.3925 6.37984C45.2491 6.55171 45.1067 6.7236 45.1858 6.94594C45.3527 7.41547 45.2124 7.77101 44.8423 8.06811C44.8021 8.10036 44.7813 8.15667 44.7448 8.21182C45.0952 8.5167 45.4478 8.77064 45.9326 8.88785C45.8564 8.38837 45.7687 7.94253 45.8238 7.49575C45.8795 7.04374 45.7088 6.68924 45.4318 6.36214ZM50.2539 8.45352C49.7038 8.85753 49.1894 8.66452 48.6443 8.32469C49.1094 8.72196 48.8145 9.23997 48.9442 9.69684C49.3942 9.55801 49.8181 9.42721 50.244 9.29581C50.2066 9.18162 50.0894 9.25618 50.0687 9.13879C50.2941 8.82549 50.6663 8.65606 51.0069 8.38872C50.7248 8.25884 50.5143 8.34689 50.2539 8.45352ZM47.5452 10.4269C47.8304 10.19 48.1584 10.0267 48.4964 9.88386C48.667 9.81183 48.7626 9.71125 48.7162 9.5171C48.2989 9.31933 48.2647 9.24778 48.2714 8.56607C48.2253 8.58012 48.1813 8.58638 48.1443 8.60583C47.7521 8.81193 47.2297 9.94646 47.3159 10.3879C47.3453 10.5385 47.418 10.5104 47.5452 10.4269ZM48.2382 8.19655C48.6908 8.16842 48.6106 7.63459 48.94 7.48961C48.3484 7.52328 48.2396 7.607 48.0763 8.08924C48.0252 8.24025 48.0789 8.24757 48.2382 8.19655Z" fill="#212121"/>
<path d="M36.128 19.8968C35.397 19.8352 34.6953 19.7875 34.0196 19.5817C33.7535 19.5007 33.3728 19.4608 33.375 19.1143C33.3772 18.7692 33.7598 18.7241 34.0253 18.6502C34.9175 18.4017 35.8339 18.3192 36.7576 18.3007C37.3106 18.2897 37.3159 18.2802 37.3156 17.7386C37.3154 17.4391 37.3177 17.1396 37.3153 16.8401C37.311 16.3175 37.0654 16.0592 36.546 15.9836C35.6839 15.8581 35.0262 15.4052 34.568 14.6722C34.0864 13.9017 33.8801 13.046 33.8365 12.1461C33.8348 12.1121 33.8398 12.0765 33.8491 12.0438C33.8582 12.0117 33.8768 11.9824 33.9112 11.9094C34.8684 12.1173 35.7351 12.5019 36.4424 13.2036C37.1733 13.9287 37.4504 14.83 37.4114 15.8917C37.5935 15.5318 37.555 14.5636 37.3834 14.2293C36.7558 13.0066 36.8192 11.8151 37.5568 10.6583C37.6227 10.5549 37.6775 10.4337 37.8636 10.3917C38.6902 11.7572 38.5734 13.1228 37.8721 14.5117C38.2189 14.1257 38.6381 13.8129 38.7287 13.2665C38.9595 11.8757 39.717 10.9127 41.0568 10.432C41.3966 10.3101 41.4721 10.3806 41.3991 10.7441C41.1767 11.8527 40.6136 12.7555 39.6206 13.2951C39.0756 13.5912 38.7002 14.0002 38.3548 14.4757C38.2331 14.6433 38.1155 14.8154 37.9785 14.9699C37.8512 15.1133 37.8076 15.2626 37.8612 15.4445C37.8847 15.4373 37.9176 15.4368 37.9232 15.4241C38.4503 14.2322 39.4584 13.7631 40.6683 13.6248C41.171 13.5674 41.6802 13.5788 42.1835 13.6692C42.3428 13.6978 42.4701 13.75 42.373 13.9359C41.7162 15.1927 40.8686 16.2329 39.3757 16.5195C39.0796 16.5763 38.7785 16.5455 38.4793 16.5425C38.0697 16.5384 37.9186 16.6879 37.916 17.0969C37.9143 17.3503 37.9304 17.605 37.9107 17.8569C37.8856 18.1794 37.9969 18.3109 38.3373 18.3072C39.2028 18.2979 40.0599 18.3981 40.9061 18.5848C41.1432 18.6371 41.3774 18.701 41.5887 18.8219C41.9084 19.0048 41.9081 19.2368 41.5847 19.4098C41.2144 19.608 40.8048 19.695 40.3959 19.7545C38.9901 19.9589 37.5766 19.9922 36.128 19.8968Z" fill="#212121"/>
<path d="M50.8948 36.6353C51.6749 36.6352 52.4204 36.6352 53.1518 36.6352C53.2167 36.4523 53.1296 36.3462 53.0835 36.2327C52.498 34.7926 51.9142 33.3517 51.3215 31.9146C51.2092 31.6423 51.2011 31.3878 51.308 31.1135C51.6007 30.3625 51.8804 29.6065 52.169 28.8539C52.2331 28.6866 52.2669 28.4723 52.5098 28.4771C52.7284 28.4815 52.7722 28.6803 52.8363 28.8344C53.6951 30.8963 54.5498 32.9599 55.4059 35.0229C55.9354 36.299 56.4637 37.5755 56.9978 38.8496C57.0686 39.0186 57.1712 39.1741 57.2566 39.3371C57.4273 39.6626 57.6609 39.8918 58.0572 39.9056C58.1813 39.9099 58.3261 39.9363 58.3282 40.1089C58.3305 40.3049 58.1745 40.3197 58.0357 40.3224C57.5404 40.3322 57.045 40.3362 56.5496 40.3367C55.6393 40.3375 54.7291 40.3355 53.8188 40.3316C53.6712 40.331 53.498 40.3471 53.4708 40.1381C53.4445 39.9359 53.6221 39.9302 53.7456 39.8965C54.097 39.8007 54.1845 39.5249 54.1612 39.227C54.1035 38.4877 53.723 37.8523 53.4486 37.1839C53.3966 37.0574 53.2644 37.0593 53.1484 37.0589C52.0192 37.0555 50.8901 37.0552 49.7609 37.0488C49.6129 37.0479 49.5111 37.0931 49.4797 37.2414C49.3628 37.7936 49.2423 38.3436 49.4222 38.9093C49.5997 39.4673 49.9514 39.8123 50.5426 39.8917C50.6681 39.9085 50.793 39.9314 50.9189 39.9449C51.0359 39.9574 51.1186 39.9966 51.1143 40.1328C51.1101 40.2696 51.013 40.3022 50.9054 40.3164C50.8258 40.327 50.7446 40.3291 50.6641 40.3293C49.5465 40.3318 48.4288 40.3353 47.3112 40.3328C47.1603 40.3324 46.9586 40.3816 46.9318 40.1437C46.9084 39.9361 47.0868 39.9194 47.2286 39.8768C47.4527 39.8095 47.586 39.6376 47.7186 39.4601C48.2552 38.7421 48.5852 37.9145 48.9507 37.1083C49.1124 36.7517 49.3268 36.5979 49.7201 36.6293C50.0979 36.6595 50.48 36.6355 50.8948 36.6353Z" fill="#212121"/>
<path d="M63.0854 30.1777C63.0839 32.8812 63.0817 35.5533 63.0837 38.2254C63.0844 39.1358 63.4114 39.5984 64.2574 39.9072C64.3715 39.9489 64.477 39.9921 64.4591 40.1422C64.443 40.2771 64.3343 40.3002 64.2313 40.3085C64.0479 40.3231 63.8634 40.3287 63.6794 40.3291C62.3549 40.3321 61.0304 40.3333 59.7059 40.3335C59.5794 40.3335 59.4522 40.3294 59.3267 40.3155C59.2142 40.303 59.1305 40.2443 59.1252 40.1185C59.1205 40.0071 59.1922 39.947 59.2889 39.9264C60.3548 39.6993 60.5471 38.9026 60.5486 37.9884C60.5519 35.8807 60.5528 33.773 60.5473 31.6653C60.546 31.1362 60.5245 30.6068 60.4983 30.0782C60.4673 29.4519 60.1231 29.0559 59.5112 28.9155C59.4215 28.895 59.3313 28.8745 59.2441 28.8457C59.1737 28.8224 59.1304 28.7677 59.1281 28.6908C59.1253 28.6002 59.1685 28.5297 59.2548 28.5075C59.3427 28.4849 59.436 28.4739 59.5269 28.4738C61.0357 28.472 62.5445 28.4727 64.0532 28.4732C64.1108 28.4732 64.1685 28.4741 64.2258 28.4791C64.3475 28.4898 64.456 28.5171 64.4622 28.6724C64.4675 28.8068 64.3816 28.8503 64.2714 28.8737C64.2376 28.8808 64.2048 28.892 64.1714 28.9008C63.4573 29.0883 63.1851 29.4008 63.0854 30.1777Z" fill="#212121"/>
<path d="M10.3954 31.2553C10.3956 33.4556 10.398 35.6213 10.3933 37.787C10.3927 38.1112 10.411 38.4332 10.4704 38.7495C10.5767 39.3157 10.9011 39.7041 11.4605 39.8809C11.6064 39.927 11.8161 39.9204 11.7777 40.157C11.7435 40.3673 11.5483 40.3219 11.4123 40.3226C9.89176 40.3302 8.37118 40.3313 6.85062 40.3287C6.71148 40.3285 6.52509 40.3694 6.49218 40.1546C6.45914 39.9391 6.64324 39.9298 6.78098 39.8866C7.44439 39.6787 7.85048 39.1639 7.85431 38.4044C7.86806 35.6743 7.86636 32.944 7.85464 30.2139C7.8515 29.4822 7.49097 29.0772 6.77709 28.8953C6.65172 28.8633 6.47708 28.872 6.49048 28.6681C6.5053 28.4426 6.6884 28.4757 6.82918 28.4754C8.37278 28.4724 9.91639 28.4734 11.46 28.4767C11.5921 28.477 11.7579 28.4495 11.7859 28.6459C11.8145 28.8459 11.6529 28.8531 11.5199 28.8879C10.7469 29.09 10.4303 29.4821 10.4006 30.2878C10.3892 30.5984 10.3966 30.9097 10.3954 31.2553Z" fill="#212121"/>
<path d="M36.1047 38.5273C36.2251 38.4179 36.3319 38.3291 36.424 38.227C36.526 38.1138 36.6266 38.0387 36.7803 38.1335C36.9397 38.2318 36.9017 38.3677 36.8451 38.4979C36.4958 39.301 35.8942 39.8449 35.0901 40.1675C32.6104 41.1623 30.115 39.7511 29.7129 37.105C29.4547 35.4057 29.9631 33.9868 31.4017 32.9741C31.8597 32.6517 32.3954 32.4974 32.9489 32.4191C33.0479 32.4051 33.165 32.392 33.2204 32.5129C33.2791 32.641 33.216 32.7374 33.1171 32.8109C32.3153 33.4067 32.0993 34.2884 31.9762 35.2015C31.8783 35.9284 31.8994 35.9315 32.6387 35.9321C33.3299 35.9326 34.0212 35.9296 34.7123 35.9344C34.9102 35.9357 35.0543 35.9011 35.0485 35.6573C35.0307 34.9141 34.9278 34.1894 34.5951 33.5136C34.4601 33.2395 34.26 33.0202 34.0119 32.8421C33.8924 32.7564 33.8041 32.6429 33.8714 32.4892C33.9317 32.3516 34.0659 32.3991 34.1769 32.4037C35.8147 32.4709 37.0005 33.6079 37.1507 35.2525C37.1716 35.4813 37.1966 35.7097 37.224 35.9378C37.2581 36.2214 37.1367 36.3316 36.8516 36.3276C36.1144 36.3171 35.3771 36.3247 34.6398 36.3247C33.8909 36.3247 33.1421 36.3238 32.3933 36.3244C31.9453 36.3247 31.9101 36.3667 31.9887 36.7965C32.3357 38.6927 34.2045 39.5749 35.9045 38.6447C35.9651 38.6116 36.0246 38.5763 36.1047 38.5273Z" fill="#212121"/>
<path d="M29.1903 20.3084C30.2968 20.3151 31.3612 20.4006 32.3952 20.7125C32.6199 20.7803 32.9192 20.8293 32.9168 21.1306C32.9144 21.4263 32.6175 21.4806 32.394 21.5554C31.7232 21.78 31.0236 21.8628 30.3236 21.9076C28.6773 22.0131 27.0332 22.0123 25.4086 21.6658C25.1739 21.6158 24.9442 21.5335 24.7198 21.4464C24.5905 21.3962 24.4787 21.2996 24.4659 21.1443C24.4519 20.9758 24.5837 20.9003 24.7042 20.8368C25.1609 20.5965 25.6646 20.5214 26.1663 20.4556C26.6905 20.3869 27.2154 20.3049 27.7463 20.3179C27.9929 20.3239 28.0773 20.2126 28.0558 19.9829C28.0225 19.6261 28.1592 19.2406 27.8622 18.9287C27.7793 18.8417 27.7021 18.7745 27.5752 18.7627C26.351 18.6495 25.7065 17.8715 25.3551 16.786C25.2047 16.3211 25.0848 15.8414 25.1472 15.2996C26.0156 15.4646 26.75 15.8169 27.3545 16.4119C27.9678 17.0157 28.1726 17.7902 28.2109 18.6289C28.2164 18.1347 28.3303 17.6618 28.077 17.1664C27.5859 16.2059 27.6522 15.2313 28.2285 14.3061C28.2768 14.2287 28.3376 14.1583 28.3985 14.0899C28.4186 14.0673 28.4571 14.0612 28.5233 14.0312C28.8049 14.4098 28.9363 14.8432 28.9879 15.2998C29.0536 15.8808 29.0151 16.4637 28.7339 16.9831C28.5004 17.4144 28.4856 17.8543 28.5216 18.3788C28.8473 17.6632 29.3327 17.1801 30.0294 16.9418C30.7054 16.7106 31.4006 16.6584 32.1074 16.7783C32.2713 16.8061 32.4287 16.839 32.3146 17.0555C31.7653 18.0978 31.0631 18.963 29.8172 19.1972C29.576 19.2425 29.337 19.2439 29.0953 19.2272C28.7254 19.2017 28.5876 19.3249 28.5808 19.6886C28.5805 19.7001 28.5806 19.7116 28.5805 19.7231C28.5751 20.3047 28.5751 20.3047 29.1903 20.3084Z" fill="#212121"/>
<path d="M29.2041 45.3264C29.271 45.1347 29.271 45.1347 29.239 44.9113C28.8841 44.9694 28.6359 45.1885 28.4418 45.4541C28.143 45.8629 27.8776 46.2959 27.5938 46.7157C27.5206 46.8241 27.4542 47.0057 27.2863 46.9141C27.1152 46.8208 27.2398 46.6706 27.2914 46.5509C27.4463 46.1913 27.6082 45.8347 27.7637 45.4753C27.8272 45.3287 27.8978 45.1796 27.8037 44.999C27.6064 45.0039 27.5125 45.1637 27.4014 45.2833C27.0015 45.7137 26.6092 46.151 26.2139 46.5856C26.1984 46.6026 26.1823 46.6192 26.1651 46.6346C25.9539 46.8234 25.7365 47.1208 25.4332 46.9285C25.1578 46.7539 25.2957 46.4313 25.3644 46.1654C25.3756 46.1218 25.3905 46.0791 25.4317 45.9443C25.2049 46.1625 25.0438 46.3265 24.8732 46.48C24.2972 46.9982 23.5539 47.3073 22.8111 46.7515C22.6843 46.6566 22.5867 46.6903 22.4682 46.762C21.9235 47.0915 21.3715 47.1741 20.8191 46.779C20.6872 46.6846 20.5895 46.7471 20.4755 46.8166C19.9922 47.1113 19.835 47.0736 19.5553 46.5967C19.3092 46.7269 19.1224 46.9672 18.8096 46.9827C18.4776 46.9991 18.2949 46.8347 18.1772 46.5072C18.0117 46.6234 17.8666 46.728 17.7188 46.8286C17.5508 46.9429 17.375 47.0377 17.1798 46.8918C16.9784 46.7411 16.9879 46.5454 17.0729 46.3334C17.2101 45.9914 17.343 45.6476 17.4733 45.3029C17.5166 45.1884 17.5848 45.0722 17.5071 44.9301C17.2701 44.8987 17.1198 45.0593 16.9737 45.1888C16.5475 45.5667 16.1876 45.9986 15.9832 46.5416C15.9711 46.5739 15.9585 46.607 15.9399 46.6357C15.8515 46.7721 15.8021 47.0295 15.5911 46.9296C15.3628 46.8216 15.5461 46.6199 15.619 46.4884C15.8296 46.1083 15.9284 45.6964 16.0093 45.278C16.0331 45.1548 16.0461 45.0065 15.9168 44.9334C15.7957 44.8649 15.6955 44.971 15.6124 45.0422C15.1384 45.4481 14.8599 45.9959 14.5464 46.5195C14.4543 46.6732 14.408 47.0026 14.1912 46.8971C13.9348 46.7723 14.1878 46.5345 14.261 46.3684C14.4052 46.0414 14.5499 45.7158 14.6581 45.3748C14.6957 45.2561 14.7456 45.1381 14.666 44.9901C14.4262 45.0616 14.2831 45.2411 14.1391 45.4149C13.7934 45.8319 13.4467 46.2478 13.0469 46.6155C13.03 46.6311 13.0142 46.6481 12.9975 46.6639C12.6369 47.0052 12.2428 47.1475 12.0151 46.9753C11.6538 46.7022 11.821 46.3328 11.8843 45.989C11.8902 45.9567 11.9022 45.9255 11.9381 45.8012C11.6983 46.1122 11.4669 46.3065 11.2319 46.4957C11.107 46.5962 10.9758 46.6936 10.8349 46.7691C9.90265 47.2682 9.23839 46.8645 9.2422 45.8058C9.24851 44.0578 10.9846 42.1803 12.7308 42.0336C12.7766 42.0297 12.8229 42.0288 12.8689 42.0288C13.6905 42.0296 13.8097 42.2106 13.4928 42.9556C13.0828 43.9199 12.6764 44.8859 12.2749 45.8538C12.1914 46.055 12.1212 46.2651 12.1233 46.4884C12.1252 46.6942 12.229 46.7586 12.4164 46.6803C12.6003 46.6035 12.7549 46.4814 12.8877 46.336C13.2449 45.9446 13.5958 45.5475 13.9516 45.1548C14.052 45.0439 14.1523 44.9306 14.2666 44.8351C14.6535 44.5118 14.9096 44.585 15.0763 45.0698C15.4062 44.9035 15.6229 44.4286 16.0818 44.6301C16.3709 44.7571 16.32 45.0716 16.3852 45.393C16.4756 45.2828 16.5605 45.1675 16.6577 45.0637C16.7833 44.9294 16.9095 44.7925 17.0805 44.7122C17.2909 44.6134 17.5104 44.497 17.7291 44.6674C17.956 44.8442 17.8822 45.0817 17.8037 45.3017C17.6915 45.6159 17.5644 45.9247 17.4476 46.2374C17.4052 46.3508 17.3257 46.4645 17.4255 46.6104C17.7098 46.5142 17.8915 46.2927 18.0819 46.0819C18.4434 45.6817 18.7112 45.196 19.1741 44.8881C19.495 44.6746 19.8292 44.4988 20.2297 44.5129C20.6124 44.5264 20.688 44.643 20.5283 44.9817C20.3369 45.3876 20.1049 45.7753 19.975 46.2088C19.9327 46.3502 19.85 46.5225 20.0021 46.6202C20.1621 46.7231 20.2748 46.56 20.3787 46.4596C20.9015 45.9544 21.3627 45.3929 21.8402 44.8464C21.9084 44.7683 21.9751 44.6885 22.048 44.6149C22.1161 44.546 22.1991 44.4946 22.2916 44.5661C22.3683 44.6254 22.3455 44.7077 22.3155 44.7871C22.1092 45.3338 22.2678 45.8926 22.2154 46.4794C22.5708 46.3729 22.7633 46.1406 22.957 45.9206C23.3071 45.5228 23.6412 45.111 23.9865 44.709C24.0651 44.6175 24.1467 44.4685 24.2918 44.5475C24.4483 44.6328 24.3289 44.7693 24.3017 44.8844C24.2459 45.1208 24.2052 45.3557 24.263 45.6013C24.3291 45.882 24.2369 46.1664 24.2272 46.4823C24.4829 46.4281 24.6345 46.285 24.77 46.1352C25.1639 45.6994 25.5463 45.2533 25.9349 44.8128C26.015 44.722 26.0931 44.5665 26.2366 44.6676C26.3662 44.7589 26.2778 44.9003 26.2273 45.0131C26.0582 45.3916 25.8794 45.7659 25.7148 46.1464C25.6574 46.2791 25.572 46.4133 25.6254 46.5786C25.7847 46.6363 25.8587 46.5029 25.9342 46.421C26.2851 46.0398 26.6226 45.6464 26.9693 45.2613C27.0847 45.1331 27.2089 45.0117 27.3372 44.8963C27.512 44.7391 27.7065 44.5944 27.9562 44.6751C28.2047 44.7553 28.175 44.994 28.179 45.2459C28.45 45.0421 28.6236 44.7825 28.9086 44.6775C29.0911 44.6103 29.2799 44.5112 29.4631 44.6637C29.6528 44.8216 29.6192 45.028 29.5665 45.2372C29.4786 45.5857 29.3109 45.903 29.1847 46.2365C29.1414 46.3509 29.0679 46.4607 29.1077 46.6227C29.3216 46.6089 29.4592 46.469 29.5966 46.34C29.9175 46.0388 30.1555 45.6671 30.4376 45.3328C30.8314 44.866 31.3092 44.5414 31.9387 44.5151C32.3548 44.4978 32.437 44.6273 32.276 45.011C32.1167 45.3911 31.9481 45.7672 31.7835 46.145C31.816 46.1749 31.8484 46.2047 31.8809 46.2346C31.9899 46.0944 32.0893 45.9453 32.211 45.8173C32.2977 45.726 32.406 45.558 32.5483 45.7073C32.6633 45.828 32.5283 45.9389 32.4428 46.0277C32.2192 46.2601 31.9993 46.4981 31.7287 46.6782C31.5402 46.8036 31.4116 46.9675 31.3197 47.1762C31.1109 47.6504 30.8862 48.1177 30.6666 48.5871C30.6325 48.6601 30.5937 48.7311 30.5531 48.8007C30.3194 49.2018 30.0822 49.3539 29.8355 49.263C29.5704 49.1654 29.4683 48.821 29.5891 48.3835C29.7504 47.7995 30.167 47.4033 30.662 47.0009C30.2724 47.0334 30.048 46.8754 29.9342 46.5256C29.7468 46.6505 29.5838 46.7691 29.411 46.8713C29.2465 46.9686 29.0676 47.0263 28.8955 46.887C28.7254 46.7491 28.7317 46.5703 28.8023 46.3838C28.9326 46.0392 29.0632 45.6947 29.2041 45.3264ZM12.5493 44.3209C12.8151 43.7039 13.1131 43.0994 13.3148 42.4569C13.0872 42.3307 12.8842 42.3391 12.6764 42.3688C11.1193 42.5916 9.64063 44.1653 9.51209 45.7592C9.48659 46.0753 9.56403 46.3946 9.85391 46.5803C10.1299 46.7571 10.4062 46.6493 10.6644 46.4959C11.5173 45.9892 12.0579 45.2098 12.5493 44.3209ZM31.8608 44.8368C31.1014 44.9704 30.6258 45.4459 30.3359 46.1279C30.2713 46.2798 30.2173 46.4871 30.3796 46.6076C30.5548 46.7377 30.7269 46.6092 30.8821 46.5097C30.9203 46.4852 30.9547 46.4534 30.987 46.4211C31.3985 46.0103 31.6922 45.5215 31.9283 44.9948C31.9523 44.9413 31.9674 44.8858 31.8608 44.8368ZM18.5714 46.144C18.5439 46.3114 18.4717 46.4947 18.6418 46.6214C18.7529 46.7041 18.8935 46.6686 19.0005 46.5968C19.62 46.1816 19.9055 45.5485 20.1866 44.8154C19.3714 44.9859 18.8877 45.4238 18.5714 46.144ZM21.0763 46.1996C20.9207 46.3492 20.8966 46.4794 21.1128 46.6034C21.4288 46.7845 21.7241 46.7613 21.8265 46.507C21.9734 46.1423 21.9049 45.7647 21.8961 45.2912C21.5813 45.6401 21.3446 45.9024 21.0763 46.1996ZM23.7365 45.5072C23.477 45.8084 23.1823 46.0816 22.9667 46.4507C23.168 46.6398 23.3898 46.7677 23.6502 46.69C23.9009 46.6153 23.917 46.3679 23.9223 46.1466C23.9275 45.929 23.9249 45.7104 23.908 45.4936C23.8949 45.3249 23.8211 45.4175 23.7365 45.5072ZM30.1996 48.7605C30.4329 48.2913 30.6661 47.8221 30.8993 47.3529C30.3377 47.6346 29.9675 48.0444 29.8681 48.6547C29.8534 48.7449 29.8187 48.8467 29.9169 48.9063C30.0389 48.9803 30.104 48.8788 30.1996 48.7605Z" fill="#212121"/>
<path d="M47.3476 46.735C46.7465 47.1222 46.1656 47.1729 45.592 46.7417C45.4892 46.6645 45.4102 46.6714 45.3123 46.7346C45.245 46.7781 45.1706 46.8114 45.0972 46.8446C44.4949 47.117 44.1872 46.9618 43.9842 46.2686C43.6434 46.3825 43.3035 46.4538 43.0822 45.9876C42.8717 46.1912 42.683 46.3698 42.4991 46.5531C42.3423 46.7093 42.174 46.8466 41.9624 46.9215C41.6004 47.0497 41.3581 46.848 41.4334 46.4732C41.502 46.1322 41.6558 45.8203 41.7899 45.502C41.8512 45.3568 41.944 45.221 41.9341 44.9824C41.6076 45.2653 41.347 45.5437 41.1011 45.8363C40.879 46.1006 40.6879 46.3928 40.4189 46.6147C40.2953 46.7165 40.1632 46.8121 40.0229 46.8886C39.8664 46.974 39.6919 47.0142 39.5366 46.8829C39.3826 46.7527 39.3845 46.5798 39.4482 46.4072C39.5796 46.0507 39.7217 45.6981 39.8507 45.3408C39.8953 45.2174 39.992 45.0953 39.899 44.9324C39.6381 44.9203 39.4622 45.0838 39.2903 45.2477C38.851 45.6669 38.5536 46.1885 38.2439 46.7018C38.1788 46.8099 38.1251 47.0074 37.951 46.9125C37.7926 46.8261 37.8955 46.6676 37.949 46.5438C38.1044 46.1844 38.2625 45.8261 38.4201 45.4677C38.4853 45.3195 38.5332 45.171 38.4579 44.9897C38.1308 45.0836 37.9935 45.3689 37.7801 45.5653C37.6506 45.6844 37.5536 46.0045 37.3494 45.8413C37.1375 45.6719 37.4255 45.5037 37.5284 45.3666C37.6721 45.1752 37.8541 45.009 38.0359 44.8507C38.2036 44.7048 38.3996 44.5857 38.6349 44.6824C38.8632 44.7764 38.8145 45.0026 38.8425 45.2231C39.1154 45.0279 39.2991 44.7462 39.617 44.6511C39.7973 44.5972 39.9765 44.5254 40.1356 44.68C40.2845 44.8247 40.2769 45.0048 40.2303 45.1954C40.142 45.5562 39.9641 45.8819 39.8411 46.2287C39.7998 46.3451 39.7252 46.4537 39.747 46.6192C39.9627 46.6166 40.1074 46.49 40.2336 46.3486C40.6018 45.9362 40.9596 45.5145 41.327 45.1012C41.4334 44.9816 41.5522 44.8709 41.6762 44.7694C41.8174 44.654 41.9808 44.5921 42.1535 44.7016C42.3387 44.819 42.3089 45.003 42.2522 45.1675C42.1472 45.472 42.0199 45.7688 41.9037 46.0695C41.8388 46.2376 41.7774 46.407 41.6999 46.6148C41.968 46.6278 42.1072 46.4882 42.2456 46.3628C42.7085 45.9431 43.118 45.4765 43.4598 44.9517C43.5204 44.8587 43.5774 44.7164 43.7188 44.792C43.8494 44.8618 43.7917 44.9923 43.7461 45.0989C43.6556 45.3105 43.5573 45.5188 43.4706 45.7319C43.4354 45.8186 43.4259 45.9187 43.5085 45.9879C43.5922 46.058 43.6832 46.0219 43.7665 45.9764C43.9951 45.8514 44.1683 45.677 44.2838 45.4382C44.4702 45.0529 44.7456 44.7528 45.1531 44.5892C45.3662 44.5036 45.5601 44.5071 45.7164 44.6963C45.8777 44.8917 45.8153 45.0811 45.6914 45.2671C45.5452 45.487 45.3374 45.6262 45.0975 45.7225C44.9158 45.7954 44.7242 45.8481 44.5512 45.9373C44.3249 46.0539 44.3152 46.2704 44.3884 46.4765C44.4659 46.6948 44.6473 46.6658 44.8234 46.6032C45.3136 46.4291 45.6312 46.0428 45.9594 45.6721C46.2496 45.3443 46.5303 45.0082 46.8165 44.6769C46.8915 44.5901 46.9705 44.478 47.1022 44.5628C47.2166 44.6364 47.1494 44.7459 47.1212 44.8439C46.9688 45.3736 47.0851 45.9106 47.031 46.5167C47.768 46.1199 48.1246 45.4952 48.5027 44.9274C48.4795 44.8164 48.4279 44.79 48.3737 44.7697C48.2907 44.7387 48.2285 44.6913 48.2446 44.5933C48.2612 44.4931 48.3527 44.4596 48.427 44.4685C48.7911 44.512 48.8976 44.2606 49.0028 43.9945C49.0704 43.8232 49.1487 43.6559 49.227 43.4891C49.2722 43.3928 49.3337 43.2874 49.4593 43.3411C49.5858 43.3953 49.5415 43.5181 49.515 43.6148C49.4426 43.8784 49.2614 44.1054 49.2424 44.3942C49.4006 44.5121 49.5849 44.4208 49.7453 44.4733C49.8119 44.4952 49.8835 44.5183 49.8897 44.6003C49.8974 44.7018 49.824 44.7372 49.7391 44.7545C49.7167 44.7591 49.6931 44.7579 49.6706 44.7625C49.4463 44.8079 49.1314 44.6352 49.0112 44.9171C48.8052 45.3998 48.5671 45.8887 48.6338 46.4411C48.6556 46.6219 48.7978 46.6154 48.9256 46.5609C49.099 46.4868 49.2246 46.3464 49.3458 46.2077C49.6339 45.8781 49.9155 45.5428 50.2027 45.2124C50.3008 45.0996 50.4 44.9856 50.5122 44.8875C50.952 44.5031 51.1866 44.5545 51.4035 45.0747C52.1121 44.3865 52.5158 44.3327 52.6751 45.2732C52.835 45.2376 52.9062 45.0931 53.0159 44.9998C53.1382 44.8957 53.2387 44.7642 53.3919 44.6996C53.6051 44.6097 53.829 44.4928 54.0402 44.6754C54.25 44.8569 54.1842 45.0995 54.1097 45.318C54.0095 45.612 53.8793 45.8956 53.7739 46.1879C53.7332 46.3006 53.6548 46.4146 53.7059 46.5474C53.8841 46.6209 53.9771 46.4859 54.0694 46.4027C54.3607 46.1398 54.6238 45.853 54.7994 45.4923C54.9904 45.0999 55.2621 44.7758 55.6765 44.6002C55.895 44.5076 56.105 44.5017 56.2697 44.7101C56.4296 44.9123 56.3469 45.0963 56.2262 45.2801C55.9916 45.6372 55.5971 45.7253 55.2386 45.8744C55.123 45.9225 54.9796 45.9431 54.9448 46.0874C54.9045 46.2547 54.8645 46.4356 55.0084 46.5761C55.1373 46.7019 55.2915 46.6506 55.4296 46.5899C55.852 46.404 56.1736 46.0923 56.4562 45.7372C56.7077 45.421 56.9697 45.1138 57.2763 44.8504C57.4448 44.7058 57.6423 44.5813 57.8747 44.6863C58.0905 44.7838 58.0596 45.0055 58.0746 45.2373C58.3365 45.0327 58.5249 44.7741 58.8227 44.6669C58.9982 44.6038 59.1737 44.5256 59.3462 44.6617C59.5308 44.8075 59.5174 45.0152 59.4576 45.2016C59.3489 45.5409 59.2066 45.8693 59.0833 46.2041C59.0372 46.3293 58.9533 46.4487 59.0094 46.6589C59.8087 46.264 60.101 45.4662 60.6001 44.884C60.5574 44.7736 60.4963 44.772 60.441 44.7603C60.3681 44.7449 60.3032 44.7108 60.3028 44.63C60.3023 44.5309 60.3869 44.4752 60.4638 44.4818C60.8775 44.5169 60.9795 44.2179 61.0925 43.9216C61.1335 43.8142 61.1824 43.7088 61.2386 43.6087C61.306 43.4887 61.324 43.2595 61.5226 43.34C61.7254 43.4223 61.5831 43.5939 61.5331 43.7249C61.4521 43.9373 61.3657 44.1477 61.2849 44.3507C61.4799 44.5673 61.8391 44.3167 61.955 44.6401C61.8384 44.8235 61.6575 44.7721 61.5107 44.7579C61.2019 44.7279 61.0454 44.8614 60.9566 45.1453C60.8468 45.4966 60.7046 45.8391 60.6669 46.2082C60.6538 46.3366 60.6058 46.5041 60.7735 46.5741C60.9178 46.6343 61.0479 46.5515 61.1493 46.4558C61.3164 46.2983 61.4717 46.1279 61.6291 45.9602C61.6999 45.8848 61.7586 45.7977 61.8321 45.7253C61.8911 45.6672 61.9725 45.6264 62.0498 45.6845C62.1478 45.7582 62.1068 45.8496 62.0497 45.9275C61.8175 46.2442 61.574 46.5529 61.2525 46.7842C61.0585 46.9238 60.8358 46.9996 60.6027 46.8838C60.357 46.7617 60.3352 46.5262 60.3468 46.2886C60.3545 46.1301 60.3791 45.9724 60.4021 45.7595C60.1714 46.0285 59.9737 46.2624 59.7721 46.4929C59.6346 46.6501 59.4787 46.7849 59.2875 46.8761C59.1251 46.9535 58.9633 47.0088 58.7986 46.8901C58.6271 46.7665 58.6509 46.5922 58.6891 46.419C58.7742 46.0338 58.9647 45.6871 59.0956 45.3186C59.1401 45.1933 59.2285 45.0686 59.1035 44.9173C58.8854 44.9239 58.7346 45.0721 58.5814 45.2035C58.1455 45.5776 57.855 46.0631 57.5688 46.5509C57.5279 46.6204 57.4903 46.6921 57.4453 46.7588C57.3825 46.8517 57.3221 46.991 57.1842 46.9194C57.0309 46.8397 57.107 46.7009 57.158 46.5862C57.3124 46.2388 57.4738 45.8945 57.6254 45.5459C57.6979 45.3792 57.7689 45.2072 57.6912 44.9976C57.4683 45.0312 57.3522 45.193 57.2247 45.3342C56.9083 45.6847 56.5974 46.04 56.2797 46.3893C56.1233 46.5612 55.9321 46.6926 55.7286 46.8021C55.1648 47.1054 54.8592 47.0155 54.5427 46.4537C54.3532 46.5198 54.2348 46.6854 54.0757 46.7929C53.8912 46.9177 53.6941 47.0476 53.4759 46.8859C53.2726 46.7354 53.3152 46.5164 53.3877 46.3164C53.5094 45.981 53.6489 45.652 53.7762 45.3185C53.8235 45.1944 53.9058 45.0665 53.7752 44.9145C53.5514 44.9354 53.3885 45.0828 53.2288 45.2263C52.829 45.5856 52.5279 46.0185 52.2992 46.5034C52.2501 46.6075 52.2006 46.7118 52.1435 46.8116C52.0905 46.9039 52.0201 46.9981 51.8978 46.9439C51.7536 46.8799 51.7863 46.7579 51.8416 46.6496C52.0519 46.2375 52.229 45.8135 52.3013 45.3536C52.3238 45.2105 52.3888 45.0329 52.234 44.9404C52.069 44.8419 51.9534 45.0036 51.854 45.1005C51.4116 45.532 51.11 46.0646 50.8118 46.5982C50.7725 46.6686 50.739 46.7425 50.6966 46.8109C50.6459 46.8926 50.5809 46.9687 50.4735 46.912C50.3695 46.857 50.3844 46.7549 50.4203 46.6684C50.491 46.4984 50.5805 46.3362 50.6498 46.1657C50.7987 45.7993 51.0257 45.4552 51.0129 45.0081C50.767 45.0227 50.6478 45.1794 50.5248 45.3223C50.2242 45.6715 49.9301 46.0262 49.6299 46.3758C49.54 46.4804 49.4471 46.5855 49.3409 46.6725C49.1041 46.8663 48.8438 47.0561 48.5298 46.8731C48.2377 46.7029 48.2463 46.3969 48.2765 46.1019C48.2834 46.0345 48.2996 45.968 48.3244 45.8283C47.9833 46.167 47.7229 46.497 47.3476 46.735ZM46.0122 46.6334C46.4547 46.761 46.6244 46.7136 46.6909 46.3909C46.7585 46.0624 46.7352 45.7249 46.7032 45.308C46.3902 45.6675 46.139 45.9637 45.879 46.2519C45.7215 46.4263 45.7826 46.5308 46.0122 46.6334ZM45.3088 44.891C44.9696 44.9644 44.7916 45.1991 44.6458 45.5246C44.9511 45.4898 45.1586 45.3553 45.3371 45.1805C45.4119 45.1073 45.5577 45.001 45.3088 44.891ZM55.6112 44.9853C55.4453 45.1343 55.2819 45.2853 55.1812 45.5411C55.5558 45.4381 55.8487 45.3099 56.007 44.9816C55.8556 44.8528 55.7532 44.8936 55.6112 44.9853Z" fill="#212121"/>
<path d="M23.059 20.9155C22.3819 21.6411 21.5851 22.0001 20.6029 21.9073C20.3179 21.8803 20.1343 22.0007 20.1403 22.3186C20.1423 22.4222 20.1503 22.527 20.1389 22.6294C20.1127 22.8639 20.2165 22.9682 20.4463 22.9808C20.9633 23.0092 21.4811 23.0324 21.9963 23.081C22.6037 23.1384 23.2096 23.2176 23.7847 23.4393C23.9674 23.5097 24.1928 23.5807 24.1945 23.8079C24.1963 24.0536 23.9599 24.1324 23.767 24.2009C22.8768 24.5172 21.9424 24.5752 21.0127 24.6224C19.6765 24.6903 18.3415 24.6494 17.0179 24.4283C16.6545 24.3676 16.2932 24.2893 15.9635 24.115C15.8405 24.0499 15.7197 23.9649 15.7269 23.8023C15.7339 23.6415 15.8589 23.5647 15.9857 23.5066C16.5595 23.2436 17.1778 23.16 17.795 23.09C18.2518 23.0382 18.7132 23.0182 19.1731 23.0059C19.4787 22.9977 19.6647 22.9128 19.6137 22.5619C19.5973 22.4491 19.6079 22.3318 19.6109 22.2166C19.6214 21.8146 19.4523 21.5441 19.0671 21.3919C18.2725 21.0779 17.7655 20.4993 17.5696 19.665C17.4578 19.1889 17.5772 19.0739 18.055 19.1611C19.0566 19.3438 19.6389 20.0317 19.6619 21.0625C19.6661 21.249 19.6446 21.4484 19.9661 21.4311C20.2202 20.5129 20.7707 19.8511 21.725 19.5817C22.4436 19.3788 23.1634 19.3493 23.9471 19.5391C23.7172 20.0707 23.4425 20.5121 23.059 20.9155Z" fill="#212121"/>
<path d="M45.1686 39.2621C45.4534 39.6409 45.8038 39.8544 46.2578 39.8979C46.3986 39.9114 46.5936 39.9054 46.5932 40.1145C46.5928 40.3536 46.3849 40.3253 46.2324 40.3261C45.1034 40.332 43.9743 40.3329 42.8453 40.3299C42.7034 40.3295 42.5249 40.3696 42.4611 40.1804C42.401 40.0021 42.553 39.9439 42.6688 39.871C42.8027 39.7868 42.7913 39.6624 42.7589 39.5335C42.6902 39.2605 42.5444 39.0239 42.3921 38.794C41.2601 37.0846 40.1269 35.3761 38.9873 33.6718C38.7286 33.2849 38.4451 32.9166 37.9069 32.9136C37.7882 32.913 37.7206 32.834 37.727 32.7065C37.7342 32.5617 37.8385 32.5542 37.9466 32.5469C39.0973 32.4688 40.249 32.487 41.4004 32.5164C41.5319 32.5197 41.7289 32.4802 41.7671 32.6875C41.8012 32.8723 41.6331 32.8989 41.5135 32.962C41.2946 33.0773 41.3443 33.267 41.4 33.4456C41.4837 33.7138 41.6632 33.93 41.8145 34.1605C42.9267 35.8551 44.0405 37.5486 45.1686 39.2621Z" fill="#212121"/>
<path d="M18.1709 35.4759C18.1595 35.1781 18.1925 34.913 18.1284 34.6509C17.9463 33.9072 17.2792 33.5219 16.5405 33.7439C16.3517 33.8006 16.1767 33.8984 16.045 33.6377C15.9204 33.3909 16.1065 33.3004 16.2397 33.1902C16.9999 32.5609 17.8448 32.2084 18.8555 32.4087C19.6396 32.5642 20.1361 33.0695 20.2769 33.8631C20.3617 34.3404 20.3878 34.823 20.3936 35.3056C20.4078 36.5032 20.4035 37.701 20.422 38.8985C20.4282 39.2994 20.5191 39.6795 20.9146 39.901C21.0303 39.9658 21.0657 40.0742 21.0267 40.1976C20.9873 40.3224 20.8732 40.3246 20.7699 40.3248C19.7793 40.3263 18.7888 40.3257 17.7982 40.3248C17.6916 40.3247 17.5865 40.3128 17.5435 40.1918C17.5048 40.0828 17.5187 39.9712 17.6219 39.9168C18.1619 39.632 18.1442 39.1009 18.1586 38.6197C18.1896 37.5839 18.1699 36.5467 18.1709 35.4759Z" fill="#212121"/>
<path d="M16.1851 40.0667C16.1805 40.3009 16.036 40.3263 15.8754 40.3263C14.9085 40.3264 13.9417 40.3261 12.9748 40.3248C12.8575 40.3246 12.7413 40.3172 12.69 40.1812C12.6471 40.0672 12.6745 39.9655 12.7771 39.9125C13.3074 39.6387 13.2968 39.1126 13.3078 38.649C13.3407 37.2685 13.325 35.8867 13.3176 34.5055C13.3154 34.0995 13.1432 33.7732 12.7736 33.5697C12.6197 33.4849 12.4624 33.3944 12.5024 33.178C12.5411 32.9683 12.7321 32.9738 12.8806 32.9388C13.63 32.7621 14.383 32.6008 15.131 32.4185C15.4302 32.3456 15.5163 32.444 15.515 32.739C15.5067 34.6152 15.5133 36.4914 15.5086 38.3676C15.5079 38.6457 15.5509 38.9169 15.5817 39.1909C15.6262 39.586 15.9339 39.7895 16.1851 40.0667Z" fill="#212121"/>
<path d="M23.0975 32.4958C23.604 32.5008 24.0763 32.4974 24.5477 32.5165C24.6707 32.5215 24.8505 32.4922 24.8947 32.6715C24.9398 32.8543 24.7885 32.9011 24.6573 32.9516C24.481 33.0195 24.427 33.1597 24.4242 33.3358C24.419 33.6576 24.5422 33.9423 24.6737 34.2245C25.2183 35.3925 25.7603 36.5618 26.3129 37.7261C26.415 37.9413 26.4231 38.1311 26.3306 38.3511C26.0856 38.9343 25.8598 39.5257 25.6225 40.1122C25.5596 40.2678 25.5249 40.4616 25.2989 40.4649C25.0718 40.4683 25.0332 40.2693 24.9636 40.12C24.0098 38.0761 23.0599 36.0305 22.1092 33.9851C21.8801 33.4921 21.68 32.9737 21.0279 32.8959C20.9305 32.8842 20.8709 32.7976 20.8904 32.6888C20.9148 32.5532 21.0261 32.5541 21.1309 32.5456C21.774 32.4936 22.4184 32.4909 23.0975 32.4958Z" fill="#212121"/>
<path d="M48.2803 24.9832C46.4037 25.1118 44.5698 25.0453 42.7501 24.6967C42.6187 24.6715 42.483 24.655 42.4767 24.4923C42.4586 24.0239 42.4379 23.5545 42.4906 23.1153C42.6143 23.0274 42.7063 23.0649 42.7938 23.0815C44.8207 23.4672 46.8597 23.4933 48.909 23.3129C49.4602 23.2644 50.0086 23.2161 50.5446 23.0745C50.7527 23.0195 50.8489 23.0855 50.8455 23.3066C50.8399 23.6749 50.8419 24.0433 50.8444 24.4116C50.8456 24.5791 50.766 24.6534 50.6027 24.6863C49.846 24.8387 49.0838 24.9441 48.2803 24.9832Z" fill="#212121"/>
<path d="M44.2157 27.0862C43.6905 27.0462 43.2066 26.947 42.72 26.8589C42.529 26.8244 42.461 26.7425 42.461 26.569C42.4608 26.2008 42.4623 25.8326 42.4611 25.4643C42.4604 25.2425 42.5659 25.1945 42.772 25.239C44.6671 25.648 46.5832 25.6321 48.5044 25.5162C49.2054 25.4739 49.9032 25.417 50.5847 25.2343C50.7674 25.1854 50.8421 25.2709 50.8416 25.4475C50.8403 25.8273 50.8388 26.207 50.841 26.5867C50.842 26.7526 50.7708 26.8192 50.6016 26.8552C48.7042 27.2592 46.786 27.2405 44.864 27.1516C44.6577 27.142 44.4522 27.1128 44.2157 27.0862Z" fill="#212121"/>
<path d="M50.7053 29.0051C48.54 29.4518 46.382 29.4406 44.22 29.2624C43.7179 29.2211 43.2163 29.143 42.7228 29.0214C42.5461 28.9779 42.4592 28.9118 42.461 28.7298C42.4645 28.3615 42.4601 27.9931 42.4648 27.6248C42.4672 27.4404 42.5355 27.3676 42.7476 27.4088C45.2123 27.8882 47.6858 27.8519 50.1612 27.5022C50.8465 27.4054 50.859 27.3929 50.8368 28.1148C50.8277 28.4091 50.9612 28.7289 50.7053 29.0051Z" fill="#212121"/>
<path d="M47.7802 22.8347C46.0765 22.8561 44.4076 22.8864 42.7613 22.517C42.5282 22.4647 42.4447 22.3743 42.4606 22.1551C42.4912 21.7372 42.4021 21.3109 42.5216 20.8894C45.292 21.3509 48.0351 21.3572 50.8333 20.8818C50.8333 21.3797 50.8374 21.8474 50.8309 22.3149C50.8289 22.4635 50.7053 22.4765 50.5869 22.504C49.6745 22.7157 48.7473 22.7976 47.7802 22.8347Z" fill="#212121"/>
<path d="M32.9411 28.6214C33.01 29.0315 32.8477 29.1531 32.472 29.2164C29.9287 29.6449 27.3927 29.6348 24.8558 29.1767C24.6754 29.1442 24.5947 29.0683 24.5977 28.884C24.6038 28.5159 24.6032 28.1476 24.5983 27.7795C24.5956 27.579 24.6749 27.5159 24.8742 27.5574C26.2888 27.8522 27.7241 27.9272 29.1628 27.9044C30.3231 27.886 31.4832 27.8217 32.6237 27.5733C32.7098 27.5545 32.7998 27.5124 32.9117 27.5753C32.978 27.9019 32.9262 28.2466 32.9411 28.6214Z" fill="#212121"/>
<path d="M33.5154 28.2155C33.5309 27.9781 33.4769 27.7686 33.5723 27.5386C36.3106 28.0271 39.0534 28.0503 41.8532 27.5295C41.8532 28.034 41.8549 28.5128 41.852 28.9914C41.8512 29.1277 41.7441 29.1487 41.6381 29.1699C40.0367 29.4895 38.4179 29.5701 36.7907 29.5049C35.8359 29.4666 34.8848 29.3953 33.9429 29.207C33.6007 29.1385 33.467 29.0019 33.5125 28.6636C33.5308 28.5278 33.5154 28.3875 33.5154 28.2155Z" fill="#212121"/>
<path d="M26.2449 25.6157C28.4848 25.7634 30.6899 25.8112 32.9307 25.3433C32.9307 25.8529 32.9324 26.3308 32.9295 26.8087C32.9287 26.9434 32.8265 26.9636 32.7179 26.9867C30.9347 27.3669 29.1306 27.382 27.3211 27.2972C26.5044 27.259 25.692 27.1904 24.8918 27.0011C24.6859 26.9523 24.5885 26.884 24.594 26.6684C24.6026 26.3231 24.599 25.9774 24.5956 25.6319C24.5936 25.4266 24.6575 25.3422 24.8866 25.3888C25.3259 25.4783 25.771 25.5385 26.2449 25.6157Z" fill="#212121"/>
<path d="M37.2035 27.3344C36.052 27.3054 34.9386 27.2513 33.841 27.0078C33.6052 26.9555 33.5026 26.883 33.5123 26.6336C33.5284 26.2222 33.5167 25.8098 33.5167 25.3569C36.2989 25.8425 39.0412 25.8545 41.8465 25.3651C41.8465 25.8734 41.8531 26.3609 41.8423 26.8481C41.8392 26.9848 41.6988 26.9686 41.6007 26.9909C40.1631 27.3168 38.7017 27.34 37.2035 27.3344Z" fill="#212121"/>
<path d="M41.2109 24.901C38.7148 25.2627 36.2517 25.2791 33.7936 24.8277C33.6697 24.805 33.5238 24.7992 33.5221 24.6246C33.5175 24.1556 33.5205 23.6866 33.5205 23.1816C36.3063 23.6772 39.0482 23.6883 41.8493 23.187C41.8493 23.689 41.8526 24.1768 41.8468 24.6644C41.8455 24.781 41.7388 24.7992 41.6473 24.8173C41.5118 24.8442 41.376 24.8694 41.2109 24.901Z" fill="#212121"/>
<path d="M16.4935 26.0358C17.8725 26.212 19.2271 26.2818 20.5858 26.25C21.6896 26.2241 22.7916 26.1647 23.8799 25.9574C23.9459 25.9448 24.0145 25.9456 24.149 25.9347C24.149 26.3577 24.1515 26.7651 24.1476 27.1725C24.1463 27.3105 24.038 27.3185 23.931 27.3409C23.3217 27.4687 22.7045 27.5438 22.0851 27.5793C20.0837 27.6941 18.085 27.7146 16.1 27.3525C15.887 27.3137 15.7967 27.2455 15.8098 27.0281C15.8312 26.6751 15.7794 26.3185 15.85 25.9238C16.0649 25.9613 16.2641 25.9961 16.4935 26.0358Z" fill="#212121"/>
<path d="M20.2585 29.5261C18.8432 29.5131 17.4642 29.4824 16.1009 29.217C15.889 29.1757 15.802 29.1074 15.8093 28.8906C15.8211 28.5377 15.8124 28.1841 15.8124 27.7869C16.4563 27.9013 17.0469 27.9669 17.6391 28.0203C19.213 28.1624 20.7854 28.1617 22.359 28.0186C22.8745 27.9717 23.3911 27.937 23.8967 27.8189C24.0829 27.7754 24.1544 27.8531 24.1534 28.0299C24.1527 28.145 24.1553 28.2601 24.1553 28.3752C24.1554 29.21 24.1559 29.2142 23.3216 29.3234C22.3165 29.455 21.3052 29.5004 20.2585 29.5261Z" fill="#212121"/>
<path d="M43.2083 17.5702C44.4874 17.8114 45.7519 17.8382 47.0182 17.8286C48.2817 17.8191 49.5411 17.7574 50.8002 17.4106C50.8781 17.8001 50.8447 18.1427 50.8344 18.4831C50.83 18.6305 50.714 18.6537 50.5933 18.6775C48.8202 19.0279 47.0303 19.0578 45.2322 18.9828C44.4018 18.9482 43.585 18.8305 42.7686 18.6887C42.5606 18.6525 42.4513 18.575 42.4627 18.3605C42.4788 18.0568 42.4253 17.7468 42.5127 17.4245C42.7581 17.4755 42.9689 17.5194 43.2083 17.5702Z" fill="#212121"/>
<path d="M29.6576 22.3133C30.762 22.281 31.8239 22.1726 32.9053 21.9106C32.9657 22.2841 32.9362 22.6263 32.9316 22.9665C32.9295 23.1226 32.7997 23.134 32.6871 23.1573C31.1433 23.4773 29.5811 23.5309 28.0115 23.4831C26.986 23.4518 25.9644 23.397 24.9566 23.177C24.6993 23.1208 24.5662 23.0309 24.5933 22.7508C24.6185 22.4908 24.5693 22.2249 24.6413 21.9159C26.2932 22.3129 27.956 22.3502 29.6576 22.3133Z" fill="#212121"/>
<path d="M35.0895 20.0167C36.6003 20.1903 38.0848 20.1934 39.5676 20.0915C40.2428 20.0451 40.9191 19.9632 41.5777 19.7868C41.655 19.7661 41.7296 19.7303 41.8302 19.7887C41.8869 20.1157 41.854 20.4592 41.8495 20.8012C41.8474 20.9601 41.7202 20.9568 41.6048 20.9815C40.8261 21.1482 40.0386 21.2558 39.2441 21.284C37.424 21.3485 35.6053 21.3729 33.8076 20.989C33.5989 20.9445 33.5034 20.881 33.5123 20.6625C33.5239 20.3768 33.5151 20.0903 33.5151 19.7524C34.0555 19.8431 34.5572 19.9274 35.0895 20.0167Z" fill="#212121"/>
<path d="M46.2592 20.6879C45.0605 20.6741 43.9044 20.5862 42.7594 20.3589C42.5432 20.316 42.4513 20.2323 42.4627 20.0266C42.4772 19.765 42.4175 19.4979 42.5106 19.2389C42.6926 19.1525 42.8535 19.2609 43.0155 19.2884C44.773 19.5873 46.5412 19.6055 48.3146 19.5097C49.0735 19.4687 49.8298 19.4056 50.5715 19.2265C50.746 19.1844 50.8366 19.254 50.8388 19.435C50.8391 19.458 50.8401 19.4811 50.8415 19.5041C50.8894 20.2986 50.8866 20.2834 50.1103 20.4292C48.8471 20.6665 47.5714 20.6837 46.2592 20.6879Z" fill="#212121"/>
<path d="M34.1883 22.7409C33.511 22.5783 33.5094 22.5783 33.5162 21.8929C33.5174 21.7702 33.4849 21.6386 33.5793 21.5239C36.3199 21.9905 39.0636 21.9876 41.8198 21.529C41.8903 21.8494 41.8531 22.1593 41.851 22.4671C41.85 22.6302 41.7169 22.6203 41.6056 22.647C40.7961 22.8414 39.9714 22.9361 39.1432 22.9601C37.4973 23.0076 35.8501 23.0282 34.1883 22.7409Z" fill="#212121"/>
<path d="M31.2698 23.9307C31.83 23.8988 32.3451 23.7705 32.9085 23.6812C32.9672 24.0203 32.9394 24.3379 32.929 24.6535C32.9245 24.7906 32.8044 24.8021 32.7037 24.8232C31.1149 25.1552 29.5063 25.2043 27.8914 25.1516C26.9015 25.1193 25.9151 25.0603 24.9414 24.8479C24.6682 24.7882 24.5719 24.6799 24.5925 24.413C24.61 24.1873 24.5961 23.9591 24.5961 23.6772C26.833 24.1079 29.0324 24.1322 31.2698 23.9307Z" fill="#212121"/>
<path d="M20.9138 25.7579C19.2904 25.8237 17.7073 25.7579 16.1326 25.5002C15.8584 25.4554 15.7851 25.3368 15.8089 25.0927C15.8265 24.9118 15.7809 24.7258 15.8602 24.5059C18.5985 24.9198 21.3449 24.9335 24.098 24.5044C24.1983 24.7792 24.1458 25.0436 24.1459 25.3033C24.1459 25.4641 24.0124 25.4605 23.899 25.4821C22.9233 25.6679 21.9384 25.7504 20.9138 25.7579Z" fill="#212121"/>
<path d="M34.8804 46.7752C35.0551 46.7069 35.2063 46.6514 35.3511 46.5824C35.6827 46.4244 35.8164 46.1836 35.818 45.7912C35.8223 44.7039 36.1327 43.6841 36.6434 42.7267C36.7466 42.5332 36.8861 42.3608 37.074 42.2401C37.2403 42.1333 37.4149 42.0374 37.6218 42.1344C37.8386 42.236 37.9008 42.432 37.9099 42.6466C37.9268 43.0451 37.8124 43.4232 37.6764 43.7883C37.3697 44.6115 36.9683 45.3862 36.3984 46.0623C36.1983 46.2997 36.0654 46.5194 36.4028 46.7492C36.4737 46.7975 36.509 46.8779 36.4526 46.9595C36.3995 47.0362 36.3174 47.0351 36.2346 47.0107C36.0646 46.9607 35.9979 46.8021 35.8824 46.6683C35.701 46.7007 35.5659 46.8343 35.4058 46.9144C35.0184 47.1082 34.6273 47.1985 34.2196 46.9757C33.8588 46.7784 33.6942 46.3766 33.8356 46.0418C33.8724 45.9548 33.9135 45.8613 34.0276 45.8792C34.1421 45.8973 34.153 45.9938 34.1531 46.0917C34.1538 46.6514 34.2948 46.7895 34.8804 46.7752ZM37.2094 44.092C37.3869 43.702 37.4832 43.2874 37.5726 42.8715C37.6063 42.7149 37.6499 42.523 37.457 42.4504C37.2942 42.389 37.1857 42.5365 37.0941 42.6545C37.0237 42.745 36.9624 42.8434 36.9047 42.9428C36.5119 43.6192 36.3018 44.3569 36.1895 45.1248C36.1564 45.3516 36.0575 45.5807 36.1661 45.846C36.6065 45.312 36.934 44.7483 37.2094 44.092Z" fill="#212121"/>
<path d="M28.6319 33.4017C28.1708 33.944 27.8726 34.552 27.5979 35.1748C27.5432 35.2988 27.5161 35.501 27.297 35.4111C27.115 35.3364 27.1505 35.1777 27.1815 35.0256C27.2751 34.5672 27.4304 34.1194 27.3128 33.6345C27.2174 33.2413 27.0005 33.005 26.6022 32.9376C26.4532 32.9124 26.2798 32.9043 26.3029 32.6897C26.323 32.5018 26.4943 32.5034 26.6245 32.5025C27.5332 32.496 28.4421 32.4972 29.3508 32.5022C29.473 32.5028 29.6192 32.5057 29.6302 32.6867C29.64 32.8497 29.5345 32.91 29.3951 32.9267C29.0755 32.9648 28.8496 33.1533 28.6319 33.4017Z" fill="#212121"/>
<path d="M40.3813 40.3299C39.6574 40.3293 38.968 40.3322 38.2787 40.3253C38.1308 40.3239 37.9204 40.3885 37.8897 40.1543C37.8593 39.9231 38.0685 39.9208 38.2183 39.889C38.7739 39.7712 39.1845 39.4178 39.571 39.0403C39.8577 38.7603 40.106 38.4411 40.3746 38.1423C40.4477 38.061 40.5165 37.9324 40.655 38.0169C40.7856 38.0967 40.8337 38.2177 40.7715 38.373C40.7032 38.5433 40.632 38.714 40.5837 38.8904C40.4465 39.3911 40.6417 39.7235 41.1404 39.8521C41.2624 39.8836 41.3872 39.9059 41.5117 39.9256C41.6489 39.9473 41.7624 39.9876 41.7406 40.1596C41.7212 40.3131 41.604 40.326 41.4844 40.3268C41.1282 40.3289 40.772 40.329 40.3813 40.3299Z" fill="#212121"/>
<path d="M44.8768 32.4947C45.279 32.5047 45.6468 32.5112 46.0142 32.5266C46.1413 32.532 46.2406 32.5948 46.2319 32.7402C46.2244 32.8652 46.1321 32.9125 46.0186 32.9242C44.9422 33.0353 44.2705 33.7724 43.5854 34.4917C43.4702 34.6128 43.4052 34.8902 43.1793 34.7626C42.9385 34.6266 43.1329 34.4189 43.1904 34.2446C43.2228 34.1464 43.2604 34.0498 43.2925 33.9515C43.4943 33.333 43.3237 33.0464 42.6842 32.9327C42.547 32.9084 42.3857 32.9034 42.3907 32.7138C42.3964 32.5013 42.5784 32.5568 42.7048 32.5427C43.4157 32.4632 44.1296 32.5074 44.8768 32.4947Z" fill="#212121"/>
<path d="M47.963 4.12151C48.1324 3.91365 48.2294 3.71572 48.0461 3.48379C48.2117 3.41715 48.2968 3.5166 48.3606 3.59703C48.8485 4.21261 48.9284 5.36372 47.9676 5.74659C47.5786 5.90158 47.4435 5.79288 47.3342 5.39772C47.1602 4.76827 47.569 4.47305 47.963 4.12151Z" fill="#212121"/>
<path d="M45.8469 4.49421C45.7693 4.6055 45.6786 4.71069 45.616 4.83058C45.4789 5.09336 45.3032 5.05164 45.1176 4.90377C44.8136 4.66159 44.7202 4.21843 44.873 3.78987C44.9818 3.48481 45.4045 3.16828 45.7749 3.15186C45.4861 3.47676 45.6552 3.77364 45.7799 4.07347C45.8285 4.19048 45.8734 4.30843 45.8488 4.46752C45.8457 4.49571 45.8466 4.49479 45.8469 4.49421Z" fill="#212121"/>
<path d="M51.9469 6.62798C52.0204 6.74514 52.0966 6.83633 52.0576 7.00173C51.6931 6.76523 51.4027 6.99323 51.0936 7.14344C50.7603 7.30545 50.525 7.05719 50.2808 6.91014C50.1327 6.82095 50.232 6.64635 50.2872 6.53968C50.4649 6.19627 51.1472 6.03366 51.4731 6.2491C51.6345 6.35586 51.7796 6.48742 51.9469 6.62798Z" fill="#212121"/>
<path d="M50.2108 4.85214C50.0214 5.29963 49.7055 5.45822 49.2468 5.43171C49.0331 5.41937 48.9907 5.31344 48.975 5.16253C48.9333 4.76058 49.4476 4.22532 49.8559 4.23449C50.359 4.24579 50.5664 4.32838 50.73 4.61042C50.5018 4.57398 50.34 4.65882 50.2108 4.85214Z" fill="#212121"/>
<path d="M41.1133 8.55879C41.2211 8.09271 41.6922 7.80337 42.2394 7.84355C42.5278 7.86473 42.7923 8.1669 42.8413 8.54027C42.4867 8.79923 42.1261 8.93529 41.7189 8.62537C41.5408 8.48977 41.3346 8.50289 41.1133 8.55879Z" fill="#212121"/>
<path d="M44.7004 9.95891C44.6378 9.94005 44.6004 9.91869 44.5421 9.8908C44.2454 9.73616 44.0933 9.51774 44.0952 9.19252C44.0964 8.99086 43.9986 8.8257 43.7695 8.73168C44.236 8.53264 44.6854 8.71724 44.9406 9.15841C45.0966 9.42809 45.0148 9.73179 44.7004 9.95891Z" fill="#212121"/>
<path d="M26.8932 43.303C26.8978 43.4787 26.8293 43.5696 26.6752 43.5764C26.5827 43.5804 26.5234 43.5238 26.499 43.4409C26.4655 43.3272 26.5154 43.2329 26.6084 43.1753C26.7335 43.0979 26.8244 43.157 26.8932 43.303Z" fill="#212121"/>
</svg>
