<svg width="72" height="72" viewBox="0 0 72 72" fill="none" xmlns="http://www.w3.org/2000/svg">
<path d="M56.8126 25.8749H34.3126C33.6912 25.8749 33.1875 26.3786 33.1875 27V31.5C33.1875 32.1214 33.6912 32.625 34.3126 32.625H56.8126C57.4338 32.625 57.9375 32.1214 57.9375 31.5V27C57.9375 26.3786 57.4338 25.8749 56.8126 25.8749Z" fill="#3751FF" fill-opacity="0.25"/>
<path d="M64.6875 14.6251H28.6875C27.9486 14.6242 27.2168 14.7693 26.534 15.0517C25.8513 15.3341 25.2308 15.7484 24.7083 16.2709C24.1859 16.7934 23.7716 17.4137 23.4892 18.0966C23.2067 18.7794 23.0618 19.5111 23.0625 20.25V59.85C23.8455 59.0618 24.7772 58.4372 25.8036 58.0123C26.8302 57.5874 27.9309 57.3707 29.0419 57.3751H68.0625V18C68.0625 17.105 67.7069 16.2465 67.0739 15.6135C66.4411 14.9806 65.5826 14.6251 64.6875 14.6251ZM39.9375 43.8751C39.9375 43.5767 40.056 43.2905 40.267 43.0796C40.478 42.8685 40.7641 42.75 41.0625 42.75H50.0625C50.3609 42.75 50.647 42.8685 50.858 43.0796C51.069 43.2905 51.1875 43.5767 51.1875 43.8751C51.1875 44.1733 51.069 44.4595 50.858 44.6706C50.647 44.8815 50.3609 45 50.0625 45H41.0625C40.7641 45 40.478 44.8815 40.267 44.6706C40.056 44.4595 39.9375 44.1733 39.9375 43.8751ZM60.1875 31.5C60.1875 32.3951 59.8319 33.2535 59.199 33.8865C58.566 34.5195 57.7076 34.8751 56.8125 34.8751H34.3125C33.4173 34.8751 32.5589 34.5195 31.926 33.8865C31.293 33.2535 30.9375 32.3951 30.9375 31.5V27C30.9375 26.105 31.293 25.2465 31.926 24.6135C32.5589 23.9806 33.4173 23.6251 34.3125 23.6251H56.8125C57.7076 23.6251 58.566 23.9806 59.199 24.6135C59.8319 25.2465 60.1875 26.105 60.1875 27V31.5Z" fill="#3751FF" fill-opacity="0.25"/>
<path d="M23.0625 65.25C23.1127 66.7877 23.7701 68.2428 24.8907 69.2971C26.0113 70.3513 27.504 70.9186 29.0419 70.8749H65.8125C66.4087 70.8732 66.9799 70.6356 67.4015 70.214C67.8231 69.7924 68.0606 69.2211 68.0625 68.6249V66.3749H32.0625C31.7641 66.3749 31.478 66.2564 31.267 66.0455C31.056 65.8344 30.9374 65.5483 30.9374 65.25C30.9374 64.9516 31.056 64.6655 31.267 64.4545C31.478 64.2434 31.7641 64.1249 32.0625 64.1249H68.0625V59.6249H29.0419C27.5036 59.5801 26.0103 60.147 24.8894 61.2015C23.7686 62.2559 23.1116 63.7119 23.0625 65.25Z" fill="#3751FF" fill-opacity="0.25"/>
<path d="M56.8125 1.125H36.5625C35.686 1.12746 34.8223 1.33546 34.0408 1.73228C33.2593 2.12909 32.5817 2.70368 32.0625 3.40988C31.5433 2.70368 30.8658 2.12909 30.0843 1.73228C29.3027 1.33546 28.439 1.12746 27.5625 1.125H7.31251C6.4174 1.125 5.55895 1.48058 4.92602 2.11352C4.29309 2.74645 3.93751 3.6049 3.9375 4.5V49.5C3.93751 50.3951 4.29309 51.2535 4.92602 51.8865C5.55895 52.5194 6.4174 52.8749 7.31251 52.8749H27.0968L31.2671 57.0454C31.4781 57.2562 31.7642 57.3747 32.0625 57.3747C32.3608 57.3747 32.6469 57.2562 32.8579 57.0454L37.0283 52.8749H56.8125C57.7076 52.8749 58.566 52.5194 59.199 51.8865C59.8319 51.2535 60.1875 50.3951 60.1875 49.5V4.5C60.1875 3.6049 59.8319 2.74645 59.199 2.11352C58.566 1.48058 57.7076 1.125 56.8125 1.125ZM6.1875 49.5V4.5C6.1875 4.20163 6.30603 3.91548 6.51701 3.7045C6.72799 3.49352 7.01413 3.375 7.31251 3.375H27.5625C28.4576 3.375 29.316 3.73058 29.949 4.36352C30.5819 4.99645 30.9375 5.8549 30.9375 6.75V50.625H7.31251C7.01413 50.625 6.72799 50.5065 6.51701 50.2955C6.30603 50.0845 6.1875 49.7984 6.1875 49.5ZM32.0625 54.6592L30.2783 52.8749H33.8468L32.0625 54.6592ZM57.9375 49.5C57.9375 49.7984 57.819 50.0845 57.608 50.2955C57.3971 50.5065 57.1109 50.625 56.8125 50.625H33.1875V6.75C33.1875 5.8549 33.5431 4.99645 34.176 4.36352C34.8089 3.73058 35.6674 3.375 36.5625 3.375H56.8125C57.1109 3.375 57.3971 3.49352 57.608 3.7045C57.819 3.91548 57.9375 4.20163 57.9375 4.5V49.5Z" fill="#0F062B"/>
<path d="M25.3125 16.8749H12.9374C12.6391 16.8749 12.3529 16.9935 12.142 17.2045C11.931 17.4155 11.8125 17.7016 11.8125 18C11.8125 18.2984 11.931 18.5845 12.142 18.7955C12.3529 19.0064 12.6391 19.125 12.9374 19.125H25.3125C25.6109 19.125 25.897 19.0064 26.108 18.7955C26.319 18.5845 26.4374 18.2984 26.4374 18C26.4374 17.7016 26.319 17.4155 26.108 17.2045C25.897 16.9935 25.6109 16.8749 25.3125 16.8749Z" fill="#0F062B"/>
<path d="M25.3125 25.8749H12.9374C12.6391 25.8749 12.3529 25.9935 12.142 26.2045C11.931 26.4155 11.8125 26.7016 11.8125 27C11.8125 27.2984 11.931 27.5845 12.142 27.7955C12.3529 28.0064 12.6391 28.125 12.9374 28.125H25.3125C25.6109 28.125 25.897 28.0064 26.108 27.7955C26.319 27.5845 26.4374 27.2984 26.4374 27C26.4374 26.7016 26.319 26.4155 26.108 26.2045C25.897 25.9935 25.6109 25.8749 25.3125 25.8749Z" fill="#0F062B"/>
<path d="M25.3125 34.8749H12.9374C12.6391 34.8749 12.3529 34.9935 12.142 35.2045C11.931 35.4155 11.8125 35.7016 11.8125 36C11.8125 36.2984 11.931 36.5845 12.142 36.7955C12.3529 37.0064 12.6391 37.125 12.9374 37.125H25.3125C25.6109 37.125 25.897 37.0064 26.108 36.7955C26.319 36.5845 26.4374 36.2984 26.4374 36C26.4374 35.7016 26.319 35.4155 26.108 35.2045C25.897 34.9935 25.6109 34.8749 25.3125 34.8749Z" fill="#0F062B"/>
<path d="M52.3125 16.8749H39.9374C39.6391 16.8749 39.3529 16.9935 39.1419 17.2045C38.931 17.4155 38.8125 17.7016 38.8125 18C38.8125 18.2984 38.931 18.5845 39.1419 18.7955C39.3529 19.0064 39.6391 19.125 39.9374 19.125H52.3125C52.6109 19.125 52.897 19.0064 53.108 18.7955C53.319 18.5845 53.4374 18.2984 53.4374 18C53.4374 17.7016 53.319 17.4155 53.108 17.2045C52.897 16.9935 52.6109 16.8749 52.3125 16.8749Z" fill="#0F062B"/>
<path d="M52.3125 25.8749H39.9374C39.6391 25.8749 39.3529 25.9935 39.1419 26.2045C38.931 26.4155 38.8125 26.7016 38.8125 27C38.8125 27.2984 38.931 27.5845 39.1419 27.7955C39.3529 28.0064 39.6391 28.125 39.9374 28.125H52.3125C52.6109 28.125 52.897 28.0064 53.108 27.7955C53.319 27.5845 53.4374 27.2984 53.4374 27C53.4374 26.7016 53.319 26.4155 53.108 26.2045C52.897 25.9935 52.6109 25.8749 52.3125 25.8749Z" fill="#0F062B"/>
<path d="M52.3125 34.8749H39.9374C39.6391 34.8749 39.3529 34.9935 39.1419 35.2045C38.931 35.4155 38.8125 35.7016 38.8125 36C38.8125 36.2984 38.931 36.5845 39.1419 36.7955C39.3529 37.0064 39.6391 37.125 39.9374 37.125H52.3125C52.6109 37.125 52.897 37.0064 53.108 36.7955C53.319 36.5845 53.4374 36.2984 53.4374 36C53.4374 35.7016 53.319 35.4155 53.108 35.2045C52.897 34.9935 52.6109 34.8749 52.3125 34.8749Z" fill="#0F062B"/>
</svg>
