<svg width="76" height="76" viewBox="0 0 76 76" fill="none" xmlns="http://www.w3.org/2000/svg">
<path d="M66 0H10C4.47715 0 0 4.47715 0 10V66C0 71.5229 4.47715 76 10 76H66C71.5229 76 76 71.5229 76 66V10C76 4.47715 71.5229 0 66 0Z" fill="#3751FF"/>
<path d="M30.7463 45.0985C29.3755 43.7276 27.1453 43.7276 25.7745 45.0985C24.826 46.0468 20.9584 52.567 18 58.0001C23.4322 55.0424 29.7979 51.0188 30.7463 50.0703C32.1172 48.6995 32.1172 46.4693 30.7463 45.0985Z" fill="white"/>
<path d="M47.3982 28.6032C46.4846 27.6896 44.9971 27.6896 44.0836 28.6032C43.17 29.5167 43.17 31.0042 44.0836 31.9178C44.9971 32.8314 46.4846 32.8314 47.3982 31.9178C48.3118 31.0042 48.3118 29.5168 47.3982 28.6032Z" fill="white"/>
<path d="M30.4121 34.8188C29.2063 37.5203 28.9522 39.4292 28.793 39.8288L36.1584 47.1943C36.3133 47.1329 38.3183 46.7833 41.1158 45.5226L30.4121 34.8188Z" fill="white"/>
<path d="M57.9983 18C56.4115 18.3159 46.7799 16.3141 36.8281 25.9187C34.348 28.3123 32.6969 30.6023 31.5352 32.6307L43.3079 44.4034C45.4201 43.2163 47.7723 41.5604 50.0795 39.1702C59.6636 29.2405 57.6872 19.5626 57.9983 18ZM39.9373 37.7183L38.2799 36.0609L39.9373 34.4036L41.5946 36.0609L39.9373 37.7183ZM49.0522 33.575C47.2218 35.4056 44.2537 35.4056 42.4233 33.575C40.5926 31.7445 40.5926 28.7765 42.4233 26.946C44.2537 25.1154 47.2218 25.1154 49.0522 26.946C50.8829 28.7765 50.8829 31.7445 49.0522 33.575ZM51.5382 26.1173L49.8809 24.46L51.5382 22.8026L53.1956 24.46L51.5382 26.1173Z" fill="white"/>
<path d="M35.5882 49.9407L34.7256 49.078L33.3945 54.4019L42.7847 49.7068L43.4662 46.9814C39.8772 48.8332 38.4694 48.8759 35.5882 49.9407Z" fill="white"/>
<path d="M28.9011 32.5625L26.2927 33.2148L21.5977 42.605L26.9216 41.2739L26.0419 40.3943C27.3176 37.0262 27.0363 36.1905 28.9011 32.5625Z" fill="white"/>
</svg>
