<svg width="65" height="72" viewBox="0 0 65 72" fill="none" xmlns="http://www.w3.org/2000/svg">
<g clip-path="url(#clip0_3447_6564)">
<path d="M12.6878 64.2306C26.8041 64.2306 36.4979 71.5429 43.3 71.5429C50.102 71.5429 64.3877 67.6326 64.3877 36.3408C64.3877 5.04896 45.1694 0.455078 37.6877 0.455078C2.65303 0.455078 -12.3123 64.2306 12.6878 64.2306Z" fill="#F1F1F1"/>
<path d="M47.121 40.4916C47.121 40.7711 46.9048 40.9916 46.6292 40.9916H35.2537L41.67 56.2038L35.3333 58.959L28.7803 43.4263L20.3762 50.8529C20.2966 50.9324 20.1803 50.9732 20.0619 50.9732C19.7864 50.9732 19.5701 50.7528 19.5701 50.4732V13.5406C19.5701 13.2609 19.7864 13.0405 20.0619 13.0405C20.2007 13.0405 20.317 13.0997 20.417 13.1793L46.9843 40.1324C47.0619 40.2324 47.121 40.3528 47.121 40.4916Z" fill="#3751FF" fill-opacity="0.25"/>
<path d="M24.1619 16.9794L20.417 13.1793C20.319 13.0997 20.2007 13.0405 20.0619 13.0405C19.7864 13.0405 19.5701 13.2609 19.5701 13.5406V50.4753C19.5701 50.7548 19.7864 50.9753 20.0619 50.9753C20.1803 50.9753 20.2986 50.9345 20.3762 50.8548L24.1619 47.5079V16.9794Z" fill="#3751FF" fill-opacity="0.25"/>
<path d="M49.1626 65.5918C47.4748 65.5918 46.1013 64.2183 46.1013 62.5305C46.1013 60.8427 47.4748 59.4692 49.1626 59.4692C50.8503 59.4692 52.2237 60.8427 52.2237 62.5305C52.2237 64.2183 50.8503 65.5918 49.1626 65.5918ZM49.1626 61.5101C48.5993 61.5101 48.1422 61.9673 48.1422 62.5305C48.1422 63.0938 48.5993 63.5509 49.1626 63.5509C49.7258 63.5509 50.183 63.0938 50.183 62.5305C50.183 61.9673 49.7258 61.5101 49.1626 61.5101Z" fill="black"/>
<path d="M12.7498 6.0295L14.1928 4.58643L17.0789 7.47258L15.6359 8.91565L12.7498 6.0295Z" fill="black"/>
<path d="M12.3904 15.77L15.2766 12.8838L16.7197 14.3268L13.8334 17.2131L12.3904 15.77Z" fill="black"/>
<path d="M20.6873 7.47501L23.5734 4.58887L25.0164 6.03195L22.1303 8.91809L20.6873 7.47501Z" fill="black"/>
<path d="M35.3366 60.4893C35.1427 60.4893 34.9509 60.4526 34.7672 60.3791C34.3876 60.2281 34.0856 59.9301 33.9264 59.5526L28.1999 45.9832L21.3938 51.9995C21.108 52.2934 20.5958 52.5036 20.0652 52.5036C18.9509 52.5036 18.0427 51.5934 18.0427 50.473V13.5403C18.0427 12.4199 18.9509 11.5098 20.0652 11.5098C20.5366 11.5098 20.9937 11.675 21.3815 11.9893L48.0774 39.0587C48.4938 39.571 48.655 40.0219 48.655 40.4914C48.655 41.6097 47.7469 42.522 46.6326 42.522H37.5652L43.0835 55.6098C43.4101 56.3832 43.0529 57.273 42.2836 57.6077L35.9468 60.3628C35.7529 60.4465 35.5448 60.4893 35.3366 60.4893ZM28.7836 41.8955C28.8978 41.8955 29.0101 41.9077 29.1243 41.9343C29.6039 42.0444 30.004 42.3771 30.1937 42.8322L36.1469 56.9383L39.6754 55.4036L33.8489 41.5852C33.6489 41.1138 33.6998 40.5709 33.9835 40.1444C34.2672 39.7179 34.7468 39.4608 35.2591 39.4608H44.1876L21.104 16.0547V48.175L27.7693 42.2791C28.0509 42.0301 28.4141 41.8955 28.7836 41.8955ZM19.4101 49.673C19.3673 49.7057 19.3285 49.7403 19.2917 49.777L19.4101 49.673Z" fill="black"/>
</g>
<defs>
<clipPath id="clip0_3447_6564">
<rect width="64.8" height="72" fill="white"/>
</clipPath>
</defs>
</svg>
