<svg width="76" height="76" viewBox="0 0 76 76" fill="none" xmlns="http://www.w3.org/2000/svg">
<path d="M66 0H10C4.47715 0 0 4.47715 0 10V66C0 71.5229 4.47715 76 10 76H66C71.5229 76 76 71.5229 76 66V10C76 4.47715 71.5229 0 66 0Z" fill="black"/>
<path d="M40.1047 51.3758C40.7448 51.3121 41.2121 50.7416 41.1485 50.1014C41.0848 49.4612 40.5142 48.9939 39.874 49.0576C39.2339 49.1213 38.7666 49.6919 38.8303 50.3321C38.894 50.9722 39.4645 51.4395 40.1047 51.3758Z" fill="white"/>
<path d="M38.3993 55.7468C39.0427 55.7468 39.5643 55.2253 39.5643 54.5819C39.5643 53.9385 39.0427 53.417 38.3993 53.417C37.756 53.417 37.2344 53.9385 37.2344 54.5819C37.2344 55.2253 37.756 55.7468 38.3993 55.7468Z" fill="white"/>
<path d="M33.5188 54.7898C34.1589 54.7261 34.6262 54.1555 34.5625 53.5154C34.4988 52.8752 33.9283 52.4079 33.2881 52.4716C32.648 52.5353 32.1806 53.1059 32.2443 53.746C32.308 54.3862 32.8786 54.8535 33.5188 54.7898Z" fill="white"/>
<path d="M37.3259 50.8898C36.1748 49.7509 35.5409 48.2374 35.5409 46.6283C35.5409 45.8226 35.6998 45.0409 36.003 44.3181L34.2564 42.5898C33.5741 43.8123 33.2109 45.1924 33.2109 46.6284C33.2109 48.8645 34.0903 50.966 35.6871 52.546C35.9142 52.7707 36.2103 52.8829 36.5064 52.8829C36.8066 52.8829 37.1067 52.7676 37.3345 52.5373C37.787 52.0799 37.7832 51.3423 37.3259 50.8898Z" fill="white"/>
<path d="M31.3457 39.71L18.3456 52.5738C17.8882 53.0264 17.8843 53.7639 18.3368 54.2212C18.7523 54.5736 19.4586 54.7149 19.9843 54.23L33.0019 41.3488L31.3457 39.71Z" fill="white"/>
<path d="M38.7868 32.1628V43.7937L39.666 44.6638C40.0281 45.0221 40.6112 45.0221 40.9733 44.6638L41.8313 43.8147V29.0366L38.7812 32.0548C38.7845 32.0904 38.7868 32.1264 38.7868 32.1628Z" fill="white"/>
<path d="M36.4549 34.355L33.5179 37.2612C33.1503 37.6248 33.1503 38.2187 33.5179 38.5823L36.4549 41.4885V34.355Z" fill="white"/>
<path d="M56.9063 20.2534C56.8382 20.2534 56.7686 20.2598 56.6982 20.2731L47.105 22.089C46.2364 22.2534 45.909 23.3251 46.5374 23.9469L54.2955 31.6237C55.0165 32.2188 55.9791 31.8679 56.1445 31.052L57.9797 21.5594C58.1132 20.8687 57.5761 20.2533 56.9063 20.2534Z" fill="white"/>
<path d="M47.2049 27.8848L45.7532 26.4484C45.3911 26.0901 44.808 26.0901 44.4459 26.4484L44.1602 26.7311V41.5092L47.208 38.4933C47.2069 38.4728 47.2049 38.4525 47.2049 38.4317V27.8848Z" fill="white"/>
<path d="M49.5352 36.1913L51.8998 33.8514C52.2674 33.4878 52.2674 32.8939 51.8998 32.5303L49.5352 30.1904V36.1913Z" fill="white"/>
</svg>
