<svg width="66" height="72" viewBox="0 0 66 72" fill="none" xmlns="http://www.w3.org/2000/svg">
<g clip-path="url(#clip0_3447_6577)">
<path d="M51.8235 7.30142C37.735 7.56425 27.9209 0.445626 21.1323 0.573981C14.3438 0.702336 0.155461 4.87082 0.74019 36.1059C1.32492 67.3411 20.5924 71.5646 28.0615 71.426C63.0291 70.772 76.7774 6.83486 51.8235 7.30142Z" fill="#F1F1F1"/>
<path d="M55.556 23.2666V52.8087C55.556 55.0497 53.7223 56.8834 51.4812 56.8834H13.7897C11.5485 56.8834 9.71484 55.0497 9.71484 52.8087V23.2666H55.556Z" fill="#F1F1F1"/>
<path d="M55.556 19.1919V23.2667H9.71484V19.1919C9.71484 16.9508 11.5485 15.1172 13.7897 15.1172H51.4812C53.7223 15.1172 55.556 16.9508 55.556 19.1919Z" fill="#3751FF" fill-opacity="0.25"/>
<path d="M14.299 52.8087V23.2666H9.71484V52.8087C9.71484 55.0497 11.5485 56.8834 13.7897 56.8834H18.3737C16.1327 56.8834 14.299 55.0497 14.299 52.8087Z" fill="#F1F1F1"/>
<path d="M18.3737 15.1172H13.7897C11.5485 15.1172 9.71484 16.9508 9.71484 19.1919V23.2667H14.299V19.1919C14.299 16.9508 16.1327 15.1172 18.3737 15.1172Z" fill="#3751FF" fill-opacity="0.25"/>
<path d="M32.6358 38.5469C34.6049 38.5469 36.2012 36.9506 36.2012 34.9815C36.2012 33.0123 34.6049 31.416 32.6358 31.416C30.6666 31.416 29.0703 33.0123 29.0703 34.9815C29.0703 36.9506 30.6666 38.5469 32.6358 38.5469Z" fill="#3751FF" fill-opacity="0.25"/>
<path d="M37.2196 43.6406H28.0513C25.8001 43.6406 23.9766 45.464 23.9766 47.7154V50.7714H41.2944V47.7154C41.2944 45.464 39.4709 43.6406 37.2196 43.6406Z" fill="#3751FF" fill-opacity="0.25"/>
<path d="M58.043 10.0249L60.9243 7.14355L62.3649 8.5842L59.4837 11.4655L58.043 10.0249Z" fill="#F1F1F1"/>
<path d="M49.7578 8.22287L51.1985 6.78223L54.0798 9.66348L52.6392 11.1042L49.7578 8.22287Z" fill="#F1F1F1"/>
<path d="M58.0391 16.507L59.4797 15.0664L62.361 17.9477L60.9204 19.3884L58.0391 16.507Z" fill="#F1F1F1"/>
<path d="M32.6364 40.0746C29.829 40.0746 27.543 37.7907 27.543 34.9812C27.543 32.1716 29.829 29.8877 32.6364 29.8877C35.446 29.8877 37.7299 32.1716 37.7299 34.9812C37.7299 37.7907 35.446 40.0746 32.6364 40.0746ZM32.6364 32.9437C31.5139 32.9437 30.5991 33.8565 30.5991 34.9812C30.5991 36.1058 31.5139 37.0186 32.6364 37.0186C33.7591 37.0186 34.6738 36.1058 34.6738 34.9812C34.6738 33.8565 33.7591 32.9437 32.6364 32.9437Z" fill="black"/>
<path d="M42.8231 50.7712H39.7669V47.7151C39.7669 46.3113 38.624 45.1683 37.2202 45.1683H28.052C26.6483 45.1683 25.5053 46.3113 25.5053 47.7151V50.7712H22.4492V47.7151C22.4492 44.6244 24.9613 42.1123 28.052 42.1123H37.2202C40.3109 42.1123 42.8231 44.6244 42.8231 47.7151V50.7712Z" fill="black"/>
<path d="M51.4819 58.4113H13.7903C10.6996 58.4113 8.1875 55.8992 8.1875 52.8085V19.1917C8.1875 16.1009 10.6996 13.5889 13.7903 13.5889H51.4819C54.5726 13.5889 57.0847 16.1009 57.0847 19.1917V52.8085C57.0847 55.8992 54.5726 58.4113 51.4819 58.4113ZM13.7903 16.645C12.3866 16.645 11.2436 17.7879 11.2436 19.1917V52.8085C11.2436 54.2123 12.3866 55.3553 13.7903 55.3553H51.4819C52.8857 55.3553 54.0287 54.2123 54.0287 52.8085V19.1917C54.0287 17.7879 52.8857 16.645 51.4819 16.645H13.7903Z" fill="black"/>
<path d="M9.71484 21.7383H55.556V24.7944H9.71484V21.7383Z" fill="black"/>
<path d="M0.0390625 55.355H65.2353V58.411H0.0390625V55.355Z" fill="black"/>
</g>
<defs>
<clipPath id="clip0_3447_6577">
<rect width="65.7" height="72" fill="white"/>
</clipPath>
</defs>
</svg>
