<svg width="65" height="72" viewBox="0 0 65 72" fill="none" xmlns="http://www.w3.org/2000/svg">
<g clip-path="url(#clip0_3447_6614)">
<path d="M12.5683 64.3755C26.7571 64.3755 36.5007 71.7253 43.3375 71.7253C50.1745 71.7253 64.5334 67.795 64.5334 36.3427C64.5334 4.89039 45.2166 0.272949 37.6965 0.272949C2.48219 0.272949 -12.5598 64.3755 12.5683 64.3755Z" fill="#F1F1F1"/>
<path d="M39.9182 5.51619L42.8192 2.61523L44.2696 4.06571L41.3687 6.96666L39.9182 5.51619Z" fill="black"/>
<path d="M31.5745 3.69803L33.0249 2.24756L35.9259 5.14851L34.4754 6.59899L31.5745 3.69803Z" fill="black"/>
<path d="M39.9182 12.0413L41.3687 10.5908L44.2696 13.4917L42.8191 14.9422L39.9182 12.0413Z" fill="black"/>
<path d="M24.4522 66.3653C22.7558 66.3653 21.3752 64.9848 21.3752 63.2883C21.3752 61.5919 22.7558 60.2114 24.4522 60.2114C26.1486 60.2114 27.5291 61.5919 27.5291 63.2883C27.5291 64.9848 26.1506 66.3653 24.4522 66.3653ZM24.4522 62.2627C23.8861 62.2627 23.4265 62.7222 23.4265 63.2883C23.4265 63.8544 23.8861 64.314 24.4522 64.314C25.0184 64.314 25.4778 63.8544 25.4778 63.2883C25.4778 62.7222 25.0184 62.2627 24.4522 62.2627Z" fill="black"/>
<path d="M16.4103 59.0771H11.2821C10.1497 59.0771 9.23071 58.1581 9.23071 57.0258V29.3335C9.23071 28.2012 10.1497 27.2822 11.2821 27.2822H16.4103C17.5426 27.2822 18.4616 28.2012 18.4616 29.3335V57.0258C18.4616 58.154 17.5384 59.0771 16.4103 59.0771Z" fill="#3751FF" fill-opacity="0.25"/>
<path d="M47.1831 29.3331H35.4497C35.4497 29.3331 37.501 26.2562 37.501 21.128C37.501 14.9741 34.4241 12.9229 32.3728 12.9229C30.3215 12.9229 29.2959 13.9485 29.2959 19.0767C29.2959 26.2562 19.0395 31.3844 19.0395 31.3844L18.4651 31.6716V53.5382L19.0395 53.9485C19.0395 53.9485 26.2189 59.0766 41.6035 59.0766H44.8857C48.8856 59.0766 52.2908 56.2049 52.9677 52.2664L55.2651 38.9331C56.1267 33.9074 52.2703 29.3331 47.1831 29.3331Z" fill="#F1F1F1"/>
<path d="M13.8461 57.0258V29.3335C13.8461 28.2012 14.7651 27.2822 15.8974 27.2822H11.282C10.1497 27.2822 9.23071 28.2012 9.23071 29.3335V57.0258C9.23071 58.1581 10.1497 59.0771 11.282 59.0771H15.8974C14.7651 59.0771 13.8461 58.1581 13.8461 57.0258Z" fill="#3751FF" fill-opacity="0.25"/>
<path d="M23.6548 53.9485L23.0805 53.5382V31.6716L23.6548 31.3844C23.6548 31.3844 33.9112 26.2562 33.9112 19.0767C33.9112 16.2685 34.2313 14.7157 34.8466 13.8624C34.02 13.2059 33.1277 12.9229 32.3728 12.9229C30.3215 12.9229 29.2959 13.9485 29.2959 19.0767C29.2959 26.2562 19.0395 31.3844 19.0395 31.3844L18.4651 31.6716V53.5382L19.0395 53.9485C19.0395 53.9485 26.2189 59.0766 41.6035 59.0766H44.8857C44.9718 59.0766 45.0518 59.0562 45.1359 59.0541C30.5123 58.8183 23.6548 53.9485 23.6548 53.9485Z" fill="#F1F1F1"/>
<path d="M16.4096 60.6154H11.2814C9.30186 60.6154 7.69165 59.0052 7.69165 57.0257V29.3334C7.69165 27.3539 9.30186 25.7437 11.2814 25.7437H16.4096C18.3891 25.7437 19.9993 27.3539 19.9993 29.3334V57.0257C19.9993 59.0052 18.3891 60.6154 16.4096 60.6154ZM11.2814 28.8206C10.9983 28.8206 10.7686 29.0503 10.7686 29.3334V57.0257C10.7686 57.3088 10.9983 57.5385 11.2814 57.5385H16.4096C16.6885 57.5385 16.9224 57.3047 16.9224 57.0257V29.3334C16.9224 29.0503 16.6927 28.8206 16.4096 28.8206H11.2814Z" fill="black"/>
<path d="M44.8855 60.6156H41.6033C25.907 60.6156 18.4546 55.4217 18.1449 55.2002L17.5706 54.7899L19.3593 52.2853L19.9336 52.6956C19.9972 52.7407 26.99 57.5366 41.6033 57.5366H44.8855C48.1388 57.5366 50.8998 55.2104 51.4516 52.0043L53.749 38.671C54.0834 36.7243 53.5459 34.7427 52.2762 33.2371C51.0085 31.7335 49.1521 30.8719 47.1829 30.8719H35.4495C34.8834 30.8719 34.3603 30.5602 34.0937 30.0597C33.8249 29.5591 33.8557 28.952 34.1695 28.4802C34.1819 28.4597 35.9623 25.674 35.9623 21.1283C35.9623 16.2381 33.8167 14.4617 32.3726 14.4617C31.6157 14.4617 30.8341 14.4617 30.8341 19.0771C30.8341 27.114 20.1818 32.5335 19.7264 32.7612L19.1521 33.0484L17.7757 30.2956L18.35 30.0084C18.4424 29.9633 27.7551 25.2145 27.7551 19.0771C27.7551 15.3561 28.1121 11.3848 32.3705 11.3848C34.6762 11.3848 39.0373 13.4217 39.0373 21.1283C39.0373 23.9633 38.4547 26.236 37.8762 27.795H47.1808C50.0588 27.795 52.7747 29.0565 54.627 31.2555C56.4834 33.4565 57.267 36.3509 56.7788 39.196L54.4814 52.5294C53.6772 57.2146 49.6423 60.6156 44.8855 60.6156Z" fill="black"/>
</g>
<defs>
<clipPath id="clip0_3447_6614">
<rect width="64.8" height="72" fill="white"/>
</clipPath>
</defs>
</svg>
