<svg width="72" height="72" viewBox="0 0 72 72" fill="none" xmlns="http://www.w3.org/2000/svg">
<path d="M54.6738 33.4495C53.5538 34.151 52.2198 34.4284 50.9131 34.2312C49.6064 34.0342 48.4134 33.3758 47.5502 32.3752L39.2736 36.6941C39.5684 38.3658 39.4918 40.1737 34.8018 42.9783C34.4843 43.1756 34.12 43.2843 33.7464 43.2933C32.7158 43.296 31.7044 43.0145 30.8231 42.48C29.942 41.9454 29.225 41.1784 28.7512 40.2632C28.2773 39.348 28.0647 38.3198 28.1368 37.2918C28.2089 36.2636 28.5629 35.2751 29.1598 34.435L26.1639 30.187V30.2759H23.8487C23.4345 32.9284 23.5877 35.6384 24.298 38.2274C25.0083 40.8163 26.2598 43.2251 27.9696 45.2947L16.0446 62.9572C15.9618 63.0796 15.9039 63.2172 15.8744 63.362C15.8448 63.5069 15.844 63.6561 15.872 63.8012C15.9002 63.9464 15.9566 64.0845 16.0381 64.2077C16.1197 64.3311 16.2247 64.4371 16.3472 64.5198L23.8082 69.553C23.9308 69.6358 24.0684 69.6936 24.2132 69.723C24.3581 69.7526 24.5074 69.7533 24.6525 69.7251C24.7977 69.6968 24.9358 69.6403 25.059 69.5587C25.1823 69.477 25.2882 69.3719 25.3709 69.2493L37.3487 51.5058C41.7518 52.8131 46.479 52.4857 50.66 50.5839C54.8408 48.6821 58.1939 45.3339 60.1018 41.1558L54.6738 33.4495Z" fill="#3751FF" fill-opacity="0.25"/>
<path d="M65.2521 41.0434C64.5104 41.0436 63.7762 41.1912 63.0921 41.4777L61.0772 38.6213C60.8164 39.4882 60.4939 40.3352 60.1119 41.1559L61.2369 42.7455C60.3334 43.6752 59.7794 44.8888 59.6689 46.1805C59.5584 47.4722 59.8981 48.7623 60.6305 49.832C61.3628 50.9017 62.4426 51.6851 63.6868 52.0492C64.931 52.4135 66.2628 52.336 67.4564 51.8299C68.65 51.324 69.6317 50.4207 70.2351 49.2732C70.8384 48.1259 71.0263 46.8051 70.7667 45.535C70.5071 44.2648 69.8161 43.1236 68.811 42.305C67.8058 41.4862 66.5484 41.0405 65.2521 41.0434Z" fill="#3751FF" fill-opacity="0.25"/>
<path d="M30.826 32.8882C32.0654 32.1143 33.5595 31.8588 34.9857 32.1768C36.4119 32.4948 37.6558 33.3609 38.4491 34.5881L46.4365 30.4256C46.2389 29.8604 46.1341 29.267 46.126 28.6684C46.1226 27.7824 46.3285 26.9083 46.727 26.117C47.1255 25.3258 47.7052 24.6399 48.4189 24.1151C49.1326 23.5903 49.9602 23.2415 50.8343 23.0971C51.7084 22.9527 52.6042 23.0169 53.4487 23.2842C54.2934 23.5516 55.0629 24.0147 55.6945 24.6358C56.3262 25.2569 56.8024 26.0184 57.0841 26.8584C57.3657 27.6982 57.445 28.5929 57.3155 29.4692C57.186 30.3456 56.8513 31.179 56.3388 31.9016L61.0751 38.6178C62.458 33.9832 62.032 28.9965 59.8833 24.6635C57.7344 20.3305 54.0224 16.9735 49.4958 15.2696C44.9693 13.5656 39.9651 13.6415 35.4923 15.482C31.0196 17.3223 27.411 20.7903 25.3945 25.1864L30.826 32.8882Z" fill="#3751FF" fill-opacity="0.25"/>
<path d="M33.7501 41.0434C35.614 41.0434 37.1251 39.5324 37.1251 37.6684C37.1251 35.8045 35.614 34.2934 33.7501 34.2934C31.8861 34.2934 30.375 35.8045 30.375 37.6684C30.375 39.5324 31.8861 41.0434 33.7501 41.0434Z" fill="#3751FF" fill-opacity="0.25"/>
<path d="M51.7501 32.0434C53.614 32.0434 55.1251 30.5324 55.1251 28.6684C55.1251 26.8045 53.614 25.2934 51.7501 25.2934C49.8861 25.2934 48.375 26.8045 48.375 28.6684C48.375 30.5324 49.8861 32.0434 51.7501 32.0434Z" fill="#3751FF" fill-opacity="0.25"/>
<path d="M1.23731 32.7882C1.57358 36.5247 2.65363 40.1563 4.41397 43.4692C6.1743 46.7822 8.57937 49.7097 11.4877 52.0796C14.396 54.4494 17.7488 56.2138 21.349 57.2689C24.9492 58.3239 28.7241 58.6484 32.4515 58.2232C37.4701 57.6485 42.2412 55.7326 46.2636 52.6771C50.2861 49.6215 53.4113 45.5391 55.311 40.8586C57.2108 36.1781 57.815 31.0723 57.0601 26.0777C56.3051 21.0831 54.219 16.3839 51.0209 12.474C48.6607 9.56612 45.739 7.1633 42.4302 5.40888C39.1215 3.65446 35.4932 2.58435 31.762 2.2624C31.2976 2.22521 30.8305 2.28476 30.3903 2.4373C29.9501 2.58983 29.5462 2.83203 29.2044 3.1486C28.8627 3.46515 28.5902 3.84918 28.4043 4.2764C28.2186 4.70363 28.1233 5.16476 28.1249 5.63065V29.1511H4.60444C4.13864 29.1497 3.67764 29.245 3.25055 29.4308C2.82346 29.6168 2.43957 29.8893 2.12313 30.2311C1.8067 30.5729 1.56459 30.9766 1.41213 31.4167C1.25965 31.8568 1.20013 32.3238 1.23731 32.7882ZM3.47831 32.5902C3.46841 32.4368 3.49023 32.2832 3.54241 32.1387C3.5946 31.9941 3.67603 31.862 3.78161 31.7504C3.88719 31.6388 4.01466 31.5501 4.15605 31.49C4.29743 31.43 4.44969 31.3996 4.60331 31.4011H29.2498C29.5482 31.4011 29.8343 31.2825 30.0453 31.0715C30.2563 30.8605 30.3749 30.5744 30.3749 30.276V5.63065C30.3746 5.47726 30.4057 5.32543 30.4663 5.18451C30.5268 5.04358 30.6155 4.91653 30.727 4.81117C30.8385 4.7058 30.9704 4.62434 31.1145 4.5718C31.2586 4.51926 31.412 4.49675 31.5651 4.50565C37.9517 5.07176 43.9008 7.98893 48.2589 12.6917C52.6171 17.3945 55.0741 23.5478 55.1535 29.959C55.233 36.3702 52.9292 42.5826 48.6889 47.3919C44.4485 52.2011 38.5736 55.2648 32.2029 55.9891C28.7731 56.3812 25.2995 56.0833 21.9864 55.1131C18.6734 54.1429 15.5878 52.5199 12.9113 50.3395C10.2348 48.1593 8.02129 45.4656 6.40113 42.4173C4.78097 39.3689 3.78682 36.0273 3.47719 32.5891L3.47831 32.5902Z" fill="#0F062B"/>
<path d="M25.8749 23.5259V20.151C25.8749 19.2558 25.5193 18.3973 24.8864 17.7645C24.2535 17.1315 23.395 16.7759 22.4999 16.7759C21.6049 16.7759 20.7464 17.1315 20.1135 17.7645C19.4806 18.3973 19.125 19.2558 19.125 20.151V23.5259C19.125 24.4211 19.4806 25.2795 20.1135 25.9124C20.7464 26.5454 21.6049 26.901 22.4999 26.901C23.395 26.901 24.2535 26.5454 24.8864 25.9124C25.5193 25.2795 25.8749 24.4211 25.8749 23.5259ZM23.625 23.5259C23.625 23.8243 23.5064 24.1104 23.2954 24.3214C23.0845 24.5325 22.7983 24.651 22.4999 24.651C22.2016 24.651 21.9154 24.5325 21.7045 24.3214C21.4935 24.1104 21.3749 23.8243 21.3749 23.5259V20.151C21.3749 19.8526 21.4935 19.5664 21.7045 19.3555C21.9154 19.1445 22.2016 19.0259 22.4999 19.0259C22.7983 19.0259 23.0845 19.1445 23.2954 19.3555C23.5064 19.5664 23.625 19.8526 23.625 20.151V23.5259Z" fill="#0F062B"/>
<path d="M1.125 15.651V23.5259C1.125 24.4211 1.48058 25.2795 2.11352 25.9124C2.74645 26.5454 3.6049 26.901 4.5 26.901C5.3951 26.901 6.25355 26.5454 6.88648 25.9124C7.51942 25.2795 7.875 24.4211 7.875 23.5259V15.651C7.875 15.2077 7.78771 14.7689 7.61809 14.3594C7.44848 13.9499 7.19989 13.5779 6.88648 13.2645C6.57309 12.9511 6.20103 12.7025 5.79156 12.5328C5.38208 12.3632 4.94321 12.2759 4.5 12.2759C4.05679 12.2759 3.61792 12.3632 3.20844 12.5328C2.79897 12.7025 2.42691 12.9511 2.11352 13.2645C1.80011 13.5779 1.55152 13.9499 1.38191 14.3594C1.21229 14.7689 1.125 15.2077 1.125 15.651ZM3.375 15.651C3.375 15.3526 3.49352 15.0664 3.7045 14.8555C3.91548 14.6445 4.20163 14.5259 4.5 14.5259C4.79837 14.5259 5.08452 14.6445 5.2955 14.8555C5.50648 15.0664 5.625 15.3526 5.625 15.651V23.5259C5.625 23.8243 5.50648 24.1104 5.2955 24.3214C5.08452 24.5325 4.79837 24.651 4.5 24.651C4.20163 24.651 3.91548 24.5325 3.7045 24.3214C3.49352 24.1104 3.375 23.8243 3.375 23.5259V15.651Z" fill="#0F062B"/>
<path d="M16.8749 23.5259V10.0259C16.8749 9.13083 16.5194 8.27239 15.8865 7.63945C15.2535 7.00652 14.3951 6.65094 13.5 6.65094C12.6049 6.65094 11.7465 7.00652 11.1135 7.63945C10.4806 8.27239 10.125 9.13083 10.125 10.0259V23.5259C10.125 24.4211 10.4806 25.2795 11.1135 25.9124C11.7465 26.5454 12.6049 26.9009 13.5 26.9009C14.3951 26.9009 15.2535 26.5454 15.8865 25.9124C16.5194 25.2795 16.8749 24.4211 16.8749 23.5259ZM14.6251 23.5259C14.6251 23.8243 14.5065 24.1104 14.2955 24.3214C14.0845 24.5325 13.7984 24.6509 13.5 24.6509C13.2016 24.6509 12.9155 24.5325 12.7045 24.3214C12.4935 24.1104 12.3749 23.8243 12.3749 23.5259V10.0259C12.3749 9.72757 12.4935 9.44142 12.7045 9.23044C12.9155 9.01946 13.2016 8.90094 13.5 8.90094C13.7984 8.90094 14.0845 9.01946 14.2955 9.23044C14.5065 9.44142 14.6251 9.72757 14.6251 10.0259V23.5259Z" fill="#0F062B"/>
</svg>
