<svg width="72" height="72" viewBox="0 0 72 72" fill="none" xmlns="http://www.w3.org/2000/svg">
<path d="M54.8935 45.7722C54.781 46.1971 54.7858 46.6445 54.9074 47.0668C55.0289 47.4891 55.2628 47.8706 55.584 48.1706C56.06 48.5304 56.5702 48.8426 57.1072 49.1027V43.3086C56.5397 43.4615 56.0286 43.7757 55.6358 44.2128C55.2429 44.6501 54.9851 45.1917 54.8935 45.7722Z" fill="#3751FF" fill-opacity="0.25"/>
<path d="M60.1875 22.0343V31.5001H69.6532L60.1875 22.0343Z" fill="#3751FF" fill-opacity="0.25"/>
<path d="M35.4375 47.25H47.8126V60.75H35.4375V47.25Z" fill="#3751FF" fill-opacity="0.25"/>
<path d="M59.0625 33.75C58.9147 33.75 58.7684 33.721 58.6319 33.6644C58.4955 33.6079 58.3714 33.525 58.2669 33.4205C58.1624 33.3161 58.0796 33.1921 58.023 33.0556C57.9665 32.919 57.9374 32.7727 57.9374 32.6249V21.3749H33.1874C31.6961 21.3768 30.2664 21.97 29.2119 23.0245C28.1574 24.0789 27.5642 25.5087 27.5625 27V67.5C27.5634 68.3947 27.9193 69.2527 28.5521 69.8854C29.1848 70.5181 30.0427 70.874 30.9374 70.8749H66.9375C67.8323 70.874 68.6901 70.5181 69.3229 69.8854C69.9556 69.2527 70.3115 68.3947 70.3125 67.5V33.75H59.0625ZM50.0625 61.8749C50.0625 62.0227 50.0334 62.169 49.9769 62.3056C49.9204 62.4421 49.8376 62.5661 49.7331 62.6705C49.6285 62.775 49.5045 62.8579 49.368 62.9144C49.2315 62.971 49.0853 63 48.9374 63H34.3125C34.1647 63 34.0184 62.971 33.8819 62.9144C33.7454 62.8579 33.6214 62.775 33.5169 62.6705C33.4124 62.5661 33.3296 62.4421 33.273 62.3056C33.2166 62.169 33.1874 62.0227 33.1874 61.8749V46.1249C33.1874 45.9772 33.2166 45.831 33.273 45.6944C33.3296 45.5579 33.4124 45.4338 33.5169 45.3294C33.6214 45.2249 33.7454 45.142 33.8819 45.0856C34.0184 45.029 34.1647 45 34.3125 45H48.9374C49.0853 45 49.2315 45.029 49.368 45.0856C49.5045 45.142 49.6285 45.2249 49.7331 45.3294C49.8376 45.4338 49.9204 45.5579 49.9769 45.6944C50.0334 45.831 50.0625 45.9772 50.0625 46.1249V61.8749ZM48.9374 39.3749H34.3125C34.0141 39.3749 33.728 39.2564 33.517 39.0455C33.306 38.8345 33.1874 38.5484 33.1874 38.25C33.1874 37.9516 33.306 37.6655 33.517 37.4545C33.728 37.2435 34.0141 37.1249 34.3125 37.1249H48.9374C49.2358 37.1249 49.522 37.2435 49.7329 37.4545C49.9439 37.6655 50.0625 37.9516 50.0625 38.25C50.0625 38.5484 49.9439 38.8345 49.7329 39.0455C49.522 39.2564 49.2358 39.3749 48.9374 39.3749ZM48.9374 31.5H34.3125C34.0141 31.5 33.728 31.3815 33.517 31.1704C33.306 30.9595 33.1874 30.6733 33.1874 30.3749C33.1874 30.0767 33.306 29.7905 33.517 29.5795C33.728 29.3685 34.0141 29.25 34.3125 29.25H48.9374C49.2358 29.25 49.522 29.3685 49.7329 29.5795C49.9439 29.7905 50.0625 30.0767 50.0625 30.3749C50.0625 30.6733 49.9439 30.9595 49.7329 31.1704C49.522 31.3815 49.2358 31.5 48.9374 31.5Z" fill="#3751FF" fill-opacity="0.25"/>
<path d="M59.3552 52.4766V60.0211C60.1278 59.8049 60.8227 59.3731 61.3586 58.7763C61.8946 58.1794 62.2494 57.4422 62.3815 56.651C62.7889 54.2256 61.2712 53.1753 59.3552 52.4766Z" fill="#3751FF" fill-opacity="0.25"/>
<path d="M55.832 1.69651L46.3914 18.4798L37.3101 10.4076C37.1815 10.3032 37.0321 10.2273 36.8719 10.185C36.7117 10.1427 36.5443 10.135 36.3809 10.1623C36.2174 10.1896 36.0617 10.2514 35.924 10.3435C35.7863 10.4356 35.6696 10.5559 35.582 10.6965L26.1414 27.4798L17.0601 19.4076C16.9316 19.3028 16.7823 19.2266 16.622 19.184C16.4617 19.1415 16.2942 19.1336 16.1307 19.1609C15.9671 19.1883 15.8113 19.2502 15.6736 19.3426C15.5359 19.435 15.4193 19.5556 15.332 19.6965L7.31251 33.9533V4.96387L8.76713 6.41849C8.87142 6.52367 8.99547 6.60722 9.13214 6.66435C9.26881 6.72147 9.41541 6.75103 9.56354 6.75135C9.71166 6.75166 9.8584 6.72271 9.9953 6.66617C10.1322 6.60963 10.2566 6.52659 10.3613 6.42185C10.4661 6.3171 10.5491 6.19271 10.6056 6.0558C10.6622 5.91888 10.6911 5.77215 10.6908 5.62402C10.6905 5.4759 10.6609 5.3293 10.6038 5.19263C10.5467 5.05596 10.463 4.93193 10.3579 4.82764L6.98367 1.45339C6.77208 1.24306 6.48585 1.125 6.1875 1.125C5.88916 1.125 5.60293 1.24306 5.39134 1.45339L2.01713 4.82764C1.80837 5.03903 1.69171 5.32445 1.69264 5.62155C1.69357 5.91867 1.812 6.20333 2.02208 6.41343C2.23217 6.62353 2.51684 6.74197 2.81395 6.74291C3.11105 6.74385 3.39647 6.62721 3.60788 6.41845L5.06251 4.96387V51.748H2.81251C2.51413 51.748 2.22798 51.8665 2.01701 52.0776C1.80603 52.2886 1.68751 52.5747 1.6875 52.8731C1.68751 53.1714 1.80603 53.4575 2.01701 53.6685C2.22798 53.8796 2.51413 53.998 2.81251 53.998H5.06251V56.248C5.06251 56.5464 5.18103 56.8326 5.39201 57.0435C5.60299 57.2545 5.88913 57.3731 6.1875 57.3731C6.48588 57.3731 6.77202 57.2545 6.983 57.0435C7.19398 56.8326 7.31251 56.5464 7.31251 56.248V53.998H56.8125C56.9602 53.998 57.1066 53.969 57.2431 53.9125C57.3796 53.856 57.5036 53.7731 57.6081 53.6686C57.7125 53.5642 57.7954 53.4401 57.8519 53.3037C57.9085 53.1671 57.9376 53.0208 57.9375 52.8731V2.24805C57.9315 2.00245 57.8457 1.76548 57.6933 1.57286C57.5409 1.38024 57.3299 1.24241 57.0922 1.18016C56.8546 1.11791 56.6031 1.13462 56.3758 1.22775C56.1485 1.32089 55.9576 1.48541 55.832 1.69651ZM15.1875 51.748H7.31251V38.5428L15.1875 24.5427V51.748ZM25.3125 51.748H17.4375V22.7531L25.3125 29.7532V51.748ZM35.4375 51.748H27.5625V29.5428L35.4375 15.5427V51.748ZM45.5625 51.748H37.6875V13.7531L45.5625 20.7532V51.748ZM55.6875 51.748H47.8125V20.5428L55.6875 6.54278V51.748Z" fill="#0F062B"/>
</svg>
