<svg width="72" height="65" viewBox="0 0 72 65" fill="none" xmlns="http://www.w3.org/2000/svg">
<g clip-path="url(#clip0_3447_6597)">
<path d="M69.9201 37.0771C62.344 25.4766 63.1492 13.5855 59.4974 7.99452C55.8455 2.40357 44.9621 -7.23588 19.2469 9.561C-6.46835 26.358 0.0721338 44.6172 4.09057 50.7651C22.8967 79.5552 83.3395 57.622 69.9201 37.0771Z" fill="#F1F1F1"/>
<path d="M61.1172 57.774L62.5336 56.3574L65.3666 59.1904L63.9501 60.6069L61.1172 57.774Z" fill="black"/>
<path d="M52.6169 59.1753L55.4499 56.3423L56.8664 57.7587L54.0335 60.5917L52.6169 59.1753Z" fill="black"/>
<path d="M60.7617 51.0322L63.5947 48.1992L65.0112 49.6157L62.1782 52.4487L60.7617 51.0322Z" fill="black"/>
<path d="M30.0469 48.8857C30.0469 52.2111 32.7312 54.8954 36.0564 54.8954C39.3818 54.8954 42.0661 52.2111 42.0661 48.8857H30.0469Z" fill="#3751FF" fill-opacity="0.25"/>
<path d="M48.5771 28.3531V33.938C48.5771 38.3371 50.5142 42.5118 53.8736 45.3503L53.8756 45.3523L53.8856 45.3603C54.3062 45.7209 54.5867 46.2617 54.5867 46.8827C54.5867 47.9845 53.6853 48.8859 52.5835 48.8859H36.5578H19.5306C18.4288 48.8859 17.5273 47.9845 17.5273 46.8827C17.5273 46.2617 17.8078 45.7209 18.2285 45.3603L18.2384 45.3523L18.2405 45.3503C21.5999 42.5118 23.537 38.335 23.537 33.938V28.3531C23.537 21.438 29.1419 15.833 36.0571 15.833C42.9721 15.833 48.5771 21.438 48.5771 28.3531Z" fill="#F1F1F1"/>
<path d="M22.0345 46.8827C22.0345 46.2617 22.315 45.7209 22.7357 45.3603L22.7457 45.3523L22.7477 45.3503C26.1071 42.5118 28.0442 38.335 28.0442 33.938V28.3531C28.0442 22.2092 32.4733 17.109 38.3107 16.0454C37.5795 15.9131 36.8283 15.833 36.0571 15.833C29.142 15.833 23.537 21.438 23.537 28.3531V33.938C23.537 38.3371 21.5999 42.5118 18.2405 45.3503L18.2384 45.3523L18.2285 45.3603C17.8078 45.7209 17.5273 46.2617 17.5273 46.8827C17.5273 47.9845 18.4288 48.8859 19.5306 48.8859H24.0378C22.936 48.8859 22.0345 47.9845 22.0345 46.8827Z" fill="#F1F1F1"/>
<path d="M10.0165 9.32263C8.3599 9.32263 7.01172 7.97446 7.01172 6.31781C7.01172 4.66115 8.3599 3.31299 10.0165 3.31299C11.6732 3.31299 13.0214 4.66115 13.0214 6.31781C13.0214 7.97446 11.6732 9.32263 10.0165 9.32263ZM10.0165 5.3162C9.46368 5.3162 9.01494 5.76492 9.01494 6.31781C9.01494 6.87069 9.46368 7.31941 10.0165 7.31941C10.5694 7.31941 11.0182 6.87069 11.0182 6.31781C11.0182 5.76492 10.5694 5.3162 10.0165 5.3162Z" fill="black"/>
<path d="M58.0921 28.3528H55.0873C55.0873 22.6016 52.8478 17.1929 48.7812 13.1264L50.9066 11.001C55.5381 15.6364 58.0921 21.7983 58.0921 28.3528Z" fill="black"/>
<path d="M17.0283 28.3528H14.0234C14.0234 21.7983 16.5756 15.6364 21.211 11.001L23.3364 13.1264C19.2679 17.1929 17.0283 22.5996 17.0283 28.3528Z" fill="black"/>
<path d="M36.059 56.3978C31.9163 56.3978 28.5469 53.0284 28.5469 48.8857H31.5517C31.5517 51.3718 33.573 53.3929 36.059 53.3929C38.5449 53.3929 40.5662 51.3718 40.5662 48.8857H43.571C43.571 53.0284 40.2016 56.3978 36.059 56.3978Z" fill="black"/>
<path d="M52.5859 50.3888H19.5329C17.5999 50.3888 16.0273 48.8163 16.0273 46.8831C16.0273 45.8575 16.4741 44.886 17.2533 44.2189C20.3002 41.6448 22.0369 37.9028 22.0369 33.9384V28.3535C22.0369 20.6211 28.327 14.3311 36.0594 14.3311C43.7918 14.3311 50.0819 20.6211 50.0819 28.3535V33.9384C50.0819 37.9028 51.8187 41.6448 54.8455 44.2049C55.6448 44.886 56.0915 45.8575 56.0915 46.8831C56.0915 48.8163 54.519 50.3888 52.5859 50.3888ZM36.0594 17.3358C29.9837 17.3358 25.0417 22.2778 25.0417 28.3535V33.9384C25.0417 38.7882 22.9164 43.3675 19.2124 46.4986C19.1423 46.5587 19.0322 46.6828 19.0322 46.8831C19.0322 47.1556 19.2605 47.384 19.5329 47.384H52.5859C52.8583 47.384 53.0867 47.1556 53.0867 46.8831C53.0867 46.6828 52.9765 46.5587 52.9104 46.5026C49.2025 43.3675 47.0771 38.7882 47.0771 33.9384V28.3535C47.0771 22.2778 42.1352 17.3358 36.0594 17.3358Z" fill="black"/>
<path d="M34.5547 9.82373H37.5594V15.8333H34.5547V9.82373Z" fill="black"/>
</g>
<defs>
<clipPath id="clip0_3447_6597">
<rect width="72" height="64.7191" fill="white"/>
</clipPath>
</defs>
</svg>
