<svg width="72" height="67" viewBox="0 0 72 67" fill="none" xmlns="http://www.w3.org/2000/svg">
<g clip-path="url(#clip0_3447_6550)">
<path d="M44.8549 60.5095C35.8382 68.6517 21.7945 63.2546 15.2058 58.8623C2.0284 48.9791 -6.17541 17.3008 6.86617 8.69239C18.3965 1.08161 24.985 11.9868 51.1075 1.08161C70.7305 -7.11032 76.0476 38.3415 66.1644 39.9886C56.2815 41.6358 52.9869 53.1661 44.8549 60.5095Z" fill="#F1F1F1"/>
<path d="M16.7887 17.1885C13.2076 17.1885 10.3047 20.0914 10.3047 23.6724V51.966C10.3047 55.547 13.2076 58.4499 16.7887 58.4499H54.5134C58.0944 58.4499 60.9972 55.547 60.9972 51.966V23.6724C60.9972 20.0914 58.0944 17.1885 54.5134 17.1885H16.7887Z" fill="#F1F1F1"/>
<path fill-rule="evenodd" clip-rule="evenodd" d="M10.3047 23.6724C10.3047 20.0914 13.2076 17.1885 16.7887 17.1885H22.6831C19.1021 17.1885 16.1992 20.0914 16.1992 23.6724V51.966C16.1992 55.547 19.1021 58.4499 22.6831 58.4499H16.7887C13.2076 58.4499 10.3047 55.547 10.3047 51.966V23.6724Z" fill="#3751FF" fill-opacity="0.25"/>
<path fill-rule="evenodd" clip-rule="evenodd" d="M10.3047 23.6724C10.3047 20.0914 13.2076 17.1885 16.7887 17.1885H54.5134C58.0944 17.1885 60.9972 20.0914 60.9972 23.6724V51.966C60.9972 55.547 58.0944 58.4499 54.5134 58.4499H16.7887C13.2076 58.4499 10.3047 55.547 10.3047 51.966V23.6724ZM16.7887 20.7252C15.1609 20.7252 13.8414 22.0446 13.8414 23.6724V51.966C13.8414 53.5938 15.1609 54.9133 16.7887 54.9133H54.5134C56.1411 54.9133 57.4606 53.5938 57.4606 51.966V23.6724C57.4606 22.0446 56.1411 20.7252 54.5134 20.7252H16.7887Z" fill="#3751FF" fill-opacity="0.25"/>
<path d="M32.037 27.0073C31.5063 26.5826 30.7792 26.4996 30.1664 26.7942C29.5538 27.0886 29.1641 27.7082 29.1641 28.388V47.2504C29.1641 47.9301 29.5538 48.5497 30.1664 48.8442C30.7792 49.1387 31.5063 49.056 32.037 48.6313L43.826 39.2002C44.2454 38.8644 44.4897 38.3563 44.4897 37.8192C44.4897 37.2821 44.2454 36.7739 43.826 36.4384L32.037 27.0073Z" fill="#3751FF" fill-opacity="0.25"/>
<path fill-rule="evenodd" clip-rule="evenodd" d="M30.1664 26.7942C30.7792 26.4996 31.5063 26.5826 32.037 27.0073L35.0585 29.4242V46.2141L32.037 48.6313C31.5063 49.056 30.7792 49.1387 30.1664 48.8442C29.5538 48.5497 29.1641 47.9301 29.1641 47.2504V28.388C29.1641 27.7082 29.5538 27.0886 30.1664 26.7942Z" fill="#3751FF" fill-opacity="0.25"/>
<path fill-rule="evenodd" clip-rule="evenodd" d="M10.3047 23.6724C10.3047 20.0914 13.2076 17.1885 16.7887 17.1885H54.5134C58.0944 17.1885 60.9972 20.0914 60.9972 23.6724V51.966C60.9972 55.547 58.0944 58.4499 54.5134 58.4499H16.7887C13.2076 58.4499 10.3047 55.547 10.3047 51.966V23.6724ZM16.7887 20.7252C15.1609 20.7252 13.8414 22.0446 13.8414 23.6724V51.966C13.8414 53.5938 15.1609 54.9132 16.7887 54.9132H54.5134C56.1411 54.9132 57.4606 53.5938 57.4606 51.966V23.6724C57.4606 22.0446 56.1411 20.7252 54.5134 20.7252H16.7887Z" fill="black"/>
<path fill-rule="evenodd" clip-rule="evenodd" d="M22.6086 20.207L15.5352 13.1337L18.036 10.6328L23.8589 16.4557L29.682 10.6328L32.1827 13.1337L25.1093 20.207C24.4187 20.8976 23.2992 20.8976 22.6086 20.207Z" fill="black"/>
<path fill-rule="evenodd" clip-rule="evenodd" d="M30.1664 26.7942C30.7792 26.4996 31.5063 26.5826 32.037 27.0073L43.826 36.4384C44.2454 36.7739 44.4897 37.2821 44.4897 37.8192C44.4897 38.3563 44.2454 38.8644 43.826 39.2002L32.037 48.6313C31.5063 49.056 30.7792 49.1387 30.1664 48.8442C29.5538 48.5497 29.1641 47.9301 29.1641 47.2504V28.388C29.1641 27.7082 29.5538 27.0886 30.1664 26.7942ZM32.7008 32.0674V43.5711L39.8906 37.8192L32.7008 32.0674Z" fill="black"/>
<path fill-rule="evenodd" clip-rule="evenodd" d="M67.482 63.7551C68.1331 63.7551 68.6609 63.2272 68.6609 62.5762C68.6609 61.9253 68.1331 61.3973 67.482 61.3973C66.831 61.3973 66.3031 61.9253 66.3031 62.5762C66.3031 63.2272 66.831 63.7551 67.482 63.7551ZM67.482 66.1129C69.4353 66.1129 71.0187 64.5294 71.0187 62.5762C71.0187 60.623 69.4353 59.0396 67.482 59.0396C65.5288 59.0396 63.9453 60.623 63.9453 62.5762C63.9453 64.5294 65.5288 66.1129 67.482 66.1129Z" fill="black"/>
</g>
<defs>
<clipPath id="clip0_3447_6550">
<rect width="72" height="66.2069" fill="white"/>
</clipPath>
</defs>
</svg>
